Workaround SemiRound Bold.ufo
<glyph name="Exclamation_Mark" format="1">
  <advance width="345"/>
  <unicode hex="0021"/>
  <outline>
    <contour>
      <point x="210" y="123" type="line" smooth="yes"/>
      <point x="210" y="159"/>
      <point x="163" y="188"/>
      <point x="105" y="188" type="curve" smooth="yes"/>
      <point x="47" y="188"/>
      <point x="0" y="159"/>
      <point x="0" y="123" type="curve" smooth="yes"/>
      <point x="0" y="60" type="line" smooth="yes"/>
      <point x="0" y="24"/>
      <point x="47" y="-6"/>
      <point x="105" y="-6" type="curve" smooth="yes"/>
      <point x="163" y="-6"/>
      <point x="210" y="24"/>
      <point x="210" y="60" type="curve" smooth="yes"/>
    </contour>
    <contour>
      <point x="210" y="940" type="line" smooth="yes"/>
      <point x="210" y="976"/>
      <point x="163" y="1006"/>
      <point x="105" y="1006" type="curve" smooth="yes"/>
      <point x="47" y="1006"/>
      <point x="0" y="976"/>
      <point x="0" y="940" type="curve" smooth="yes"/>
      <point x="0" y="394" type="line" smooth="yes"/>
      <point x="0" y="358"/>
      <point x="47" y="328"/>
      <point x="105" y="328" type="curve" smooth="yes"/>
      <point x="163" y="328"/>
      <point x="210" y="358"/>
      <point x="210" y="394" type="curve" smooth="yes"/>
    </contour>
  </outline>
</glyph>
<glyph name="exclam" format="1">
  <advance width="360"/>
  <unicode hex="0021"/>
  <outline>
    <contour>
      <point x="225" y="178" type="line" smooth="yes"/>
      <point x="225" y="193"/>
      <point x="174" y="206"/>
      <point x="112" y="206" type="curve" smooth="yes"/>
      <point x="50" y="206"/>
      <point x="0" y="193"/>
      <point x="0" y="178" type="curve" smooth="yes"/>
      <point x="0" y="22" type="line" smooth="yes"/>
      <point x="0" y="7"/>
      <point x="50" y="-6"/>
      <point x="112" y="-6" type="curve" smooth="yes"/>
      <point x="174" y="-6"/>
      <point x="225" y="7"/>
      <point x="225" y="22" type="curve" smooth="yes"/>
    </contour>
    <contour>
      <point x="225" y="978" type="line"/>
      <point x="225" y="993"/>
      <point x="174" y="1006"/>
      <point x="112" y="1006" type="curve" smooth="yes"/>
      <point x="50" y="1006"/>
      <point x="0" y="993"/>
      <point x="0" y="978" type="curve" smooth="yes"/>
      <point x="15" y="360" type="line" smooth="yes"/>
      <point x="15" y="347"/>
      <point x="58" y="336"/>
      <point x="112" y="336" type="curve" smooth="yes"/>
      <point x="166" y="336"/>
      <point x="210" y="347"/>
      <point x="210" y="360" type="curve"/>
    </contour>
  </outline>
</glyph>
<glyph name="quotedbl" format="1">
  <advance width="671"/>
  <unicode hex="0022"/>
  <outline>
    <contour>
      <point x="210" y="939" type="line" smooth="yes"/>
      <point x="214" y="963"/>
      <point x="195" y="984"/>
      <point x="160" y="997" type="curve" smooth="yes"/>
      <point x="126" y="1009"/>
      <point x="84" y="1009"/>
      <point x="50" y="997" type="curve" smooth="yes"/>
      <point x="15" y="984"/>
      <point x="-3" y="963"/>
      <point x="1" y="939" type="curve" smooth="yes"/>
      <point x="34" y="741" type="line" smooth="yes"/>
      <point x="38" y="720"/>
      <point x="68" y="704"/>
      <point x="105" y="704" type="curve" smooth="yes"/>
      <point x="142" y="704"/>
      <point x="173" y="720"/>
      <point x="176" y="741" type="curve" smooth="yes"/>
    </contour>
    <contour>
      <point x="535" y="939" type="line" smooth="yes"/>
      <point x="539" y="963"/>
      <point x="521" y="984"/>
      <point x="486" y="997" type="curve" smooth="yes"/>
      <point x="451" y="1009"/>
      <point x="410" y="1009"/>
      <point x="375" y="997" type="curve" smooth="yes"/>
      <point x="340" y="984"/>
      <point x="322" y="963"/>
      <point x="326" y="939" type="curve" smooth="yes"/>
      <point x="359" y="741" type="line" smooth="yes"/>
      <point x="363" y="720"/>
      <point x="394" y="704"/>
      <point x="431" y="704" type="curve" smooth="yes"/>
      <point x="468" y="704"/>
      <point x="498" y="720"/>
      <point x="502" y="741" type="curve" smooth="yes"/>
    </contour>
  </outline>
</glyph>
<glyph name="numbersign" format="1">
  <advance width="1077"/>
  <unicode hex="0023"/>
  <outline>
    <contour>
      <point x="565" y="603" type="line"/>
      <point x="524" y="397" type="line"/>
      <point x="377" y="397" type="line"/>
      <point x="418" y="603" type="line"/>
    </contour>
    <contour>
      <point x="775" y="603" type="line"/>
      <point x="888" y="603" type="line" smooth="yes"/>
      <point x="904" y="603"/>
      <point x="925" y="646"/>
      <point x="936" y="700" type="curve" smooth="yes"/>
      <point x="947" y="754"/>
      <point x="943" y="797"/>
      <point x="927" y="797" type="curve" smooth="yes"/>
      <point x="814" y="797" type="line"/>
      <point x="850" y="980" type="line" smooth="yes"/>
      <point x="853" y="994"/>
      <point x="809" y="1006"/>
      <point x="751" y="1006" type="curve" smooth="yes"/>
      <point x="693" y="1006"/>
      <point x="643" y="994"/>
      <point x="640" y="980" type="curve" smooth="yes"/>
      <point x="604" y="797" type="line"/>
      <point x="457" y="797" type="line"/>
      <point x="493" y="980" type="line" smooth="yes"/>
      <point x="496" y="994"/>
      <point x="452" y="1006"/>
      <point x="394" y="1006" type="curve" smooth="yes"/>
      <point x="336" y="1006"/>
      <point x="286" y="994"/>
      <point x="283" y="980" type="curve" smooth="yes"/>
      <point x="247" y="797" type="line"/>
      <point x="134" y="797" type="line" smooth="yes"/>
      <point x="118" y="797"/>
      <point x="97" y="754"/>
      <point x="86" y="700" type="curve" smooth="yes"/>
      <point x="75" y="646"/>
      <point x="79" y="603"/>
      <point x="95" y="603" type="curve" smooth="yes"/>
      <point x="208" y="603" type="line"/>
      <point x="167" y="397" type="line"/>
      <point x="54" y="397" type="line" smooth="yes"/>
      <point x="38" y="397"/>
      <point x="17" y="354"/>
      <point x="6" y="300" type="curve" smooth="yes"/>
      <point x="-5" y="246"/>
      <point x="-1" y="203"/>
      <point x="15" y="203" type="curve" smooth="yes"/>
      <point x="128" y="203" type="line"/>
      <point x="92" y="20" type="line" smooth="yes"/>
      <point x="89" y="6"/>
      <point x="133" y="-6"/>
      <point x="191" y="-6" type="curve" smooth="yes"/>
      <point x="249" y="-6"/>
      <point x="299" y="6"/>
      <point x="302" y="20" type="curve" smooth="yes"/>
      <point x="338" y="203" type="line"/>
      <point x="485" y="203" type="line"/>
      <point x="449" y="20" type="line" smooth="yes"/>
      <point x="446" y="6"/>
      <point x="490" y="-6"/>
      <point x="548" y="-6" type="curve" smooth="yes"/>
      <point x="606" y="-6"/>
      <point x="656" y="6"/>
      <point x="659" y="20" type="curve" smooth="yes"/>
      <point x="695" y="203" type="line"/>
      <point x="808" y="203" type="line" smooth="yes"/>
      <point x="824" y="203"/>
      <point x="845" y="246"/>
      <point x="856" y="300" type="curve" smooth="yes"/>
      <point x="867" y="354"/>
      <point x="863" y="397"/>
      <point x="847" y="397" type="curve" smooth="yes"/>
      <point x="734" y="397" type="line"/>
    </contour>
  </outline>
</glyph>
<glyph name="dollar" format="1">
  <advance width="788"/>
  <unicode hex="0024"/>
  <outline>
    <contour>
      <point x="396" y="8" type="line"/>
      <point x="545" y="48"/>
      <point x="653" y="172"/>
      <point x="653" y="318" type="curve" smooth="yes"/>
      <point x="653" y="477"/>
      <point x="540" y="562"/>
      <point x="396" y="618" type="curve"/>
      <point x="396" y="795" type="line"/>
      <point x="402" y="792"/>
      <point x="407" y="790"/>
      <point x="411" y="787" type="curve"/>
      <point x="422" y="777"/>
      <point x="463" y="798"/>
      <point x="503" y="836" type="curve" smooth="yes"/>
      <point x="544" y="873"/>
      <point x="568" y="912"/>
      <point x="559" y="924" type="curve"/>
      <point x="512" y="961"/>
      <point x="457" y="986"/>
      <point x="396" y="998" type="curve"/>
      <point x="396" y="1060" type="line" smooth="yes"/>
      <point x="396" y="1070"/>
      <point x="363" y="1078"/>
      <point x="323" y="1078" type="curve" smooth="yes"/>
      <point x="282" y="1078"/>
      <point x="249" y="1070"/>
      <point x="249" y="1060" type="curve" smooth="yes"/>
      <point x="249" y="1001" type="line"/>
      <point x="107" y="976"/>
      <point x="0" y="863"/>
      <point x="0" y="727" type="curve" smooth="yes"/>
      <point x="0" y="584"/>
      <point x="115" y="511"/>
      <point x="249" y="463" type="curve"/>
      <point x="249" y="191" type="line"/>
      <point x="212" y="196"/>
      <point x="179" y="208"/>
      <point x="149" y="226" type="curve"/>
      <point x="139" y="236"/>
      <point x="98" y="215"/>
      <point x="57" y="177" type="curve" smooth="yes"/>
      <point x="17" y="140"/>
      <point x="-7" y="101"/>
      <point x="2" y="90" type="curve"/>
      <point x="72" y="34"/>
      <point x="154" y="3"/>
      <point x="249" y="-4" type="curve"/>
      <point x="249" y="-60" type="line" smooth="yes"/>
      <point x="249" y="-70"/>
      <point x="282" y="-78"/>
      <point x="323" y="-78" type="curve" smooth="yes"/>
      <point x="363" y="-78"/>
      <point x="396" y="-70"/>
      <point x="396" y="-60" type="curve" smooth="yes"/>
    </contour>
    <contour>
      <point x="249" y="794" type="curve"/>
      <point x="249" y="677" type="line"/>
      <point x="229" y="691"/>
      <point x="214" y="707"/>
      <point x="214" y="727" type="curve" smooth="yes"/>
      <point x="213" y="754"/>
      <point x="227" y="778"/>
    </contour>
    <contour>
      <point x="396" y="227" type="curve"/>
      <point x="396" y="395" type="line"/>
      <point x="421" y="374"/>
      <point x="438" y="349"/>
      <point x="438" y="318" type="curve" smooth="yes"/>
      <point x="438" y="283"/>
      <point x="422" y="251"/>
    </contour>
  </outline>
</glyph>
<glyph name="percent" format="1">
  <advance width="1247"/>
  <unicode hex="0025"/>
  <outline>
    <contour>
      <point x="171" y="757" type="curve" smooth="yes"/>
      <point x="171" y="809"/>
      <point x="215" y="850"/>
      <point x="269" y="850" type="curve" smooth="yes"/>
      <point x="323" y="850"/>
      <point x="367" y="809"/>
      <point x="367" y="757" type="curve" smooth="yes"/>
      <point x="367" y="706"/>
      <point x="323" y="664"/>
      <point x="269" y="664" type="curve" smooth="yes"/>
      <point x="215" y="664"/>
      <point x="171" y="706"/>
    </contour>
    <contour>
      <point x="0" y="757" type="curve" smooth="yes"/>
      <point x="0" y="620"/>
      <point x="120" y="509"/>
      <point x="269" y="509" type="curve" smooth="yes"/>
      <point x="417" y="509"/>
      <point x="538" y="620"/>
      <point x="538" y="757" type="curve" smooth="yes"/>
      <point x="538" y="895"/>
      <point x="417" y="1006"/>
      <point x="269" y="1006" type="curve" smooth="yes"/>
      <point x="120" y="1006"/>
      <point x="0" y="895"/>
    </contour>
    <contour>
      <point x="745" y="243" type="curve" smooth="yes"/>
      <point x="745" y="294"/>
      <point x="789" y="336"/>
      <point x="843" y="336" type="curve" smooth="yes"/>
      <point x="897" y="336"/>
      <point x="941" y="294"/>
      <point x="941" y="243" type="curve" smooth="yes"/>
      <point x="941" y="191"/>
      <point x="897" y="150"/>
      <point x="843" y="150" type="curve" smooth="yes"/>
      <point x="789" y="150"/>
      <point x="745" y="191"/>
    </contour>
    <contour>
      <point x="574" y="243" type="curve" smooth="yes"/>
      <point x="574" y="105"/>
      <point x="695" y="-6"/>
      <point x="843" y="-6" type="curve" smooth="yes"/>
      <point x="991" y="-6"/>
      <point x="1112" y="105"/>
      <point x="1112" y="243" type="curve" smooth="yes"/>
      <point x="1112" y="380"/>
      <point x="991" y="491"/>
      <point x="843" y="491" type="curve" smooth="yes"/>
      <point x="695" y="491"/>
      <point x="574" y="380"/>
    </contour>
    <contour>
      <point x="1021" y="897" type="line"/>
      <point x="1026" y="902"/>
      <point x="1020" y="917"/>
      <point x="1004" y="937" type="curve" smooth="yes"/>
      <point x="988" y="957"/>
      <point x="966" y="976"/>
      <point x="945" y="990" type="curve" smooth="yes"/>
      <point x="923" y="1005"/>
      <point x="908" y="1009"/>
      <point x="903" y="1003" type="curve" smooth="yes"/>
      <point x="91" y="103" type="line"/>
      <point x="83" y="95"/>
      <point x="103" y="64"/>
      <point x="136" y="34" type="curve" smooth="yes"/>
      <point x="168" y="5"/>
      <point x="201" y="-12"/>
      <point x="209" y="-3" type="curve" smooth="yes"/>
    </contour>
  </outline>
</glyph>
<glyph name="ampersand" format="1">
  <advance width="953"/>
  <unicode hex="0026"/>
  <outline>
    <contour>
      <point x="302" y="637" type="curve"/>
      <point x="293" y="650"/>
      <point x="284" y="664"/>
      <point x="275" y="677" type="curve" smooth="yes"/>
      <point x="265" y="693"/>
      <point x="260" y="708"/>
      <point x="260" y="727" type="curve" smooth="yes"/>
      <point x="260" y="774"/>
      <point x="294" y="812"/>
      <point x="336" y="812" type="curve" smooth="yes"/>
      <point x="378" y="812"/>
      <point x="412" y="774"/>
      <point x="412" y="727" type="curve" smooth="yes"/>
      <point x="412" y="668"/>
      <point x="342" y="654"/>
    </contour>
    <contour>
      <point x="544" y="373" type="curve"/>
      <point x="504" y="408"/>
      <point x="466" y="445"/>
      <point x="429" y="483" type="curve"/>
      <point x="523" y="534"/>
      <point x="622" y="603"/>
      <point x="622" y="727" type="curve" smooth="yes"/>
      <point x="622" y="881"/>
      <point x="494" y="1006"/>
      <point x="336" y="1006" type="curve" smooth="yes"/>
      <point x="178" y="1006"/>
      <point x="50" y="881"/>
      <point x="50" y="727" type="curve" smooth="yes"/>
      <point x="50" y="665"/>
      <point x="68" y="613"/>
      <point x="105" y="563" type="curve" smooth="yes"/>
      <point x="112" y="554"/>
      <point x="118" y="546"/>
      <point x="125" y="537" type="curve"/>
      <point x="55" y="486"/>
      <point x="0" y="418"/>
      <point x="0" y="318" type="curve" smooth="yes"/>
      <point x="0" y="139"/>
      <point x="151" y="-6"/>
      <point x="336" y="-6" type="curve" smooth="yes"/>
      <point x="424" y="-6"/>
      <point x="506" y="26"/>
      <point x="577" y="86" type="curve"/>
      <point x="612" y="56"/>
      <point x="649" y="25"/>
      <point x="686" y="-7" type="curve" smooth="yes"/>
      <point x="697" y="-16"/>
      <point x="735" y="10"/>
      <point x="771" y="51" type="curve" smooth="yes"/>
      <point x="806" y="93"/>
      <point x="826" y="134"/>
      <point x="814" y="144" type="curve" smooth="yes"/>
      <point x="776" y="177"/>
      <point x="738" y="208"/>
      <point x="700" y="239" type="curve"/>
      <point x="726" y="285"/>
      <point x="748" y="337"/>
      <point x="766" y="393" type="curve" smooth="yes"/>
      <point x="771" y="407"/>
      <point x="734" y="436"/>
      <point x="683" y="458" type="curve" smooth="yes"/>
      <point x="631" y="481"/>
      <point x="585" y="488"/>
      <point x="578" y="475" type="curve"/>
      <point x="568" y="438"/>
      <point x="557" y="404"/>
    </contour>
    <contour>
      <point x="246" y="394" type="curve"/>
      <point x="304" y="331"/>
      <point x="364" y="273"/>
      <point x="427" y="217" type="curve"/>
      <point x="399" y="198"/>
      <point x="368" y="188"/>
      <point x="336" y="188" type="curve" smooth="yes"/>
      <point x="266" y="188"/>
      <point x="210" y="247"/>
      <point x="210" y="318" type="curve" smooth="yes"/>
      <point x="210" y="352"/>
      <point x="225" y="376"/>
    </contour>
  </outline>
</glyph>
<glyph name="quotesingle" format="1">
  <advance width="345"/>
  <unicode hex="0027"/>
  <outline>
    <contour>
      <point x="210" y="978" type="line" smooth="yes"/>
      <point x="212" y="988"/>
      <point x="193" y="997"/>
      <point x="159" y="1002" type="curve" smooth="yes"/>
      <point x="125" y="1007"/>
      <point x="85" y="1007"/>
      <point x="51" y="1002" type="curve" smooth="yes"/>
      <point x="17" y="997"/>
      <point x="-2" y="988"/>
      <point x="0" y="978" type="curve" smooth="yes"/>
      <point x="34" y="779" type="line"/>
      <point x="35" y="769"/>
      <point x="67" y="762"/>
      <point x="105" y="762" type="curve" smooth="yes"/>
      <point x="143" y="762"/>
      <point x="175" y="769"/>
      <point x="176" y="779" type="curve"/>
    </contour>
  </outline>
</glyph>
<glyph name="parenleft" format="1">
  <advance width="448"/>
  <unicode hex="0028"/>
  <outline>
    <contour>
      <point x="312" y="964" type="curve" smooth="yes"/>
      <point x="317" y="978"/>
      <point x="279" y="1005"/>
      <point x="226" y="1025" type="curve" smooth="yes"/>
      <point x="173" y="1045"/>
      <point x="126" y="1050"/>
      <point x="121" y="1036" type="curve" smooth="yes"/>
      <point x="-40" y="608"/>
      <point x="-40" y="192"/>
      <point x="121" y="-236" type="curve" smooth="yes"/>
      <point x="126" y="-250"/>
      <point x="173" y="-245"/>
      <point x="226" y="-225" type="curve" smooth="yes"/>
      <point x="279" y="-205"/>
      <point x="317" y="-178"/>
      <point x="312" y="-164" type="curve" smooth="yes"/>
      <point x="169" y="215"/>
      <point x="169" y="585"/>
    </contour>
  </outline>
</glyph>
<glyph name="parenright" format="1">
  <advance width="448"/>
  <unicode hex="0029"/>
  <outline>
    <contour>
      <point x="0" y="964" type="curve" smooth="yes"/>
      <point x="144" y="585"/>
      <point x="144" y="215"/>
      <point x="0" y="-164" type="curve" smooth="yes"/>
      <point x="-5" y="-178"/>
      <point x="34" y="-205"/>
      <point x="87" y="-225" type="curve" smooth="yes"/>
      <point x="139" y="-245"/>
      <point x="186" y="-250"/>
      <point x="192" y="-236" type="curve" smooth="yes"/>
      <point x="353" y="192"/>
      <point x="353" y="608"/>
      <point x="192" y="1036" type="curve" smooth="yes"/>
      <point x="186" y="1050"/>
      <point x="139" y="1045"/>
      <point x="87" y="1025" type="curve" smooth="yes"/>
      <point x="34" y="1005"/>
      <point x="-5" y="978"/>
    </contour>
  </outline>
</glyph>
<glyph name="asterisk" format="1">
  <advance width="564"/>
  <unicode hex="002A"/>
  <outline>
    <contour>
      <point x="293" y="976" type="line"/>
      <point x="293" y="987"/>
      <point x="258" y="996"/>
      <point x="214" y="996" type="curve" smooth="yes"/>
      <point x="171" y="996"/>
      <point x="135" y="987"/>
      <point x="135" y="976" type="curve"/>
      <point x="159" y="871" type="line"/>
      <point x="78" y="940" type="line"/>
      <point x="68" y="945"/>
      <point x="43" y="921"/>
      <point x="23" y="886" type="curve" smooth="yes"/>
      <point x="3" y="851"/>
      <point x="-6" y="818"/>
      <point x="4" y="812" type="curve"/>
      <point x="104" y="776" type="line"/>
      <point x="4" y="740" type="line"/>
      <point x="-6" y="734"/>
      <point x="3" y="701"/>
      <point x="23" y="666" type="curve" smooth="yes"/>
      <point x="43" y="630"/>
      <point x="68" y="606"/>
      <point x="78" y="612" type="curve"/>
      <point x="159" y="681" type="line"/>
      <point x="135" y="576" type="line"/>
      <point x="135" y="565"/>
      <point x="171" y="556"/>
      <point x="214" y="556" type="curve" smooth="yes"/>
      <point x="258" y="556"/>
      <point x="293" y="565"/>
      <point x="293" y="576" type="curve"/>
      <point x="269" y="681" type="line"/>
      <point x="350" y="612" type="line"/>
      <point x="357" y="608"/>
      <point x="369" y="617"/>
      <point x="384" y="635" type="curve" smooth="yes"/>
      <point x="399" y="654"/>
      <point x="413" y="677"/>
      <point x="421" y="699" type="curve" smooth="yes"/>
      <point x="429" y="721"/>
      <point x="431" y="736"/>
      <point x="424" y="740" type="curve"/>
      <point x="324" y="776" type="line"/>
      <point x="424" y="812" type="line"/>
      <point x="434" y="818"/>
      <point x="425" y="851"/>
      <point x="405" y="886" type="curve" smooth="yes"/>
      <point x="385" y="921"/>
      <point x="360" y="945"/>
      <point x="350" y="940" type="curve"/>
      <point x="269" y="871" type="line"/>
    </contour>
  </outline>
</glyph>
<glyph name="plus" format="1">
  <advance width="835"/>
  <unicode hex="002B"/>
  <outline>
    <contour>
      <point x="245" y="413" type="line"/>
      <point x="245" y="188" type="line" smooth="yes"/>
      <point x="245" y="174"/>
      <point x="292" y="162"/>
      <point x="350" y="162" type="curve" smooth="yes"/>
      <point x="408" y="162"/>
      <point x="455" y="174"/>
      <point x="455" y="188" type="curve" smooth="yes"/>
      <point x="455" y="413" type="line"/>
      <point x="672" y="413" type="line" smooth="yes"/>
      <point x="687" y="413"/>
      <point x="700" y="456"/>
      <point x="700" y="510" type="curve" smooth="yes"/>
      <point x="700" y="564"/>
      <point x="687" y="607"/>
      <point x="672" y="607" type="curve" smooth="yes"/>
      <point x="455" y="607" type="line"/>
      <point x="455" y="832" type="line" smooth="yes"/>
      <point x="455" y="846"/>
      <point x="408" y="858"/>
      <point x="350" y="858" type="curve" smooth="yes"/>
      <point x="292" y="858"/>
      <point x="245" y="846"/>
      <point x="245" y="832" type="curve" smooth="yes"/>
      <point x="245" y="607" type="line"/>
      <point x="28" y="607" type="line" smooth="yes"/>
      <point x="13" y="607"/>
      <point x="0" y="564"/>
      <point x="0" y="510" type="curve" smooth="yes"/>
      <point x="0" y="456"/>
      <point x="13" y="413"/>
      <point x="28" y="413" type="curve" smooth="yes"/>
    </contour>
  </outline>
</glyph>
<glyph name="comma" format="1">
  <advance width="366"/>
  <unicode hex="002C"/>
  <outline>
    <contour>
      <point x="231" y="184" type="curve" smooth="yes"/>
      <point x="231" y="200"/>
      <point x="179" y="213"/>
      <point x="116" y="213" type="curve" smooth="yes"/>
      <point x="52" y="213"/>
      <point x="0" y="200"/>
      <point x="0" y="184" type="curve" smooth="yes"/>
      <point x="0" y="23" type="line" smooth="yes"/>
      <point x="0" y="13"/>
      <point x="22" y="4"/>
      <point x="55" y="-2" type="curve"/>
      <point x="59" y="-2"/>
      <point x="62" y="-12"/>
      <point x="63" y="-27" type="curve" smooth="yes"/>
      <point x="64" y="-41"/>
      <point x="62" y="-55"/>
      <point x="58" y="-62" type="curve"/>
      <point x="26" y="-80" type="line"/>
      <point x="21" y="-82"/>
      <point x="25" y="-98"/>
      <point x="33" y="-116" type="curve"/>
      <point x="42" y="-133"/>
      <point x="54" y="-146"/>
      <point x="58" y="-143" type="curve"/>
      <point x="185" y="-79"/>
      <point x="231" y="53"/>
    </contour>
  </outline>
</glyph>
<glyph name="hyphen" format="1">
  <advance width="585"/>
  <unicode hex="002D"/>
  <outline>
    <contour>
      <point x="384" y="413" type="line" smooth="yes"/>
      <point x="421" y="413"/>
      <point x="450" y="456"/>
      <point x="450" y="510" type="curve" smooth="yes"/>
      <point x="450" y="564"/>
      <point x="421" y="607"/>
      <point x="384" y="607" type="curve" smooth="yes"/>
      <point x="66" y="607" type="line" smooth="yes"/>
      <point x="29" y="607"/>
      <point x="0" y="564"/>
      <point x="0" y="510" type="curve" smooth="yes"/>
      <point x="0" y="456"/>
      <point x="29" y="413"/>
      <point x="66" y="413" type="curve" smooth="yes"/>
    </contour>
  </outline>
</glyph>
<glyph name="period" format="1">
  <advance width="366"/>
  <unicode hex="002E"/>
  <outline>
    <contour>
      <point x="231" y="153" type="line" smooth="yes"/>
      <point x="231" y="190"/>
      <point x="179" y="220"/>
      <point x="116" y="220" type="curve" smooth="yes"/>
      <point x="52" y="220"/>
      <point x="0" y="190"/>
      <point x="0" y="153" type="curve" smooth="yes"/>
      <point x="0" y="61" type="line" smooth="yes"/>
      <point x="0" y="24"/>
      <point x="52" y="-6"/>
      <point x="116" y="-6" type="curve" smooth="yes"/>
      <point x="179" y="-6"/>
      <point x="231" y="24"/>
      <point x="231" y="61" type="curve" smooth="yes"/>
    </contour>
  </outline>
</glyph>
<glyph name="slash" format="1">
  <advance width="682"/>
  <unicode hex="002F"/>
  <outline>
    <contour>
      <point x="544" y="1003" type="line" smooth="yes"/>
      <point x="555" y="1035"/>
      <point x="520" y="1076"/>
      <point x="466" y="1093" type="curve" smooth="yes"/>
      <point x="412" y="1111"/>
      <point x="360" y="1099"/>
      <point x="349" y="1067" type="curve" smooth="yes"/>
      <point x="2" y="-3" type="line" smooth="yes"/>
      <point x="-9" y="-35"/>
      <point x="27" y="-76"/>
      <point x="80" y="-93" type="curve" smooth="yes"/>
      <point x="134" y="-111"/>
      <point x="186" y="-99"/>
      <point x="197" y="-67" type="curve" smooth="yes"/>
    </contour>
  </outline>
</glyph>
<glyph name="zero" format="1">
  <advance width="883"/>
  <unicode hex="0030"/>
  <outline>
    <contour>
      <point x="221" y="472" type="curve" smooth="yes"/>
      <point x="221" y="528" type="line" smooth="yes"/>
      <point x="221" y="666"/>
      <point x="283" y="806"/>
      <point x="361" y="806" type="curve" smooth="yes"/>
      <point x="387" y="806" type="line" smooth="yes"/>
      <point x="485" y="806"/>
      <point x="527" y="683"/>
      <point x="527" y="528" type="curve" smooth="yes"/>
      <point x="527" y="472" type="line" smooth="yes"/>
      <point x="527" y="334"/>
      <point x="465" y="194"/>
      <point x="387" y="194" type="curve" smooth="yes"/>
      <point x="361" y="194" type="line" smooth="yes"/>
      <point x="263" y="194"/>
      <point x="221" y="317"/>
    </contour>
    <contour>
      <point x="0" y="472" type="line" smooth="yes"/>
      <point x="0" y="212"/>
      <point x="162" y="0"/>
      <point x="361" y="0" type="curve" smooth="yes"/>
      <point x="387" y="0" type="line" smooth="yes"/>
      <point x="586" y="0"/>
      <point x="748" y="212"/>
      <point x="748" y="472" type="curve" smooth="yes"/>
      <point x="748" y="528" type="line" smooth="yes"/>
      <point x="748" y="788"/>
      <point x="586" y="1000"/>
      <point x="387" y="1000" type="curve" smooth="yes"/>
      <point x="361" y="1000" type="line" smooth="yes"/>
      <point x="162" y="1000"/>
      <point x="0" y="788"/>
      <point x="0" y="528" type="curve" smooth="yes"/>
    </contour>
  </outline>
</glyph>
<glyph name="1" format="1">
  <advance width="513"/>
  <unicode hex="0031"/>
  <outline>
    <contour>
      <point x="378" y="934" type="line" smooth="yes"/>
      <point x="378" y="964"/>
      <point x="349" y="990"/>
      <point x="303" y="1001" type="curve" smooth="yes"/>
      <point x="257" y="1012"/>
      <point x="207" y="1004"/>
      <point x="175" y="981" type="curve"/>
      <point x="12" y="795" type="line" smooth="yes"/>
      <point x="-4" y="777"/>
      <point x="-4" y="749"/>
      <point x="12" y="719" type="curve"/>
      <point x="12" y="719" type="line"/>
      <point x="28" y="689"/>
      <point x="55" y="665"/>
      <point x="87" y="654" type="curve"/>
      <point x="87" y="654" type="line"/>
      <point x="119" y="642"/>
      <point x="147" y="646"/>
      <point x="163" y="665" type="curve"/>
      <point x="168" y="670" type="line"/>
      <point x="168" y="60" type="line" smooth="yes"/>
      <point x="168" y="24"/>
      <point x="215" y="-6"/>
      <point x="273" y="-6" type="curve" smooth="yes"/>
      <point x="331" y="-6"/>
      <point x="378" y="24"/>
      <point x="378" y="60" type="curve" smooth="yes"/>
    </contour>
  </outline>
</glyph>
<glyph name="one" format="1">
  <advance width="535"/>
  <unicode hex="0031"/>
  <outline>
    <contour>
      <point x="400" y="977" type="line" smooth="yes"/>
      <point x="400" y="989"/>
      <point x="370" y="1000"/>
      <point x="324" y="1004" type="curve" smooth="yes"/>
      <point x="277" y="1008"/>
      <point x="227" y="1005"/>
      <point x="195" y="995" type="curve"/>
      <point x="2" y="783" type="line" smooth="yes"/>
      <point x="-8" y="772"/>
      <point x="19" y="735"/>
      <point x="62" y="700" type="curve" smooth="yes"/>
      <point x="105" y="666"/>
      <point x="148" y="646"/>
      <point x="158" y="657" type="curve" smooth="yes"/>
      <point x="190" y="693" type="line"/>
      <point x="190" y="20" type="line" smooth="yes"/>
      <point x="190" y="6"/>
      <point x="237" y="-6"/>
      <point x="295" y="-6" type="curve" smooth="yes"/>
      <point x="353" y="-6"/>
      <point x="400" y="6"/>
      <point x="400" y="20" type="curve" smooth="yes"/>
    </contour>
  </outline>
</glyph>
<glyph name="2" format="1">
  <advance width="812"/>
  <unicode hex="0032"/>
  <outline>
    <contour>
      <point x="279" y="194" type="line"/>
      <point x="606" y="194" type="line" smooth="yes"/>
      <point x="645" y="194"/>
      <point x="677" y="151"/>
      <point x="677" y="97" type="curve"/>
      <point x="677" y="97" type="line"/>
      <point x="677" y="43"/>
      <point x="645" y="0"/>
      <point x="606" y="0" type="curve" smooth="yes"/>
      <point x="89" y="0" type="line" smooth="yes"/>
      <point x="40" y="0"/>
      <point x="0" y="54"/>
      <point x="0" y="121" type="curve"/>
      <point x="0" y="121" type="line"/>
      <point x="0" y="159"/>
      <point x="12" y="192"/>
      <point x="32" y="215" type="curve" smooth="yes"/>
      <point x="452" y="694" type="line"/>
      <point x="462" y="704"/>
      <point x="467" y="716"/>
      <point x="467" y="729" type="curve"/>
      <point x="467" y="729" type="line"/>
      <point x="467" y="771"/>
      <point x="409" y="806"/>
      <point x="338" y="806" type="curve"/>
      <point x="338" y="806" type="line"/>
      <point x="279" y="806"/>
      <point x="229" y="795"/>
      <point x="194" y="774" type="curve"/>
      <point x="190" y="772" type="line"/>
      <point x="169" y="743"/>
      <point x="115" y="745"/>
      <point x="70" y="777" type="curve"/>
      <point x="70" y="777" type="line"/>
      <point x="25" y="810"/>
      <point x="6" y="860"/>
      <point x="28" y="890" type="curve"/>
      <point x="24" y="888" type="line"/>
      <point x="100" y="961"/>
      <point x="210" y="1000"/>
      <point x="338" y="1000" type="curve"/>
      <point x="338" y="1000" type="line"/>
      <point x="525" y="1000"/>
      <point x="677" y="879"/>
      <point x="677" y="729" type="curve"/>
      <point x="677" y="729" type="line"/>
      <point x="677" y="684"/>
      <point x="663" y="641"/>
      <point x="639" y="604" type="curve"/>
    </contour>
  </outline>
</glyph>
<glyph name="two" format="1">
  <advance width="812"/>
  <unicode hex="0032"/>
  <outline>
    <contour>
      <point x="292" y="194" type="line"/>
      <point x="641" y="608" type="line"/>
      <point x="664" y="644"/>
      <point x="677" y="686"/>
      <point x="677" y="729" type="curve" smooth="yes"/>
      <point x="677" y="879"/>
      <point x="525" y="1000"/>
      <point x="338" y="1000" type="curve" smooth="yes"/>
      <point x="211" y="1000"/>
      <point x="98" y="960"/>
      <point x="27" y="892" type="curve" smooth="yes"/>
      <point x="3" y="867"/>
      <point x="17" y="816"/>
      <point x="58" y="779" type="curve" smooth="yes"/>
      <point x="98" y="742"/>
      <point x="150" y="732"/>
      <point x="173" y="757" type="curve" smooth="yes"/>
      <point x="200" y="787"/>
      <point x="264" y="806"/>
      <point x="338" y="806" type="curve" smooth="yes"/>
      <point x="409" y="806"/>
      <point x="467" y="771"/>
      <point x="467" y="729" type="curve" smooth="yes"/>
      <point x="467" y="717"/>
      <point x="462" y="705"/>
      <point x="453" y="695" type="curve" smooth="yes"/>
      <point x="27" y="190" type="line" smooth="yes"/>
      <point x="11" y="171"/>
      <point x="0" y="141"/>
      <point x="0" y="107" type="curve" smooth="yes"/>
      <point x="0" y="48"/>
      <point x="32" y="0"/>
      <point x="72" y="0" type="curve" smooth="yes"/>
      <point x="611" y="0" type="line" smooth="yes"/>
      <point x="647" y="0"/>
      <point x="677" y="43"/>
      <point x="677" y="97" type="curve" smooth="yes"/>
      <point x="677" y="151"/>
      <point x="647" y="194"/>
      <point x="611" y="194" type="curve" smooth="yes"/>
    </contour>
  </outline>
</glyph>
<glyph name="3" format="1">
  <advance width="764"/>
  <unicode hex="0033"/>
  <outline>
    <contour>
      <point x="462" y="549" type="curve"/>
      <point x="529" y="585"/>
      <point x="574" y="651"/>
      <point x="574" y="727" type="curve"/>
      <point x="574" y="727" type="line"/>
      <point x="574" y="881"/>
      <point x="437" y="1006"/>
      <point x="267" y="1006" type="curve"/>
      <point x="267" y="1006" type="line"/>
      <point x="182" y="1006"/>
      <point x="110" y="979"/>
      <point x="50" y="924" type="curve"/>
      <point x="51" y="923" type="line"/>
      <point x="26" y="896"/>
      <point x="39" y="844"/>
      <point x="79" y="806" type="curve"/>
      <point x="79" y="806" type="line"/>
      <point x="119" y="769"/>
      <point x="172" y="761"/>
      <point x="198" y="788" type="curve"/>
      <point x="199" y="787" type="line"/>
      <point x="218" y="803"/>
      <point x="240" y="812"/>
      <point x="267" y="812" type="curve"/>
      <point x="267" y="812" type="line"/>
      <point x="317" y="812"/>
      <point x="357" y="774"/>
      <point x="357" y="727" type="curve"/>
      <point x="357" y="727" type="line"/>
      <point x="357" y="680"/>
      <point x="317" y="643"/>
      <point x="267" y="643" type="curve"/>
      <point x="267" y="643" type="line"/>
      <point x="234" y="643"/>
      <point x="207" y="599"/>
      <point x="207" y="545" type="curve"/>
      <point x="207" y="545" type="line"/>
      <point x="207" y="492"/>
      <point x="234" y="448"/>
      <point x="267" y="448" type="curve"/>
      <point x="267" y="448" type="line"/>
      <point x="344" y="448"/>
      <point x="407" y="390"/>
      <point x="407" y="318" type="curve"/>
      <point x="407" y="318" type="line"/>
      <point x="407" y="247"/>
      <point x="344" y="188"/>
      <point x="267" y="188" type="curve"/>
      <point x="267" y="188" type="line"/>
      <point x="225" y="188"/>
      <point x="190" y="201"/>
      <point x="160" y="226" type="curve"/>
      <point x="159" y="225" type="line"/>
      <point x="134" y="253"/>
      <point x="81" y="244"/>
      <point x="41" y="207" type="curve"/>
      <point x="41" y="207" type="line"/>
      <point x="0" y="170"/>
      <point x="-12" y="117"/>
      <point x="13" y="90" type="curve"/>
      <point x="12" y="89" type="line"/>
      <point x="82" y="26"/>
      <point x="167" y="-6"/>
      <point x="267" y="-6" type="curve"/>
      <point x="267" y="-6" type="line"/>
      <point x="467" y="-6"/>
      <point x="628" y="139"/>
      <point x="628" y="318" type="curve"/>
      <point x="628" y="318" type="line"/>
      <point x="628" y="421"/>
      <point x="560" y="509"/>
    </contour>
  </outline>
</glyph>
<glyph name="three" format="1">
  <advance width="762"/>
  <unicode hex="0033"/>
  <outline>
    <contour>
      <point x="461" y="549" type="curve"/>
      <point x="528" y="585"/>
      <point x="572" y="651"/>
      <point x="572" y="727" type="curve" smooth="yes"/>
      <point x="572" y="881"/>
      <point x="435" y="1006"/>
      <point x="266" y="1006" type="curve" smooth="yes"/>
      <point x="181" y="1006"/>
      <point x="109" y="979"/>
      <point x="49" y="924" type="curve"/>
      <point x="26" y="898"/>
      <point x="40" y="847"/>
      <point x="81" y="810" type="curve" smooth="yes"/>
      <point x="121" y="773"/>
      <point x="173" y="763"/>
      <point x="197" y="787" type="curve"/>
      <point x="216" y="803"/>
      <point x="239" y="812"/>
      <point x="266" y="812" type="curve" smooth="yes"/>
      <point x="315" y="812"/>
      <point x="355" y="774"/>
      <point x="355" y="727" type="curve" smooth="yes"/>
      <point x="355" y="684"/>
      <point x="321" y="648"/>
      <point x="276" y="643" type="curve" smooth="yes"/>
      <point x="192" y="634" type="line" smooth="yes"/>
      <point x="166" y="631"/>
      <point x="145" y="592"/>
      <point x="145" y="545" type="curve" smooth="yes"/>
      <point x="145" y="498"/>
      <point x="166" y="460"/>
      <point x="192" y="457" type="curve" smooth="yes"/>
      <point x="282" y="447" type="line" smooth="yes"/>
      <point x="351" y="440"/>
      <point x="405" y="385"/>
      <point x="405" y="318" type="curve" smooth="yes"/>
      <point x="405" y="247"/>
      <point x="343" y="188"/>
      <point x="266" y="188" type="curve" smooth="yes"/>
      <point x="224" y="188"/>
      <point x="188" y="201"/>
      <point x="158" y="226" type="curve"/>
      <point x="134" y="251"/>
      <point x="83" y="241"/>
      <point x="42" y="203" type="curve" smooth="yes"/>
      <point x="2" y="166"/>
      <point x="-12" y="115"/>
      <point x="11" y="90" type="curve"/>
      <point x="81" y="26"/>
      <point x="166" y="-6"/>
      <point x="266" y="-6" type="curve" smooth="yes"/>
      <point x="465" y="-6"/>
      <point x="627" y="139"/>
      <point x="627" y="318" type="curve" smooth="yes"/>
      <point x="627" y="421"/>
      <point x="558" y="509"/>
    </contour>
  </outline>
</glyph>
<glyph name="Digit_Four" format="1">
  <advance width="857"/>
  <unicode hex="0034"/>
  <outline>
    <contour>
      <point x="400" y="624" type="line"/>
      <point x="400" y="417" type="line"/>
      <point x="266" y="417" type="line"/>
    </contour>
    <contour>
      <point x="610" y="223" type="line"/>
      <point x="651" y="223" type="line" smooth="yes"/>
      <point x="690" y="223"/>
      <point x="722" y="266"/>
      <point x="722" y="320" type="curve"/>
      <point x="722" y="320" type="line"/>
      <point x="722" y="374"/>
      <point x="690" y="417"/>
      <point x="651" y="417" type="curve" smooth="yes"/>
      <point x="610" y="417" type="line"/>
      <point x="610" y="930" type="line" smooth="yes"/>
      <point x="610" y="972"/>
      <point x="556" y="1006"/>
      <point x="490" y="1006" type="curve"/>
      <point x="490" y="1006" type="line"/>
      <point x="439" y="1006"/>
      <point x="396" y="986"/>
      <point x="378" y="959" type="curve" smooth="yes"/>
      <point x="21" y="409" type="line" smooth="yes"/>
      <point x="8" y="389"/>
      <point x="0" y="363"/>
      <point x="0" y="335" type="curve"/>
      <point x="0" y="335" type="line"/>
      <point x="0" y="273"/>
      <point x="37" y="223"/>
      <point x="82" y="223" type="curve" smooth="yes"/>
      <point x="400" y="223" type="line"/>
      <point x="400" y="60" type="line" smooth="yes"/>
      <point x="400" y="24"/>
      <point x="447" y="-6"/>
      <point x="505" y="-6" type="curve" smooth="yes"/>
      <point x="563" y="-6"/>
      <point x="610" y="24"/>
      <point x="610" y="60" type="curve" smooth="yes"/>
    </contour>
  </outline>
</glyph>
<glyph name="four" format="1">
  <advance width="857"/>
  <unicode hex="0034"/>
  <outline>
    <contour>
      <point x="400" y="627" type="line"/>
      <point x="400" y="417" type="line"/>
      <point x="265" y="417" type="line"/>
    </contour>
    <contour>
      <point x="610" y="223" type="line"/>
      <point x="656" y="223" type="line" smooth="yes"/>
      <point x="693" y="223"/>
      <point x="722" y="266"/>
      <point x="722" y="320" type="curve" smooth="yes"/>
      <point x="722" y="374"/>
      <point x="693" y="417"/>
      <point x="656" y="417" type="curve" smooth="yes"/>
      <point x="610" y="417" type="line"/>
      <point x="610" y="936" type="line" smooth="yes"/>
      <point x="610" y="974"/>
      <point x="556" y="1006"/>
      <point x="490" y="1006" type="curve" smooth="yes"/>
      <point x="438" y="1006"/>
      <point x="394" y="987"/>
      <point x="377" y="960" type="curve" smooth="yes"/>
      <point x="21" y="412" type="line" smooth="yes"/>
      <point x="8" y="392"/>
      <point x="0" y="365"/>
      <point x="0" y="335" type="curve" smooth="yes"/>
      <point x="0" y="273"/>
      <point x="34" y="223"/>
      <point x="76" y="223" type="curve" smooth="yes"/>
      <point x="400" y="223" type="line"/>
      <point x="400" y="55" type="line" smooth="yes"/>
      <point x="400" y="21"/>
      <point x="447" y="-6"/>
      <point x="505" y="-6" type="curve" smooth="yes"/>
      <point x="563" y="-6"/>
      <point x="610" y="21"/>
      <point x="610" y="55" type="curve" smooth="yes"/>
    </contour>
  </outline>
</glyph>
<glyph name="5" format="1">
  <advance width="764"/>
  <unicode hex="0035"/>
  <outline>
    <contour>
      <point x="266" y="806" type="line"/>
      <point x="557" y="806" type="line" smooth="yes"/>
      <point x="596" y="806"/>
      <point x="628" y="849"/>
      <point x="628" y="903" type="curve"/>
      <point x="628" y="903" type="line"/>
      <point x="628" y="957"/>
      <point x="596" y="1000"/>
      <point x="557" y="1000" type="curve" smooth="yes"/>
      <point x="143" y="1000" type="line" smooth="yes"/>
      <point x="109" y="1000"/>
      <point x="80" y="967"/>
      <point x="74" y="923" type="curve" smooth="yes"/>
      <point x="15" y="531" type="line" smooth="yes"/>
      <point x="11" y="504"/>
      <point x="23" y="470"/>
      <point x="49" y="442" type="curve"/>
      <point x="49" y="442" type="line"/>
      <point x="87" y="403"/>
      <point x="139" y="391"/>
      <point x="166" y="417" type="curve"/>
      <point x="167" y="416" type="line"/>
      <point x="196" y="438"/>
      <point x="229" y="448"/>
      <point x="267" y="448" type="curve"/>
      <point x="267" y="448" type="line"/>
      <point x="344" y="448"/>
      <point x="407" y="390"/>
      <point x="407" y="318" type="curve"/>
      <point x="407" y="318" type="line"/>
      <point x="407" y="247"/>
      <point x="344" y="188"/>
      <point x="267" y="188" type="curve"/>
      <point x="267" y="188" type="line"/>
      <point x="225" y="188"/>
      <point x="190" y="201"/>
      <point x="160" y="226" type="curve"/>
      <point x="159" y="225" type="line"/>
      <point x="134" y="253"/>
      <point x="81" y="244"/>
      <point x="41" y="207" type="curve"/>
      <point x="41" y="207" type="line"/>
      <point x="0" y="170"/>
      <point x="-12" y="117"/>
      <point x="13" y="90" type="curve"/>
      <point x="12" y="89" type="line"/>
      <point x="82" y="26"/>
      <point x="167" y="-6"/>
      <point x="267" y="-6" type="curve"/>
      <point x="267" y="-6" type="line"/>
      <point x="467" y="-6"/>
      <point x="628" y="139"/>
      <point x="628" y="318" type="curve"/>
      <point x="628" y="318" type="line"/>
      <point x="628" y="497"/>
      <point x="467" y="643"/>
      <point x="267" y="643" type="curve"/>
      <point x="267" y="643" type="line"/>
      <point x="258" y="643"/>
      <point x="250" y="642"/>
      <point x="241" y="642" type="curve"/>
    </contour>
  </outline>
</glyph>
<glyph name="five" format="1">
  <advance width="762"/>
  <unicode hex="0035"/>
  <outline>
    <contour>
      <point x="265" y="806" type="line"/>
      <point x="561" y="806" type="line" smooth="yes"/>
      <point x="597" y="806"/>
      <point x="627" y="849"/>
      <point x="627" y="903" type="curve" smooth="yes"/>
      <point x="627" y="957"/>
      <point x="597" y="1000"/>
      <point x="561" y="1000" type="curve" smooth="yes"/>
      <point x="137" y="1000" type="line" smooth="yes"/>
      <point x="105" y="1000"/>
      <point x="79" y="967"/>
      <point x="72" y="924" type="curve" smooth="yes"/>
      <point x="15" y="534" type="line" smooth="yes"/>
      <point x="11" y="508"/>
      <point x="24" y="474"/>
      <point x="51" y="446" type="curve" smooth="yes"/>
      <point x="89" y="406"/>
      <point x="140" y="393"/>
      <point x="165" y="416" type="curve"/>
      <point x="195" y="438"/>
      <point x="227" y="448"/>
      <point x="266" y="448" type="curve" smooth="yes"/>
      <point x="343" y="448"/>
      <point x="405" y="390"/>
      <point x="405" y="318" type="curve" smooth="yes"/>
      <point x="405" y="247"/>
      <point x="343" y="188"/>
      <point x="266" y="188" type="curve" smooth="yes"/>
      <point x="224" y="188"/>
      <point x="188" y="201"/>
      <point x="158" y="226" type="curve"/>
      <point x="134" y="251"/>
      <point x="83" y="241"/>
      <point x="42" y="203" type="curve" smooth="yes"/>
      <point x="2" y="166"/>
      <point x="-12" y="115"/>
      <point x="11" y="90" type="curve"/>
      <point x="81" y="26"/>
      <point x="166" y="-6"/>
      <point x="266" y="-6" type="curve" smooth="yes"/>
      <point x="465" y="-6"/>
      <point x="627" y="139"/>
      <point x="627" y="318" type="curve" smooth="yes"/>
      <point x="627" y="497"/>
      <point x="465" y="643"/>
      <point x="266" y="643" type="curve" smooth="yes"/>
      <point x="257" y="643"/>
      <point x="249" y="642"/>
      <point x="241" y="642" type="curve"/>
    </contour>
  </outline>
</glyph>
<glyph name="6" format="1">
  <advance width="785"/>
  <unicode hex="0036"/>
  <outline>
    <contour>
      <point x="219" y="319" type="curve"/>
      <point x="219" y="391"/>
      <point x="266" y="450"/>
      <point x="325" y="450" type="curve"/>
      <point x="325" y="450" type="line"/>
      <point x="384" y="450"/>
      <point x="431" y="391"/>
      <point x="431" y="319" type="curve"/>
      <point x="431" y="319" type="line"/>
      <point x="431" y="247"/>
      <point x="384" y="188"/>
      <point x="325" y="188" type="curve"/>
      <point x="325" y="188" type="line"/>
      <point x="266" y="188"/>
      <point x="219" y="247"/>
    </contour>
    <contour>
      <point x="298" y="988" type="curve" smooth="yes"/>
      <point x="143" y="788"/>
      <point x="0" y="588"/>
      <point x="0" y="319" type="curve" smooth="yes"/>
      <point x="0" y="140"/>
      <point x="145" y="-6"/>
      <point x="325" y="-6" type="curve"/>
      <point x="325" y="-6" type="line"/>
      <point x="504" y="-6"/>
      <point x="650" y="140"/>
      <point x="650" y="319" type="curve"/>
      <point x="650" y="319" type="line"/>
      <point x="650" y="484"/>
      <point x="516" y="618"/>
      <point x="351" y="618" type="curve"/>
      <point x="351" y="618" type="line"/>
      <point x="328" y="618"/>
      <point x="305" y="615"/>
      <point x="284" y="610" type="curve"/>
      <point x="284" y="610" type="line"/>
      <point x="330" y="700"/>
      <point x="392" y="783"/>
      <point x="456" y="865" type="curve" smooth="yes"/>
      <point x="479" y="894"/>
      <point x="461" y="945"/>
      <point x="418" y="979" type="curve"/>
      <point x="418" y="979" type="line"/>
      <point x="374" y="1013"/>
      <point x="320" y="1017"/>
    </contour>
  </outline>
</glyph>
<glyph name="Digit_Six" format="1">
  <advance width="650"/>
  <unicode hex="0036"/>
  <outline>
    <contour>
      <point x="219" y="319" type="curve"/>
      <point x="219" y="391"/>
      <point x="266" y="450"/>
      <point x="325" y="450" type="curve"/>
      <point x="325" y="450" type="line"/>
      <point x="384" y="450"/>
      <point x="431" y="391"/>
      <point x="431" y="319" type="curve"/>
      <point x="431" y="319" type="line"/>
      <point x="431" y="247"/>
      <point x="384" y="188"/>
      <point x="325" y="188" type="curve"/>
      <point x="325" y="188" type="line"/>
      <point x="266" y="188"/>
      <point x="219" y="247"/>
    </contour>
    <contour>
      <point x="298" y="988" type="curve" smooth="yes"/>
      <point x="143" y="788"/>
      <point x="0" y="588"/>
      <point x="0" y="319" type="curve" smooth="yes"/>
      <point x="0" y="140"/>
      <point x="145" y="-6"/>
      <point x="325" y="-6" type="curve"/>
      <point x="325" y="-6" type="line"/>
      <point x="504" y="-6"/>
      <point x="650" y="140"/>
      <point x="650" y="319" type="curve"/>
      <point x="650" y="319" type="line"/>
      <point x="650" y="485"/>
      <point x="515" y="620"/>
      <point x="349" y="620" type="curve"/>
      <point x="349" y="620" type="line"/>
      <point x="327" y="620"/>
      <point x="306" y="617"/>
      <point x="285" y="613" type="curve"/>
      <point x="285" y="613" type="line"/>
      <point x="331" y="702"/>
      <point x="392" y="783"/>
      <point x="456" y="865" type="curve" smooth="yes"/>
      <point x="479" y="894"/>
      <point x="461" y="945"/>
      <point x="418" y="979" type="curve"/>
      <point x="418" y="979" type="line"/>
      <point x="374" y="1013"/>
      <point x="320" y="1017"/>
    </contour>
  </outline>
</glyph>
<glyph name="six" format="1">
  <advance width="785"/>
  <unicode hex="0036"/>
  <outline>
    <contour>
      <point x="213" y="319" type="curve" smooth="yes"/>
      <point x="213" y="391"/>
      <point x="263" y="450"/>
      <point x="325" y="450" type="curve" smooth="yes"/>
      <point x="386" y="450"/>
      <point x="436" y="391"/>
      <point x="436" y="319" type="curve" smooth="yes"/>
      <point x="436" y="247"/>
      <point x="386" y="188"/>
      <point x="325" y="188" type="curve" smooth="yes"/>
      <point x="263" y="188"/>
      <point x="213" y="247"/>
    </contour>
    <contour>
      <point x="298" y="1013" type="curve" smooth="yes"/>
      <point x="137" y="805"/>
      <point x="0" y="596"/>
      <point x="0" y="319" type="curve" smooth="yes"/>
      <point x="0" y="140"/>
      <point x="145" y="-6"/>
      <point x="325" y="-6" type="curve" smooth="yes"/>
      <point x="504" y="-6"/>
      <point x="650" y="140"/>
      <point x="650" y="319" type="curve" smooth="yes"/>
      <point x="650" y="485"/>
      <point x="515" y="620"/>
      <point x="349" y="620" type="curve" smooth="yes"/>
      <point x="324" y="620"/>
      <point x="299" y="616"/>
      <point x="276" y="611" type="curve"/>
      <point x="321" y="710"/>
      <point x="386" y="800"/>
      <point x="456" y="890" type="curve" smooth="yes"/>
      <point x="465" y="902"/>
      <point x="437" y="939"/>
      <point x="393" y="973" type="curve" smooth="yes"/>
      <point x="350" y="1007"/>
      <point x="307" y="1025"/>
    </contour>
  </outline>
</glyph>
<glyph name="7" format="1">
  <advance width="880"/>
  <unicode hex="0037"/>
  <outline>
    <contour>
      <point x="474" y="812" type="line"/>
      <point x="398" y="688" type="line" smooth="yes"/>
      <point x="277" y="490"/>
      <point x="208" y="295"/>
      <point x="208" y="60" type="curve" smooth="yes"/>
      <point x="208" y="24"/>
      <point x="255" y="-6"/>
      <point x="313" y="-6" type="curve" smooth="yes"/>
      <point x="371" y="-6"/>
      <point x="418" y="24"/>
      <point x="418" y="60" type="curve" smooth="yes"/>
      <point x="418" y="254"/>
      <point x="469" y="418"/>
      <point x="570" y="583" type="curve" smooth="yes"/>
      <point x="727" y="838" type="line" smooth="yes"/>
      <point x="746" y="869"/>
      <point x="750" y="910"/>
      <point x="738" y="947" type="curve"/>
      <point x="738" y="947" type="line"/>
      <point x="725" y="984"/>
      <point x="700" y="1006"/>
      <point x="670" y="1006" type="curve" smooth="yes"/>
      <point x="71" y="1006" type="line" smooth="yes"/>
      <point x="32" y="1006"/>
      <point x="0" y="962"/>
      <point x="0" y="909" type="curve"/>
      <point x="0" y="909" type="line"/>
      <point x="0" y="855"/>
      <point x="32" y="812"/>
      <point x="71" y="812" type="curve" smooth="yes"/>
    </contour>
  </outline>
</glyph>
<glyph name="seven" format="1">
  <advance width="835"/>
  <unicode hex="0037"/>
  <outline>
    <contour>
      <point x="447" y="812" type="line"/>
      <point x="348" y="613" type="line" smooth="yes"/>
      <point x="258" y="431"/>
      <point x="199" y="261"/>
      <point x="199" y="55" type="curve" smooth="yes"/>
      <point x="199" y="21"/>
      <point x="246" y="-6"/>
      <point x="304" y="-6" type="curve" smooth="yes"/>
      <point x="362" y="-6"/>
      <point x="409" y="21"/>
      <point x="409" y="55" type="curve" smooth="yes"/>
      <point x="409" y="227"/>
      <point x="454" y="370"/>
      <point x="530" y="522" type="curve" smooth="yes"/>
      <point x="685" y="836" type="line" smooth="yes"/>
      <point x="702" y="869"/>
      <point x="704" y="910"/>
      <point x="692" y="947" type="curve" smooth="yes"/>
      <point x="679" y="984"/>
      <point x="655" y="1006"/>
      <point x="627" y="1006" type="curve" smooth="yes"/>
      <point x="66" y="1006" type="line" smooth="yes"/>
      <point x="29" y="1006"/>
      <point x="0" y="962"/>
      <point x="0" y="909" type="curve" smooth="yes"/>
      <point x="0" y="855"/>
      <point x="29" y="812"/>
      <point x="66" y="812" type="curve" smooth="yes"/>
    </contour>
  </outline>
</glyph>
<glyph name="eight" format="1">
  <advance width="808"/>
  <unicode hex="0038"/>
  <outline>
    <contour>
      <point x="336" y="188" type="curve" smooth="yes"/>
      <point x="269" y="188"/>
      <point x="214" y="247"/>
      <point x="214" y="318" type="curve" smooth="yes"/>
      <point x="214" y="390"/>
      <point x="269" y="448"/>
      <point x="336" y="448" type="curve" smooth="yes"/>
      <point x="404" y="448"/>
      <point x="459" y="390"/>
      <point x="459" y="318" type="curve" smooth="yes"/>
      <point x="459" y="247"/>
      <point x="404" y="188"/>
    </contour>
    <contour>
      <point x="336" y="643" type="curve" smooth="yes"/>
      <point x="296" y="643"/>
      <point x="263" y="680"/>
      <point x="263" y="727" type="curve" smooth="yes"/>
      <point x="263" y="774"/>
      <point x="296" y="812"/>
      <point x="336" y="812" type="curve" smooth="yes"/>
      <point x="377" y="812"/>
      <point x="410" y="774"/>
      <point x="410" y="727" type="curve" smooth="yes"/>
      <point x="410" y="680"/>
      <point x="377" y="643"/>
    </contour>
    <contour>
      <point x="336" y="1006" type="curve" smooth="yes"/>
      <point x="178" y="1006"/>
      <point x="50" y="881"/>
      <point x="50" y="727" type="curve" smooth="yes"/>
      <point x="50" y="655"/>
      <point x="86" y="592"/>
      <point x="140" y="552" type="curve"/>
      <point x="56" y="505"/>
      <point x="0" y="418"/>
      <point x="0" y="318" type="curve" smooth="yes"/>
      <point x="0" y="139"/>
      <point x="151" y="-6"/>
      <point x="336" y="-6" type="curve" smooth="yes"/>
      <point x="522" y="-6"/>
      <point x="672" y="139"/>
      <point x="672" y="318" type="curve" smooth="yes"/>
      <point x="672" y="418"/>
      <point x="616" y="505"/>
      <point x="532" y="552" type="curve"/>
      <point x="587" y="592"/>
      <point x="622" y="655"/>
      <point x="622" y="727" type="curve" smooth="yes"/>
      <point x="622" y="881"/>
      <point x="494" y="1006"/>
    </contour>
  </outline>
</glyph>
<glyph name="9" format="1">
  <advance width="785"/>
  <unicode hex="0039"/>
  <outline>
    <contour>
      <point x="431" y="681" type="curve"/>
      <point x="431" y="681" type="line"/>
      <point x="431" y="609"/>
      <point x="384" y="550"/>
      <point x="325" y="550" type="curve"/>
      <point x="325" y="550" type="line"/>
      <point x="266" y="550"/>
      <point x="219" y="609"/>
      <point x="219" y="681" type="curve"/>
      <point x="219" y="681" type="line"/>
      <point x="219" y="753"/>
      <point x="266" y="812"/>
      <point x="325" y="812" type="curve"/>
      <point x="325" y="812" type="line"/>
      <point x="384" y="812"/>
      <point x="431" y="753"/>
    </contour>
    <contour>
      <point x="352" y="12" type="curve" smooth="yes"/>
      <point x="507" y="212"/>
      <point x="650" y="412"/>
      <point x="650" y="681" type="curve" smooth="yes"/>
      <point x="650" y="860"/>
      <point x="504" y="1006"/>
      <point x="325" y="1006" type="curve"/>
      <point x="325" y="1006" type="line"/>
      <point x="145" y="1006"/>
      <point x="0" y="860"/>
      <point x="0" y="681" type="curve"/>
      <point x="0" y="681" type="line"/>
      <point x="0" y="516"/>
      <point x="134" y="382"/>
      <point x="299" y="382" type="curve"/>
      <point x="299" y="382" type="line"/>
      <point x="322" y="382"/>
      <point x="344" y="385"/>
      <point x="366" y="390" type="curve"/>
      <point x="366" y="390" type="line"/>
      <point x="320" y="300"/>
      <point x="258" y="217"/>
      <point x="194" y="135" type="curve" smooth="yes"/>
      <point x="171" y="106"/>
      <point x="188" y="55"/>
      <point x="232" y="21" type="curve"/>
      <point x="232" y="21" type="line"/>
      <point x="276" y="-13"/>
      <point x="329" y="-17"/>
    </contour>
  </outline>
</glyph>
<glyph name="nine" format="1">
  <advance width="785"/>
  <unicode hex="0039"/>
  <outline>
    <contour>
      <point x="436" y="681" type="curve" smooth="yes"/>
      <point x="436" y="609"/>
      <point x="386" y="550"/>
      <point x="325" y="550" type="curve" smooth="yes"/>
      <point x="263" y="550"/>
      <point x="213" y="609"/>
      <point x="213" y="681" type="curve" smooth="yes"/>
      <point x="213" y="753"/>
      <point x="263" y="812"/>
      <point x="325" y="812" type="curve" smooth="yes"/>
      <point x="386" y="812"/>
      <point x="436" y="753"/>
    </contour>
    <contour>
      <point x="352" y="-13" type="curve" smooth="yes"/>
      <point x="513" y="195"/>
      <point x="650" y="404"/>
      <point x="650" y="681" type="curve" smooth="yes"/>
      <point x="650" y="860"/>
      <point x="504" y="1006"/>
      <point x="325" y="1006" type="curve" smooth="yes"/>
      <point x="145" y="1006"/>
      <point x="0" y="860"/>
      <point x="0" y="681" type="curve" smooth="yes"/>
      <point x="0" y="515"/>
      <point x="135" y="380"/>
      <point x="301" y="380" type="curve" smooth="yes"/>
      <point x="326" y="380"/>
      <point x="350" y="384"/>
      <point x="374" y="389" type="curve"/>
      <point x="328" y="290"/>
      <point x="264" y="200"/>
      <point x="194" y="110" type="curve" smooth="yes"/>
      <point x="185" y="98"/>
      <point x="213" y="61"/>
      <point x="257" y="27" type="curve" smooth="yes"/>
      <point x="300" y="-7"/>
      <point x="343" y="-25"/>
    </contour>
  </outline>
</glyph>
<glyph name="colon" format="1">
  <advance width="366"/>
  <unicode hex="003A"/>
  <outline>
    <contour>
      <point x="231" y="153" type="line" smooth="yes"/>
      <point x="231" y="190"/>
      <point x="179" y="220"/>
      <point x="116" y="220" type="curve" smooth="yes"/>
      <point x="52" y="220"/>
      <point x="0" y="190"/>
      <point x="0" y="153" type="curve" smooth="yes"/>
      <point x="0" y="61" type="line" smooth="yes"/>
      <point x="0" y="24"/>
      <point x="52" y="-6"/>
      <point x="116" y="-6" type="curve" smooth="yes"/>
      <point x="179" y="-6"/>
      <point x="231" y="24"/>
      <point x="231" y="61" type="curve" smooth="yes"/>
    </contour>
    <contour>
      <point x="231" y="553" type="line" smooth="yes"/>
      <point x="231" y="590"/>
      <point x="179" y="620"/>
      <point x="116" y="620" type="curve" smooth="yes"/>
      <point x="52" y="620"/>
      <point x="0" y="590"/>
      <point x="0" y="553" type="curve" smooth="yes"/>
      <point x="0" y="461" type="line" smooth="yes"/>
      <point x="0" y="424"/>
      <point x="52" y="394"/>
      <point x="116" y="394" type="curve" smooth="yes"/>
      <point x="179" y="394"/>
      <point x="231" y="424"/>
      <point x="231" y="461" type="curve" smooth="yes"/>
    </contour>
  </outline>
</glyph>
<glyph name="less" format="1">
  <advance width="743"/>
  <unicode hex="003C"/>
  <outline>
    <contour>
      <point x="523" y="190" type="line"/>
      <point x="527" y="189"/>
      <point x="531" y="190"/>
      <point x="536" y="193" type="curve" smooth="yes"/>
      <point x="557" y="207"/>
      <point x="586" y="257"/>
      <point x="600" y="305" type="curve" smooth="yes"/>
      <point x="610" y="341"/>
      <point x="610" y="366"/>
      <point x="600" y="370" type="curve" smooth="yes"/>
      <point x="269" y="510" type="line"/>
      <point x="600" y="650" type="line" smooth="yes"/>
      <point x="610" y="654"/>
      <point x="610" y="679"/>
      <point x="600" y="715" type="curve" smooth="yes"/>
      <point x="586" y="763"/>
      <point x="557" y="813"/>
      <point x="536" y="827" type="curve" smooth="yes"/>
      <point x="531" y="830"/>
      <point x="527" y="831"/>
      <point x="523" y="830" type="curve"/>
      <point x="29" y="621" type="line" smooth="yes"/>
      <point x="12" y="614"/>
      <point x="0" y="567"/>
      <point x="0" y="510" type="curve" smooth="yes"/>
      <point x="0" y="453"/>
      <point x="12" y="406"/>
      <point x="29" y="399" type="curve" smooth="yes"/>
    </contour>
  </outline>
</glyph>
<glyph name="equal" format="1">
  <advance width="785"/>
  <unicode hex="003D"/>
  <outline>
    <contour>
      <point x="584" y="578" type="line" smooth="yes"/>
      <point x="621" y="578"/>
      <point x="650" y="621"/>
      <point x="650" y="675" type="curve" smooth="yes"/>
      <point x="650" y="729"/>
      <point x="621" y="772"/>
      <point x="584" y="772" type="curve" smooth="yes"/>
      <point x="66" y="772" type="line" smooth="yes"/>
      <point x="29" y="772"/>
      <point x="0" y="729"/>
      <point x="0" y="675" type="curve" smooth="yes"/>
      <point x="0" y="621"/>
      <point x="29" y="578"/>
      <point x="66" y="578" type="curve" smooth="yes"/>
    </contour>
    <contour>
      <point x="584" y="248" type="line" smooth="yes"/>
      <point x="621" y="248"/>
      <point x="650" y="291"/>
      <point x="650" y="345" type="curve" smooth="yes"/>
      <point x="650" y="399"/>
      <point x="621" y="442"/>
      <point x="584" y="442" type="curve" smooth="yes"/>
      <point x="66" y="442" type="line" smooth="yes"/>
      <point x="29" y="442"/>
      <point x="0" y="399"/>
      <point x="0" y="345" type="curve" smooth="yes"/>
      <point x="0" y="291"/>
      <point x="29" y="248"/>
      <point x="66" y="248" type="curve" smooth="yes"/>
    </contour>
  </outline>
</glyph>
<glyph name="greater" format="1">
  <advance width="743"/>
  <unicode hex="003E"/>
  <outline>
    <contour>
      <point x="84" y="190" type="curve"/>
      <point x="579" y="399" type="line" smooth="yes"/>
      <point x="595" y="406"/>
      <point x="608" y="453"/>
      <point x="608" y="510" type="curve" smooth="yes"/>
      <point x="608" y="567"/>
      <point x="595" y="614"/>
      <point x="579" y="621" type="curve" smooth="yes"/>
      <point x="84" y="830" type="line"/>
      <point x="81" y="831"/>
      <point x="77" y="830"/>
      <point x="71" y="827" type="curve"/>
      <point x="50" y="813"/>
      <point x="22" y="763"/>
      <point x="8" y="715" type="curve" smooth="yes"/>
      <point x="-3" y="679"/>
      <point x="-2" y="654"/>
      <point x="8" y="650" type="curve" smooth="yes"/>
      <point x="339" y="510" type="line"/>
      <point x="8" y="370" type="line" smooth="yes"/>
      <point x="-2" y="366"/>
      <point x="-3" y="341"/>
      <point x="8" y="305" type="curve" smooth="yes"/>
      <point x="22" y="257"/>
      <point x="50" y="207"/>
      <point x="71" y="193" type="curve"/>
      <point x="77" y="190"/>
      <point x="81" y="189"/>
    </contour>
  </outline>
</glyph>
<glyph name="question" format="1">
  <advance width="872"/>
  <unicode hex="003F"/>
  <outline>
    <contour>
      <point x="474" y="184" type="line" smooth="yes"/>
      <point x="474" y="200"/>
      <point x="423" y="213"/>
      <point x="359" y="213" type="curve" smooth="yes"/>
      <point x="295" y="213"/>
      <point x="243" y="200"/>
      <point x="243" y="184" type="curve" smooth="yes"/>
      <point x="243" y="23" type="line" smooth="yes"/>
      <point x="243" y="7"/>
      <point x="295" y="-6"/>
      <point x="359" y="-6" type="curve" smooth="yes"/>
      <point x="423" y="-6"/>
      <point x="474" y="7"/>
      <point x="474" y="23" type="curve" smooth="yes"/>
    </contour>
    <contour>
      <point x="0" y="764" type="curve"/>
      <point x="-2" y="754"/>
      <point x="14" y="741"/>
      <point x="44" y="727" type="curve" smooth="yes"/>
      <point x="73" y="713"/>
      <point x="109" y="702"/>
      <point x="142" y="698" type="curve" smooth="yes"/>
      <point x="175" y="693"/>
      <point x="195" y="695"/>
      <point x="198" y="704" type="curve" smooth="yes"/>
      <point x="225" y="778"/>
      <point x="303" y="822"/>
      <point x="385" y="810" type="curve" smooth="yes"/>
      <point x="468" y="798"/>
      <point x="527" y="733"/>
      <point x="527" y="656" type="curve" smooth="yes"/>
      <point x="527" y="606"/>
      <point x="454" y="597"/>
      <point x="430" y="576" type="curve" smooth="yes"/>
      <point x="362" y="515"/>
      <point x="254" y="459"/>
      <point x="254" y="346" type="curve" smooth="yes"/>
      <point x="254" y="332"/>
      <point x="301" y="320"/>
      <point x="359" y="320" type="curve" smooth="yes"/>
      <point x="417" y="320"/>
      <point x="464" y="332"/>
      <point x="464" y="346" type="curve" smooth="yes"/>
      <point x="464" y="396"/>
      <point x="537" y="406"/>
      <point x="561" y="427" type="curve" smooth="yes"/>
      <point x="629" y="487"/>
      <point x="737" y="543"/>
      <point x="737" y="656" type="curve" smooth="yes"/>
      <point x="737" y="830"/>
      <point x="604" y="974"/>
      <point x="418" y="1002" type="curve" smooth="yes"/>
      <point x="232" y="1029"/>
      <point x="57" y="930"/>
    </contour>
  </outline>
</glyph>
<glyph name="A" format="1">
  <advance width="1038"/>
  <unicode hex="0041"/>
  <outline>
    <contour>
      <point x="344" y="417" type="line"/>
      <point x="451" y="707" type="line"/>
      <point x="559" y="417" type="line"/>
    </contour>
    <contour>
      <point x="700" y="35" type="line"/>
      <point x="722" y="2"/>
      <point x="783" y="-15"/>
      <point x="837" y="-1" type="curve" smooth="yes"/>
      <point x="890" y="12"/>
      <point x="917" y="51"/>
      <point x="895" y="84" type="curve"/>
      <point x="573" y="954" type="line"/>
      <point x="552" y="987"/>
      <point x="505" y="1006"/>
      <point x="450" y="1006" type="curve" smooth="yes"/>
      <point x="394" y="1005"/>
      <point x="347" y="985"/>
      <point x="328" y="952" type="curve"/>
      <point x="7" y="83" type="line"/>
      <point x="-14" y="49"/>
      <point x="14" y="11"/>
      <point x="69" y="-2" type="curve" smooth="yes"/>
      <point x="123" y="-14"/>
      <point x="183" y="3"/>
      <point x="204" y="37" type="curve"/>
      <point x="272" y="223" type="line"/>
      <point x="631" y="223" type="line"/>
    </contour>
  </outline>
</glyph>
<glyph name="Latin_Capital_Letter_A" format="1">
  <advance width="903"/>
  <unicode hex="0041"/>
  <outline>
    <contour>
      <point x="345" y="417" type="line"/>
      <point x="451" y="705" type="line"/>
      <point x="558" y="417" type="line"/>
    </contour>
    <contour>
      <point x="695" y="45" type="line" smooth="yes"/>
      <point x="704" y="21"/>
      <point x="730" y="4"/>
      <point x="767" y="-3" type="curve" smooth="yes"/>
      <point x="804" y="-10"/>
      <point x="841" y="-5"/>
      <point x="869" y="12" type="curve" smooth="yes"/>
      <point x="897" y="28"/>
      <point x="908" y="51"/>
      <point x="900" y="75" type="curve" smooth="yes"/>
      <point x="579" y="942" type="line" smooth="yes"/>
      <point x="565" y="980"/>
      <point x="513" y="1006"/>
      <point x="451" y="1006" type="curve" smooth="yes"/>
      <point x="389" y="1006"/>
      <point x="337" y="980"/>
      <point x="323" y="942" type="curve" smooth="yes"/>
      <point x="3" y="75" type="line" smooth="yes"/>
      <point x="-10" y="39"/>
      <point x="25" y="4"/>
      <point x="81" y="-4" type="curve" smooth="yes"/>
      <point x="138" y="-12"/>
      <point x="194" y="10"/>
      <point x="207" y="45" type="curve" smooth="yes"/>
      <point x="273" y="223" type="line"/>
      <point x="629" y="223" type="line"/>
    </contour>
  </outline>
</glyph>
<glyph name="B" format="1">
  <advance width="830"/>
  <unicode hex="0042"/>
  <outline>
    <contour>
      <point x="210" y="433" type="line"/>
      <point x="356" y="433" type="line" smooth="yes"/>
      <point x="422" y="433"/>
      <point x="475" y="379"/>
      <point x="475" y="314" type="curve" smooth="yes"/>
      <point x="475" y="248"/>
      <point x="422" y="194"/>
      <point x="356" y="194" type="curve" smooth="yes"/>
      <point x="210" y="194" type="line"/>
    </contour>
    <contour>
      <point x="210" y="806" type="line"/>
      <point x="328" y="806" type="line" smooth="yes"/>
      <point x="378" y="806"/>
      <point x="418" y="766"/>
      <point x="418" y="716" type="curve" smooth="yes"/>
      <point x="418" y="667"/>
      <point x="378" y="627"/>
      <point x="328" y="627" type="curve" smooth="yes"/>
      <point x="210" y="627" type="line"/>
    </contour>
    <contour>
      <point x="356" y="0" type="line" smooth="yes"/>
      <point x="543" y="0"/>
      <point x="695" y="140"/>
      <point x="695" y="314" type="curve" smooth="yes"/>
      <point x="695" y="416"/>
      <point x="627" y="503"/>
      <point x="531" y="540" type="curve"/>
      <point x="594" y="577"/>
      <point x="635" y="642"/>
      <point x="635" y="716" type="curve" smooth="yes"/>
      <point x="635" y="873"/>
      <point x="498" y="1000"/>
      <point x="328" y="1000" type="curve" smooth="yes"/>
      <point x="121" y="1000" type="line" smooth="yes"/>
      <point x="54" y="1000"/>
      <point x="0" y="969"/>
      <point x="0" y="930" type="curve" smooth="yes"/>
      <point x="0" y="70" type="line" smooth="yes"/>
      <point x="0" y="31"/>
      <point x="54" y="0"/>
      <point x="121" y="0" type="curve" smooth="yes"/>
    </contour>
  </outline>
</glyph>
<glyph name="C" format="1">
  <advance width="904"/>
  <unicode hex="0043"/>
  <outline>
    <contour>
      <point x="455" y="0" type="line" smooth="yes"/>
      <point x="573" y="0"/>
      <point x="679" y="53"/>
      <point x="755" y="139" type="curve" smooth="yes"/>
      <point x="771" y="157"/>
      <point x="772" y="185"/>
      <point x="757" y="216" type="curve" smooth="yes"/>
      <point x="743" y="247"/>
      <point x="717" y="272"/>
      <point x="685" y="284" type="curve" smooth="yes"/>
      <point x="654" y="297"/>
      <point x="626" y="294"/>
      <point x="608" y="277" type="curve"/>
      <point x="568" y="227"/>
      <point x="515" y="194"/>
      <point x="455" y="194" type="curve" smooth="yes"/>
      <point x="426" y="194" type="line" smooth="yes"/>
      <point x="306" y="194"/>
      <point x="227" y="318"/>
      <point x="227" y="472" type="curve" smooth="yes"/>
      <point x="227" y="528" type="line" smooth="yes"/>
      <point x="227" y="672"/>
      <point x="316" y="806"/>
      <point x="426" y="806" type="curve" smooth="yes"/>
      <point x="455" y="806" type="line" smooth="yes"/>
      <point x="520" y="806"/>
      <point x="574" y="775"/>
      <point x="611" y="724" type="curve"/>
      <point x="637" y="698"/>
      <point x="690" y="707"/>
      <point x="730" y="744" type="curve" smooth="yes"/>
      <point x="769" y="782"/>
      <point x="781" y="835"/>
      <point x="756" y="862" type="curve" smooth="yes"/>
      <point x="679" y="947"/>
      <point x="573" y="1000"/>
      <point x="455" y="1000" type="curve" smooth="yes"/>
      <point x="425" y="1000" type="line" smooth="yes"/>
      <point x="190" y="1000"/>
      <point x="0" y="788"/>
      <point x="0" y="528" type="curve" smooth="yes"/>
      <point x="0" y="472" type="line" smooth="yes"/>
      <point x="0" y="212"/>
      <point x="190" y="0"/>
      <point x="425" y="0" type="curve" smooth="yes"/>
    </contour>
  </outline>
</glyph>
<glyph name="D" format="1">
  <advance width="939"/>
  <unicode hex="0044"/>
  <outline>
    <contour>
      <point x="379" y="0" type="line" smooth="yes"/>
      <point x="613" y="0"/>
      <point x="803" y="212"/>
      <point x="803" y="472" type="curve" smooth="yes"/>
      <point x="803" y="528" type="line" smooth="yes"/>
      <point x="803" y="788"/>
      <point x="613" y="1000"/>
      <point x="379" y="1000" type="curve" smooth="yes"/>
      <point x="121" y="1000" type="line" smooth="yes"/>
      <point x="54" y="1000"/>
      <point x="0" y="966"/>
      <point x="0" y="925" type="curve" smooth="yes"/>
      <point x="0" y="75" type="line" smooth="yes"/>
      <point x="0" y="34"/>
      <point x="54" y="0"/>
      <point x="121" y="0" type="curve" smooth="yes"/>
    </contour>
    <contour>
      <point x="210" y="806" type="line"/>
      <point x="395" y="806" type="line" smooth="yes"/>
      <point x="515" y="806"/>
      <point x="593" y="682"/>
      <point x="593" y="528" type="curve" smooth="yes"/>
      <point x="593" y="472" type="line" smooth="yes"/>
      <point x="593" y="328"/>
      <point x="505" y="194"/>
      <point x="395" y="194" type="curve" smooth="yes"/>
      <point x="210" y="194" type="line"/>
    </contour>
  </outline>
</glyph>
<glyph name="E" format="1">
  <advance width="763"/>
  <unicode hex="0045"/>
  <outline>
    <contour>
      <point x="561" y="0" type="line" smooth="yes"/>
      <point x="598" y="0"/>
      <point x="627" y="43"/>
      <point x="627" y="97" type="curve" smooth="yes"/>
      <point x="627" y="151"/>
      <point x="598" y="194"/>
      <point x="561" y="194" type="curve" smooth="yes"/>
      <point x="210" y="194" type="line"/>
      <point x="210" y="413" type="line"/>
      <point x="417" y="413" type="line" smooth="yes"/>
      <point x="453" y="413"/>
      <point x="483" y="456"/>
      <point x="483" y="510" type="curve" smooth="yes"/>
      <point x="483" y="564"/>
      <point x="453" y="607"/>
      <point x="417" y="607" type="curve" smooth="yes"/>
      <point x="210" y="607" type="line"/>
      <point x="210" y="806" type="line"/>
      <point x="561" y="806" type="line" smooth="yes"/>
      <point x="598" y="806"/>
      <point x="627" y="849"/>
      <point x="627" y="903" type="curve" smooth="yes"/>
      <point x="627" y="957"/>
      <point x="598" y="1000"/>
      <point x="561" y="1000" type="curve" smooth="yes"/>
      <point x="121" y="1000" type="line" smooth="yes"/>
      <point x="54" y="1000"/>
      <point x="0" y="969"/>
      <point x="0" y="930" type="curve" smooth="yes"/>
      <point x="0" y="70" type="line" smooth="yes"/>
      <point x="0" y="31"/>
      <point x="54" y="0"/>
      <point x="121" y="0" type="curve" smooth="yes"/>
    </contour>
  </outline>
</glyph>
<glyph name="Latin_Capital_Letter_E" format="1">
  <advance width="785"/>
  <unicode hex="0045"/>
  <outline>
    <contour>
      <point x="579" y="0" type="line" smooth="yes"/>
      <point x="618" y="0"/>
      <point x="650" y="43"/>
      <point x="650" y="97" type="curve"/>
      <point x="650" y="97" type="line"/>
      <point x="650" y="151"/>
      <point x="618" y="194"/>
      <point x="579" y="194" type="curve" smooth="yes"/>
      <point x="210" y="194" type="line"/>
      <point x="210" y="413" type="line"/>
      <point x="422" y="413" type="line" smooth="yes"/>
      <point x="462" y="413"/>
      <point x="493" y="456"/>
      <point x="493" y="510" type="curve"/>
      <point x="493" y="510" type="line"/>
      <point x="493" y="564"/>
      <point x="462" y="607"/>
      <point x="422" y="607" type="curve" smooth="yes"/>
      <point x="210" y="607" type="line"/>
      <point x="210" y="806" type="line"/>
      <point x="579" y="806" type="line" smooth="yes"/>
      <point x="618" y="806"/>
      <point x="650" y="849"/>
      <point x="650" y="903" type="curve"/>
      <point x="650" y="903" type="line"/>
      <point x="650" y="957"/>
      <point x="618" y="1000"/>
      <point x="579" y="1000" type="curve" smooth="yes"/>
      <point x="121" y="1000" type="line" smooth="yes"/>
      <point x="54" y="1000"/>
      <point x="0" y="966"/>
      <point x="0" y="925" type="curve" smooth="yes"/>
      <point x="0" y="75" type="line" smooth="yes"/>
      <point x="0" y="34"/>
      <point x="54" y="0"/>
      <point x="121" y="0" type="curve" smooth="yes"/>
    </contour>
  </outline>
</glyph>
<glyph name="F" format="1">
  <advance width="763"/>
  <unicode hex="0046"/>
  <outline>
    <contour>
      <point x="210" y="55" type="curve" smooth="yes"/>
      <point x="210" y="413" type="line"/>
      <point x="417" y="413" type="line" smooth="yes"/>
      <point x="453" y="413"/>
      <point x="483" y="456"/>
      <point x="483" y="510" type="curve" smooth="yes"/>
      <point x="483" y="564"/>
      <point x="453" y="607"/>
      <point x="417" y="607" type="curve" smooth="yes"/>
      <point x="210" y="607" type="line"/>
      <point x="210" y="806" type="line"/>
      <point x="561" y="806" type="line" smooth="yes"/>
      <point x="598" y="806"/>
      <point x="627" y="849"/>
      <point x="627" y="903" type="curve" smooth="yes"/>
      <point x="627" y="957"/>
      <point x="598" y="1000"/>
      <point x="561" y="1000" type="curve" smooth="yes"/>
      <point x="121" y="1000" type="line" smooth="yes"/>
      <point x="54" y="1000"/>
      <point x="0" y="969"/>
      <point x="0" y="930" type="curve" smooth="yes"/>
      <point x="0" y="55" type="line" smooth="yes"/>
      <point x="0" y="21"/>
      <point x="47" y="-6"/>
      <point x="105" y="-6" type="curve" smooth="yes"/>
      <point x="163" y="-6"/>
      <point x="210" y="21"/>
    </contour>
  </outline>
</glyph>
<glyph name="G" format="1">
  <advance width="991"/>
  <unicode hex="0047"/>
  <outline>
    <contour>
      <point x="480" y="567" type="line" smooth="yes"/>
      <point x="464" y="567"/>
      <point x="452" y="524"/>
      <point x="452" y="470" type="curve" smooth="yes"/>
      <point x="452" y="416"/>
      <point x="464" y="373"/>
      <point x="480" y="373" type="curve" smooth="yes"/>
      <point x="632" y="373" type="line"/>
      <point x="604" y="273"/>
      <point x="536" y="194"/>
      <point x="455" y="194" type="curve" smooth="yes"/>
      <point x="425" y="194" type="line" smooth="yes"/>
      <point x="299" y="194"/>
      <point x="217" y="318"/>
      <point x="217" y="472" type="curve" smooth="yes"/>
      <point x="217" y="528" type="line" smooth="yes"/>
      <point x="217" y="672"/>
      <point x="310" y="806"/>
      <point x="425" y="806" type="curve" smooth="yes"/>
      <point x="455" y="806" type="line" smooth="yes"/>
      <point x="520" y="806"/>
      <point x="574" y="775"/>
      <point x="611" y="724" type="curve"/>
      <point x="622" y="714"/>
      <point x="662" y="736"/>
      <point x="702" y="774" type="curve" smooth="yes"/>
      <point x="742" y="811"/>
      <point x="766" y="851"/>
      <point x="756" y="862" type="curve" smooth="yes"/>
      <point x="679" y="947"/>
      <point x="573" y="1000"/>
      <point x="455" y="1000" type="curve" smooth="yes"/>
      <point x="425" y="1000" type="line" smooth="yes"/>
      <point x="190" y="1000"/>
      <point x="0" y="788"/>
      <point x="0" y="528" type="curve" smooth="yes"/>
      <point x="0" y="472" type="line" smooth="yes"/>
      <point x="0" y="212"/>
      <point x="190" y="0"/>
      <point x="425" y="0" type="curve" smooth="yes"/>
      <point x="455" y="0" type="line" smooth="yes"/>
      <point x="676" y="0"/>
      <point x="855" y="210"/>
      <point x="856" y="470" type="curve" smooth="yes"/>
      <point x="857" y="524"/>
      <point x="844" y="567"/>
      <point x="829" y="567" type="curve" smooth="yes"/>
    </contour>
  </outline>
</glyph>
<glyph name="Latin_Capital_Letter_G" format="1">
  <advance width="1018"/>
  <unicode hex="0047"/>
  <outline>
    <contour>
      <point x="532" y="567" type="line" smooth="yes"/>
      <point x="493" y="567"/>
      <point x="461" y="524"/>
      <point x="461" y="470" type="curve" smooth="yes"/>
      <point x="461" y="416"/>
      <point x="493" y="373"/>
      <point x="532" y="373" type="curve" smooth="yes"/>
      <point x="655" y="373" type="line"/>
      <point x="624" y="272"/>
      <point x="546" y="194"/>
      <point x="455" y="194" type="curve" smooth="yes"/>
      <point x="426" y="194" type="line" smooth="yes"/>
      <point x="306" y="194"/>
      <point x="227" y="318"/>
      <point x="227" y="472" type="curve" smooth="yes"/>
      <point x="227" y="528" type="line" smooth="yes"/>
      <point x="227" y="672"/>
      <point x="316" y="806"/>
      <point x="426" y="806" type="curve" smooth="yes"/>
      <point x="455" y="806" type="line" smooth="yes"/>
      <point x="520" y="806"/>
      <point x="574" y="775"/>
      <point x="611" y="724" type="curve"/>
      <point x="637" y="698"/>
      <point x="690" y="707"/>
      <point x="730" y="744" type="curve" smooth="yes"/>
      <point x="769" y="782"/>
      <point x="781" y="835"/>
      <point x="756" y="862" type="curve" smooth="yes"/>
      <point x="679" y="947"/>
      <point x="573" y="1000"/>
      <point x="455" y="1000" type="curve" smooth="yes"/>
      <point x="425" y="1000" type="line" smooth="yes"/>
      <point x="190" y="1000"/>
      <point x="0" y="788"/>
      <point x="0" y="528" type="curve" smooth="yes"/>
      <point x="0" y="472" type="line" smooth="yes"/>
      <point x="0" y="212"/>
      <point x="190" y="0"/>
      <point x="425" y="0" type="curve" smooth="yes"/>
      <point x="455" y="0" type="line" smooth="yes"/>
      <point x="690" y="0"/>
      <point x="880" y="210"/>
      <point x="883" y="470" type="curve" smooth="yes"/>
      <point x="885" y="524"/>
      <point x="853" y="567"/>
      <point x="814" y="567" type="curve" smooth="yes"/>
    </contour>
  </outline>
</glyph>
<glyph name="H" format="1">
  <advance width="882"/>
  <unicode hex="0048"/>
  <outline>
    <contour>
      <point x="210" y="413" type="line"/>
      <point x="537" y="413" type="line"/>
      <point x="537" y="55" type="line" smooth="yes"/>
      <point x="537" y="21"/>
      <point x="584" y="-6"/>
      <point x="642" y="-6" type="curve" smooth="yes"/>
      <point x="700" y="-6"/>
      <point x="747" y="21"/>
      <point x="747" y="55" type="curve" smooth="yes"/>
      <point x="747" y="945" type="line" smooth="yes"/>
      <point x="747" y="979"/>
      <point x="700" y="1006"/>
      <point x="642" y="1006" type="curve" smooth="yes"/>
      <point x="584" y="1006"/>
      <point x="537" y="979"/>
      <point x="537" y="945" type="curve" smooth="yes"/>
      <point x="537" y="607" type="line"/>
      <point x="210" y="607" type="line"/>
      <point x="210" y="945" type="line" smooth="yes"/>
      <point x="210" y="979"/>
      <point x="163" y="1006"/>
      <point x="105" y="1006" type="curve" smooth="yes"/>
      <point x="47" y="1006"/>
      <point x="0" y="979"/>
      <point x="0" y="945" type="curve" smooth="yes"/>
      <point x="0" y="55" type="line" smooth="yes"/>
      <point x="0" y="21"/>
      <point x="47" y="-6"/>
      <point x="105" y="-6" type="curve" smooth="yes"/>
      <point x="163" y="-6"/>
      <point x="210" y="21"/>
      <point x="210" y="55" type="curve" smooth="yes"/>
    </contour>
  </outline>
</glyph>
<glyph name="Latin_Capital_Letter_H" format="1">
  <advance width="812"/>
  <unicode hex="0048"/>
  <outline>
    <contour>
      <point x="210" y="413" type="line"/>
      <point x="602" y="413" type="line"/>
      <point x="602" y="60" type="line" smooth="yes"/>
      <point x="602" y="24"/>
      <point x="649" y="-6"/>
      <point x="707" y="-6" type="curve" smooth="yes"/>
      <point x="765" y="-6"/>
      <point x="812" y="24"/>
      <point x="812" y="60" type="curve" smooth="yes"/>
      <point x="812" y="940" type="line" smooth="yes"/>
      <point x="812" y="976"/>
      <point x="765" y="1006"/>
      <point x="707" y="1006" type="curve" smooth="yes"/>
      <point x="649" y="1006"/>
      <point x="602" y="976"/>
      <point x="602" y="940" type="curve" smooth="yes"/>
      <point x="602" y="607" type="line"/>
      <point x="210" y="607" type="line"/>
      <point x="210" y="940" type="line" smooth="yes"/>
      <point x="210" y="976"/>
      <point x="163" y="1006"/>
      <point x="105" y="1006" type="curve" smooth="yes"/>
      <point x="47" y="1006"/>
      <point x="0" y="976"/>
      <point x="0" y="940" type="curve" smooth="yes"/>
      <point x="0" y="60" type="line" smooth="yes"/>
      <point x="0" y="24"/>
      <point x="47" y="-6"/>
      <point x="105" y="-6" type="curve" smooth="yes"/>
      <point x="163" y="-6"/>
      <point x="210" y="24"/>
      <point x="210" y="60" type="curve" smooth="yes"/>
    </contour>
  </outline>
</glyph>
<glyph name="I" format="1">
  <advance width="345"/>
  <unicode hex="0049"/>
  <outline>
    <contour>
      <point x="210" y="945" type="line" smooth="yes"/>
      <point x="210" y="979"/>
      <point x="163" y="1006"/>
      <point x="105" y="1006" type="curve" smooth="yes"/>
      <point x="47" y="1006"/>
      <point x="0" y="979"/>
      <point x="0" y="945" type="curve" smooth="yes"/>
      <point x="0" y="55" type="line" smooth="yes"/>
      <point x="0" y="21"/>
      <point x="47" y="-6"/>
      <point x="105" y="-6" type="curve" smooth="yes"/>
      <point x="163" y="-6"/>
      <point x="210" y="21"/>
      <point x="210" y="55" type="curve" smooth="yes"/>
    </contour>
  </outline>
</glyph>
<glyph name="J" format="1">
  <advance width="652"/>
  <unicode hex="004A"/>
  <outline>
    <contour>
      <point x="307" y="241" type="line" smooth="yes"/>
      <point x="307" y="219"/>
      <point x="288" y="201"/>
      <point x="257" y="192" type="curve" smooth="yes"/>
      <point x="226" y="184"/>
      <point x="192" y="188"/>
      <point x="169" y="204" type="curve"/>
      <point x="136" y="239"/>
      <point x="77" y="236"/>
      <point x="36" y="198" type="curve" smooth="yes"/>
      <point x="-5" y="160"/>
      <point x="-12" y="101"/>
      <point x="20" y="66" type="curve"/>
      <point x="105" y="-6"/>
      <point x="226" y="-26"/>
      <point x="337" y="13" type="curve" smooth="yes"/>
      <point x="448" y="52"/>
      <point x="517" y="139"/>
      <point x="517" y="241" type="curve" smooth="yes"/>
      <point x="517" y="945" type="line" smooth="yes"/>
      <point x="517" y="979"/>
      <point x="470" y="1006"/>
      <point x="412" y="1006" type="curve" smooth="yes"/>
      <point x="354" y="1006"/>
      <point x="307" y="979"/>
      <point x="307" y="945" type="curve" smooth="yes"/>
    </contour>
  </outline>
</glyph>
<glyph name="Latin_Capital_Letter_J" format="1">
  <advance width="661"/>
  <unicode hex="004A"/>
  <outline>
    <contour>
      <point x="316" y="250" type="line" smooth="yes"/>
      <point x="316" y="225"/>
      <point x="295" y="203"/>
      <point x="263" y="193" type="curve" smooth="yes"/>
      <point x="230" y="183"/>
      <point x="194" y="188"/>
      <point x="169" y="207" type="curve"/>
      <point x="169" y="207" type="line"/>
      <point x="137" y="242"/>
      <point x="77" y="240"/>
      <point x="36" y="202" type="curve"/>
      <point x="36" y="202" type="line"/>
      <point x="-5" y="164"/>
      <point x="-12" y="105"/>
      <point x="21" y="69" type="curve"/>
      <point x="21" y="69" type="line"/>
      <point x="107" y="-6"/>
      <point x="230" y="-27"/>
      <point x="343" y="14" type="curve" smooth="yes"/>
      <point x="456" y="54"/>
      <point x="526" y="144"/>
      <point x="526" y="250" type="curve" smooth="yes"/>
      <point x="526" y="940" type="line" smooth="yes"/>
      <point x="526" y="976"/>
      <point x="479" y="1006"/>
      <point x="421" y="1006" type="curve" smooth="yes"/>
      <point x="363" y="1006"/>
      <point x="316" y="976"/>
      <point x="316" y="940" type="curve" smooth="yes"/>
    </contour>
  </outline>
</glyph>
<glyph name="K" format="1">
  <advance width="800"/>
  <unicode hex="004B"/>
  <outline>
    <contour>
      <point x="210" y="358" type="line"/>
      <point x="229" y="382" type="line"/>
      <point x="461" y="10" type="line"/>
      <point x="462" y="-5"/>
      <point x="508" y="-8"/>
      <point x="564" y="3" type="curve" smooth="yes"/>
      <point x="620" y="13"/>
      <point x="665" y="34"/>
      <point x="664" y="48" type="curve"/>
      <point x="348" y="538" type="line"/>
      <point x="664" y="948" type="line"/>
      <point x="665" y="963"/>
      <point x="620" y="985"/>
      <point x="565" y="997" type="curve" smooth="yes"/>
      <point x="509" y="1009"/>
      <point x="463" y="1006"/>
      <point x="462" y="992" type="curve"/>
      <point x="210" y="648" type="line"/>
      <point x="210" y="980" type="line" smooth="yes"/>
      <point x="210" y="994"/>
      <point x="163" y="1006"/>
      <point x="105" y="1006" type="curve" smooth="yes"/>
      <point x="47" y="1006"/>
      <point x="0" y="994"/>
      <point x="0" y="980" type="curve" smooth="yes"/>
      <point x="0" y="20" type="line" smooth="yes"/>
      <point x="0" y="6"/>
      <point x="47" y="-6"/>
      <point x="105" y="-6" type="curve" smooth="yes"/>
      <point x="163" y="-6"/>
      <point x="210" y="6"/>
      <point x="210" y="20" type="curve" smooth="yes"/>
    </contour>
  </outline>
</glyph>
<glyph name="Latin_Capital_Letter_K" format="1">
  <advance width="668"/>
  <unicode hex="004B"/>
  <outline>
    <contour>
      <point x="210" y="257" type="line"/>
      <point x="272" y="348" type="line"/>
      <point x="465" y="36" type="line" smooth="yes"/>
      <point x="486" y="2"/>
      <point x="547" y="-14"/>
      <point x="601" y="-1" type="curve" smooth="yes"/>
      <point x="655" y="12"/>
      <point x="682" y="50"/>
      <point x="661" y="83" type="curve" smooth="yes"/>
      <point x="390" y="521" type="line"/>
      <point x="659" y="914" type="line" smooth="yes"/>
      <point x="682" y="948"/>
      <point x="657" y="986"/>
      <point x="604" y="1001" type="curve" smooth="yes"/>
      <point x="551" y="1015"/>
      <point x="489" y="999"/>
      <point x="466" y="966" type="curve" smooth="yes"/>
      <point x="210" y="591" type="line"/>
      <point x="210" y="940" type="line" smooth="yes"/>
      <point x="210" y="976"/>
      <point x="163" y="1006"/>
      <point x="105" y="1006" type="curve" smooth="yes"/>
      <point x="47" y="1006"/>
      <point x="0" y="976"/>
      <point x="0" y="940" type="curve" smooth="yes"/>
      <point x="0" y="60" type="line" smooth="yes"/>
      <point x="0" y="24"/>
      <point x="47" y="-6"/>
      <point x="105" y="-6" type="curve" smooth="yes"/>
      <point x="163" y="-6"/>
      <point x="210" y="24"/>
      <point x="210" y="60" type="curve" smooth="yes"/>
    </contour>
  </outline>
</glyph>
<glyph name="L" format="1">
  <advance width="767"/>
  <unicode hex="004C"/>
  <outline>
    <contour>
      <point x="566" y="0" type="line" smooth="yes"/>
      <point x="602" y="0"/>
      <point x="632" y="43"/>
      <point x="632" y="97" type="curve" smooth="yes"/>
      <point x="632" y="151"/>
      <point x="602" y="194"/>
      <point x="566" y="194" type="curve" smooth="yes"/>
      <point x="210" y="194" type="line"/>
      <point x="210" y="945" type="line" smooth="yes"/>
      <point x="210" y="979"/>
      <point x="163" y="1006"/>
      <point x="105" y="1006" type="curve" smooth="yes"/>
      <point x="47" y="1006"/>
      <point x="0" y="979"/>
      <point x="0" y="945" type="curve" smooth="yes"/>
      <point x="0" y="70" type="line" smooth="yes"/>
      <point x="0" y="31"/>
      <point x="54" y="0"/>
      <point x="121" y="0" type="curve" smooth="yes"/>
    </contour>
  </outline>
</glyph>
<glyph name="Latin_Capital_Letter_L" format="1">
  <advance width="812"/>
  <unicode hex="004C"/>
  <outline>
    <contour>
      <point x="606" y="0" type="line" smooth="yes"/>
      <point x="645" y="0"/>
      <point x="677" y="43"/>
      <point x="677" y="97" type="curve"/>
      <point x="677" y="97" type="line"/>
      <point x="677" y="151"/>
      <point x="645" y="194"/>
      <point x="606" y="194" type="curve" smooth="yes"/>
      <point x="210" y="194" type="line"/>
      <point x="210" y="940" type="line" smooth="yes"/>
      <point x="210" y="976"/>
      <point x="163" y="1006"/>
      <point x="105" y="1006" type="curve" smooth="yes"/>
      <point x="47" y="1006"/>
      <point x="0" y="976"/>
      <point x="0" y="940" type="curve" smooth="yes"/>
      <point x="0" y="75" type="line" smooth="yes"/>
      <point x="0" y="34"/>
      <point x="54" y="0"/>
      <point x="121" y="0" type="curve" smooth="yes"/>
    </contour>
  </outline>
</glyph>
<glyph name="Latin_Capital_Letter_M" format="1">
  <advance width="1128"/>
  <unicode hex="004D"/>
  <outline>
    <contour>
      <point x="445" y="57" type="line" smooth="yes"/>
      <point x="455" y="21"/>
      <point x="503" y="-5"/>
      <point x="561" y="-6" type="curve" smooth="yes"/>
      <point x="620" y="-7"/>
      <point x="669" y="18"/>
      <point x="682" y="53" type="curve"/>
      <point x="823" y="572" type="line"/>
      <point x="919" y="52" type="line" smooth="yes"/>
      <point x="924" y="28"/>
      <point x="947" y="9"/>
      <point x="982" y="-1" type="curve" smooth="yes"/>
      <point x="1018" y="-10"/>
      <point x="1055" y="-7"/>
      <point x="1086" y="7" type="curve" smooth="yes"/>
      <point x="1117" y="22"/>
      <point x="1132" y="44"/>
      <point x="1127" y="68" type="curve" smooth="yes"/>
      <point x="958" y="939" type="line" smooth="yes"/>
      <point x="950" y="976"/>
      <point x="903" y="1004"/>
      <point x="844" y="1006" type="curve" smooth="yes"/>
      <point x="784" y="1008"/>
      <point x="733" y="983"/>
      <point x="720" y="947" type="curve"/>
      <point x="560" y="347" type="line"/>
      <point x="410" y="943" type="line" smooth="yes"/>
      <point x="399" y="981"/>
      <point x="348" y="1007"/>
      <point x="287" y="1006" type="curve" smooth="yes"/>
      <point x="227" y="1005"/>
      <point x="178" y="977"/>
      <point x="171" y="939" type="curve" smooth="yes"/>
      <point x="1" y="68" type="line" smooth="yes"/>
      <point x="-4" y="44"/>
      <point x="11" y="22"/>
      <point x="42" y="7" type="curve" smooth="yes"/>
      <point x="73" y="-7"/>
      <point x="111" y="-10"/>
      <point x="146" y="-1" type="curve" smooth="yes"/>
      <point x="182" y="9"/>
      <point x="205" y="28"/>
      <point x="209" y="52" type="curve" smooth="yes"/>
      <point x="307" y="581" type="line"/>
    </contour>
  </outline>
</glyph>
<glyph name="M" format="1">
  <advance width="1074"/>
  <unicode hex="004D"/>
  <outline>
    <contour>
      <point x="350" y="445" type="line" smooth="yes"/>
      <point x="360" y="430"/>
      <point x="410" y="420"/>
      <point x="469" y="420" type="curve" smooth="yes"/>
      <point x="529" y="420"/>
      <point x="579" y="430"/>
      <point x="588" y="445" type="curve" smooth="yes"/>
      <point x="729" y="671" type="line"/>
      <point x="729" y="20" type="line" smooth="yes"/>
      <point x="729" y="6"/>
      <point x="776" y="-6"/>
      <point x="834" y="-6" type="curve" smooth="yes"/>
      <point x="892" y="-6"/>
      <point x="939" y="6"/>
      <point x="939" y="20" type="curve" smooth="yes"/>
      <point x="939" y="976" type="line" smooth="yes"/>
      <point x="939" y="991"/>
      <point x="891" y="1004"/>
      <point x="828" y="1006" type="curve" smooth="yes"/>
      <point x="765" y="1007"/>
      <point x="709" y="996"/>
      <point x="699" y="981" type="curve" smooth="yes"/>
      <point x="469" y="605" type="line"/>
      <point x="240" y="981" type="line" smooth="yes"/>
      <point x="230" y="996"/>
      <point x="174" y="1007"/>
      <point x="111" y="1006" type="curve" smooth="yes"/>
      <point x="48" y="1004"/>
      <point x="0" y="991"/>
      <point x="0" y="976" type="curve" smooth="yes"/>
      <point x="0" y="20" type="line" smooth="yes"/>
      <point x="0" y="6"/>
      <point x="47" y="-6"/>
      <point x="105" y="-6" type="curve" smooth="yes"/>
      <point x="163" y="-6"/>
      <point x="210" y="6"/>
      <point x="210" y="20" type="curve" smooth="yes"/>
      <point x="210" y="671" type="line"/>
    </contour>
  </outline>
</glyph>
<glyph name="N" format="1">
  <advance width="903"/>
  <unicode hex="004E"/>
  <outline>
    <contour>
      <point x="210" y="594" type="line"/>
      <point x="527" y="20" type="line" smooth="yes"/>
      <point x="535" y="4"/>
      <point x="591" y="-7"/>
      <point x="655" y="-6" type="curve" smooth="yes"/>
      <point x="718" y="-5"/>
      <point x="767" y="8"/>
      <point x="767" y="24" type="curve" smooth="yes"/>
      <point x="767" y="980" type="line" smooth="yes"/>
      <point x="767" y="994"/>
      <point x="720" y="1006"/>
      <point x="662" y="1006" type="curve" smooth="yes"/>
      <point x="604" y="1006"/>
      <point x="557" y="994"/>
      <point x="557" y="980" type="curve" smooth="yes"/>
      <point x="557" y="406" type="line"/>
      <point x="240" y="980" type="line" smooth="yes"/>
      <point x="232" y="996"/>
      <point x="176" y="1007"/>
      <point x="112" y="1006" type="curve" smooth="yes"/>
      <point x="49" y="1005"/>
      <point x="0" y="992"/>
      <point x="0" y="976" type="curve" smooth="yes"/>
      <point x="0" y="20" type="line" smooth="yes"/>
      <point x="0" y="6"/>
      <point x="47" y="-6"/>
      <point x="105" y="-6" type="curve" smooth="yes"/>
      <point x="163" y="-6"/>
      <point x="210" y="6"/>
      <point x="210" y="20" type="curve" smooth="yes"/>
    </contour>
  </outline>
</glyph>
<glyph name="P" format="1">
  <advance width="857"/>
  <unicode hex="0050"/>
  <outline>
    <contour>
      <point x="210" y="60" type="curve" smooth="yes"/>
      <point x="210" y="353" type="line"/>
      <point x="373" y="353" type="line" smooth="yes"/>
      <point x="566" y="353"/>
      <point x="722" y="495"/>
      <point x="722" y="670" type="curve" smooth="yes"/>
      <point x="722" y="683" type="line" smooth="yes"/>
      <point x="722" y="858"/>
      <point x="566" y="1000"/>
      <point x="373" y="1000" type="curve" smooth="yes"/>
      <point x="121" y="1000" type="line" smooth="yes"/>
      <point x="54" y="1000"/>
      <point x="0" y="966"/>
      <point x="0" y="925" type="curve" smooth="yes"/>
      <point x="0" y="60" type="line" smooth="yes"/>
      <point x="0" y="24"/>
      <point x="47" y="-6"/>
      <point x="105" y="-6" type="curve" smooth="yes"/>
      <point x="163" y="-6"/>
      <point x="210" y="24"/>
    </contour>
    <contour>
      <point x="210" y="806" type="line"/>
      <point x="373" y="806" type="line" smooth="yes"/>
      <point x="449" y="806"/>
      <point x="512" y="751"/>
      <point x="512" y="683" type="curve" smooth="yes"/>
      <point x="512" y="670" type="line" smooth="yes"/>
      <point x="512" y="601"/>
      <point x="450" y="547"/>
      <point x="373" y="547" type="curve" smooth="yes"/>
      <point x="210" y="547" type="line"/>
    </contour>
  </outline>
</glyph>
<glyph name="Latin_Capital_Letter_Q" format="1">
  <advance width="880"/>
  <unicode hex="0051"/>
  <outline>
    <contour>
      <point x="226" y="472" type="curve" smooth="yes"/>
      <point x="226" y="528" type="line" smooth="yes"/>
      <point x="226" y="672"/>
      <point x="315" y="806"/>
      <point x="425" y="806" type="curve" smooth="yes"/>
      <point x="455" y="806" type="line" smooth="yes"/>
      <point x="575" y="806"/>
      <point x="654" y="682"/>
      <point x="654" y="528" type="curve" smooth="yes"/>
      <point x="654" y="472" type="line" smooth="yes"/>
      <point x="654" y="328"/>
      <point x="565" y="194"/>
      <point x="455" y="194" type="curve" smooth="yes"/>
      <point x="425" y="194" type="line" smooth="yes"/>
      <point x="305" y="194"/>
      <point x="226" y="318"/>
    </contour>
    <contour>
      <point x="0" y="473" type="line" smooth="yes"/>
      <point x="0" y="300"/>
      <point x="76" y="152"/>
      <point x="210" y="65" type="curve" smooth="yes"/>
      <point x="690" y="-215" type="line"/>
      <point x="717" y="-241"/>
      <point x="766" y="-227"/>
      <point x="798" y="-184" type="curve"/>
      <point x="798" y="-184" type="line"/>
      <point x="830" y="-141"/>
      <point x="834" y="-84"/>
      <point x="806" y="-58" type="curve"/>
      <point x="618" y="36" type="line"/>
      <point x="772" y="107"/>
      <point x="880" y="276"/>
      <point x="880" y="472" type="curve" smooth="yes"/>
      <point x="880" y="528" type="line" smooth="yes"/>
      <point x="880" y="788"/>
      <point x="690" y="1000"/>
      <point x="455" y="1000" type="curve" smooth="yes"/>
      <point x="425" y="1000" type="line" smooth="yes"/>
      <point x="190" y="1000"/>
      <point x="0" y="788"/>
      <point x="0" y="528" type="curve" smooth="yes"/>
    </contour>
  </outline>
</glyph>
<glyph name="Q" format="1">
  <advance width="1015"/>
  <unicode hex="0051"/>
  <outline>
    <contour>
      <point x="226" y="472" type="curve" smooth="yes"/>
      <point x="226" y="528" type="line" smooth="yes"/>
      <point x="226" y="672"/>
      <point x="315" y="806"/>
      <point x="425" y="806" type="curve" smooth="yes"/>
      <point x="455" y="806" type="line" smooth="yes"/>
      <point x="575" y="806"/>
      <point x="654" y="682"/>
      <point x="654" y="528" type="curve" smooth="yes"/>
      <point x="654" y="472" type="line" smooth="yes"/>
      <point x="654" y="328"/>
      <point x="565" y="194"/>
      <point x="455" y="194" type="curve" smooth="yes"/>
      <point x="425" y="194" type="line" smooth="yes"/>
      <point x="305" y="194"/>
      <point x="226" y="318"/>
    </contour>
    <contour>
      <point x="0" y="472" type="line" smooth="yes"/>
      <point x="0" y="212"/>
      <point x="190" y="0"/>
      <point x="425" y="0" type="curve" smooth="yes"/>
      <point x="445" y="0" type="line"/>
      <point x="682" y="-211" type="line" smooth="yes"/>
      <point x="701" y="-227"/>
      <point x="729" y="-228"/>
      <point x="759" y="-212" type="curve"/>
      <point x="759" y="-212" type="line"/>
      <point x="789" y="-197"/>
      <point x="813" y="-170"/>
      <point x="824" y="-138" type="curve"/>
      <point x="824" y="-138" type="line"/>
      <point x="836" y="-106"/>
      <point x="832" y="-79"/>
      <point x="814" y="-62" type="curve"/>
      <point x="649" y="52" type="line"/>
      <point x="786" y="130"/>
      <point x="880" y="289"/>
      <point x="880" y="472" type="curve" smooth="yes"/>
      <point x="880" y="528" type="line" smooth="yes"/>
      <point x="880" y="788"/>
      <point x="690" y="1000"/>
      <point x="455" y="1000" type="curve" smooth="yes"/>
      <point x="425" y="1000" type="line" smooth="yes"/>
      <point x="190" y="1000"/>
      <point x="0" y="788"/>
      <point x="0" y="528" type="curve" smooth="yes"/>
    </contour>
  </outline>
</glyph>
<glyph name="Latin_Capital_Letter_R" format="1">
  <advance width="799"/>
  <unicode hex="0052"/>
  <outline>
    <contour>
      <point x="210" y="353" type="line"/>
      <point x="308" y="353" type="line"/>
      <point x="458" y="41" type="line" smooth="yes"/>
      <point x="474" y="6"/>
      <point x="533" y="-13"/>
      <point x="588" y="-3" type="curve" smooth="yes"/>
      <point x="644" y="7"/>
      <point x="676" y="44"/>
      <point x="659" y="79" type="curve" smooth="yes"/>
      <point x="503" y="403" type="line"/>
      <point x="600" y="460"/>
      <point x="663" y="558"/>
      <point x="663" y="670" type="curve" smooth="yes"/>
      <point x="663" y="683" type="line" smooth="yes"/>
      <point x="663" y="858"/>
      <point x="507" y="1000"/>
      <point x="315" y="1000" type="curve" smooth="yes"/>
      <point x="121" y="1000" type="line" smooth="yes"/>
      <point x="54" y="1000"/>
      <point x="0" y="966"/>
      <point x="0" y="925" type="curve" smooth="yes"/>
      <point x="0" y="60" type="line" smooth="yes"/>
      <point x="0" y="24"/>
      <point x="47" y="-6"/>
      <point x="105" y="-6" type="curve" smooth="yes"/>
      <point x="163" y="-6"/>
      <point x="210" y="24"/>
      <point x="210" y="60" type="curve" smooth="yes"/>
    </contour>
    <contour>
      <point x="210" y="806" type="line"/>
      <point x="315" y="806" type="line" smooth="yes"/>
      <point x="385" y="806"/>
      <point x="443" y="751"/>
      <point x="443" y="683" type="curve" smooth="yes"/>
      <point x="443" y="670" type="line" smooth="yes"/>
      <point x="443" y="601"/>
      <point x="385" y="547"/>
      <point x="315" y="547" type="curve" smooth="yes"/>
      <point x="210" y="547" type="line"/>
    </contour>
  </outline>
</glyph>
<glyph name="R" format="1">
  <advance width="857"/>
  <unicode hex="0052"/>
  <outline>
    <contour>
      <point x="210" y="353" type="line"/>
      <point x="348" y="353" type="line"/>
      <point x="525" y="28" type="line"/>
      <point x="553" y="-3"/>
      <point x="616" y="-15"/>
      <point x="667" y="2" type="curve" smooth="yes"/>
      <point x="718" y="20"/>
      <point x="737" y="59"/>
      <point x="709" y="91" type="curve"/>
      <point x="544" y="394" type="line"/>
      <point x="650" y="448"/>
      <point x="722" y="551"/>
      <point x="722" y="670" type="curve" smooth="yes"/>
      <point x="722" y="683" type="line" smooth="yes"/>
      <point x="722" y="858"/>
      <point x="566" y="1000"/>
      <point x="373" y="1000" type="curve" smooth="yes"/>
      <point x="121" y="1000" type="line" smooth="yes"/>
      <point x="54" y="1000"/>
      <point x="0" y="966"/>
      <point x="0" y="925" type="curve" smooth="yes"/>
      <point x="0" y="60" type="line" smooth="yes"/>
      <point x="0" y="24"/>
      <point x="47" y="-6"/>
      <point x="105" y="-6" type="curve" smooth="yes"/>
      <point x="163" y="-6"/>
      <point x="210" y="24"/>
      <point x="210" y="60" type="curve" smooth="yes"/>
    </contour>
    <contour>
      <point x="210" y="806" type="line"/>
      <point x="373" y="806" type="line" smooth="yes"/>
      <point x="449" y="806"/>
      <point x="512" y="751"/>
      <point x="512" y="683" type="curve" smooth="yes"/>
      <point x="512" y="670" type="line" smooth="yes"/>
      <point x="512" y="601"/>
      <point x="450" y="547"/>
      <point x="373" y="547" type="curve" smooth="yes"/>
      <point x="210" y="547" type="line"/>
    </contour>
  </outline>
</glyph>
<glyph name="S" format="1">
  <advance width="797"/>
  <unicode hex="0053"/>
  <outline>
    <contour>
      <point x="662" y="318" type="curve" smooth="yes"/>
      <point x="662" y="497"/>
      <point x="519" y="583"/>
      <point x="348" y="638" type="curve" smooth="yes"/>
      <point x="307" y="653"/>
      <point x="229" y="680"/>
      <point x="228" y="727" type="curve" smooth="yes"/>
      <point x="226" y="774"/>
      <point x="266" y="812"/>
      <point x="316" y="812" type="curve" smooth="yes"/>
      <point x="357" y="812"/>
      <point x="391" y="803"/>
      <point x="420" y="787" type="curve"/>
      <point x="444" y="763"/>
      <point x="496" y="773"/>
      <point x="536" y="810" type="curve" smooth="yes"/>
      <point x="577" y="847"/>
      <point x="590" y="898"/>
      <point x="568" y="924" type="curve"/>
      <point x="499" y="979"/>
      <point x="415" y="1006"/>
      <point x="316" y="1006" type="curve" smooth="yes"/>
      <point x="146" y="1006"/>
      <point x="9" y="881"/>
      <point x="9" y="727" type="curve" smooth="yes"/>
      <point x="9" y="573"/>
      <point x="142" y="500"/>
      <point x="288" y="453" type="curve" smooth="yes"/>
      <point x="351" y="431"/>
      <point x="440" y="390"/>
      <point x="440" y="318" type="curve" smooth="yes"/>
      <point x="441" y="247"/>
      <point x="378" y="188"/>
      <point x="301" y="188" type="curve" smooth="yes"/>
      <point x="245" y="188"/>
      <point x="198" y="201"/>
      <point x="158" y="226" type="curve"/>
      <point x="134" y="251"/>
      <point x="83" y="241"/>
      <point x="42" y="203" type="curve" smooth="yes"/>
      <point x="2" y="166"/>
      <point x="-12" y="115"/>
      <point x="11" y="90" type="curve"/>
      <point x="91" y="26"/>
      <point x="187" y="-6"/>
      <point x="301" y="-6" type="curve" smooth="yes"/>
      <point x="500" y="-6"/>
      <point x="662" y="139"/>
    </contour>
  </outline>
</glyph>
<glyph name="Latin_Capital_Letter_T" format="1">
  <advance width="948"/>
  <unicode hex="0054"/>
  <outline>
    <contour>
      <point x="511" y="806" type="line"/>
      <point x="741" y="806" type="line" smooth="yes"/>
      <point x="780" y="806"/>
      <point x="812" y="849"/>
      <point x="812" y="903" type="curve"/>
      <point x="812" y="903" type="line"/>
      <point x="812" y="957"/>
      <point x="780" y="1000"/>
      <point x="741" y="1000" type="curve" smooth="yes"/>
      <point x="71" y="1000" type="line" smooth="yes"/>
      <point x="32" y="1000"/>
      <point x="0" y="957"/>
      <point x="0" y="903" type="curve"/>
      <point x="0" y="903" type="line"/>
      <point x="0" y="849"/>
      <point x="32" y="806"/>
      <point x="71" y="806" type="curve" smooth="yes"/>
      <point x="301" y="806" type="line"/>
      <point x="301" y="60" type="line" smooth="yes"/>
      <point x="301" y="24"/>
      <point x="348" y="-6"/>
      <point x="406" y="-6" type="curve" smooth="yes"/>
      <point x="464" y="-6"/>
      <point x="511" y="24"/>
      <point x="511" y="60" type="curve" smooth="yes"/>
    </contour>
  </outline>
</glyph>
<glyph name="T" format="1">
  <advance width="958"/>
  <unicode hex="0054"/>
  <outline>
    <contour>
      <point x="516" y="798" type="line"/>
      <point x="752" y="798" type="line" smooth="yes"/>
      <point x="791" y="798"/>
      <point x="823" y="841"/>
      <point x="823" y="895" type="curve"/>
      <point x="823" y="895" type="line"/>
      <point x="823" y="949"/>
      <point x="791" y="992"/>
      <point x="752" y="992" type="curve" smooth="yes"/>
      <point x="71" y="992" type="line" smooth="yes"/>
      <point x="32" y="992"/>
      <point x="0" y="949"/>
      <point x="0" y="895" type="curve"/>
      <point x="0" y="895" type="line"/>
      <point x="0" y="841"/>
      <point x="32" y="798"/>
      <point x="71" y="798" type="curve" smooth="yes"/>
      <point x="306" y="798" type="line"/>
      <point x="306" y="60" type="line" smooth="yes"/>
      <point x="306" y="24"/>
      <point x="353" y="-6"/>
      <point x="411" y="-6" type="curve" smooth="yes"/>
      <point x="469" y="-6"/>
      <point x="516" y="24"/>
      <point x="516" y="60" type="curve" smooth="yes"/>
    </contour>
  </outline>
</glyph>
<glyph name="Latin_Capital_Letter_V" format="1">
  <advance width="857"/>
  <unicode hex="0056"/>
  <outline>
    <contour>
      <point x="274" y="73" type="line" smooth="yes"/>
      <point x="289" y="27"/>
      <point x="353" y="-6"/>
      <point x="429" y="-6" type="curve" smooth="yes"/>
      <point x="505" y="-6"/>
      <point x="568" y="27"/>
      <point x="583" y="73" type="curve" smooth="yes"/>
      <point x="855" y="927" type="line" smooth="yes"/>
      <point x="867" y="963"/>
      <point x="830" y="997"/>
      <point x="773" y="1005" type="curve" smooth="yes"/>
      <point x="716" y="1012"/>
      <point x="661" y="989"/>
      <point x="649" y="953" type="curve" smooth="yes"/>
      <point x="429" y="261" type="line"/>
      <point x="208" y="953" type="line" smooth="yes"/>
      <point x="197" y="989"/>
      <point x="141" y="1012"/>
      <point x="85" y="1005" type="curve" smooth="yes"/>
      <point x="28" y="997"/>
      <point x="-9" y="963"/>
      <point x="2" y="927" type="curve" smooth="yes"/>
    </contour>
  </outline>
</glyph>
<glyph name="V" format="1">
  <advance width="976"/>
  <unicode hex="0056"/>
  <outline>
    <contour>
      <point x="303" y="47" type="line"/>
      <point x="317" y="15"/>
      <point x="364" y="-6"/>
      <point x="420" y="-6" type="curve" smooth="yes"/>
      <point x="477" y="-6"/>
      <point x="524" y="15"/>
      <point x="538" y="47" type="curve"/>
      <point x="839" y="918" type="line" smooth="yes"/>
      <point x="850" y="951"/>
      <point x="814" y="986"/>
      <point x="758" y="997" type="curve" smooth="yes"/>
      <point x="702" y="1008"/>
      <point x="647" y="991"/>
      <point x="636" y="958" type="curve" smooth="yes"/>
      <point x="420" y="336" type="line"/>
      <point x="205" y="958" type="line" smooth="yes"/>
      <point x="194" y="991"/>
      <point x="139" y="1008"/>
      <point x="83" y="997" type="curve" smooth="yes"/>
      <point x="27" y="986"/>
      <point x="-9" y="951"/>
      <point x="2" y="918" type="curve" smooth="yes"/>
    </contour>
  </outline>
</glyph>
<glyph name="W" format="1">
  <advance width="1352"/>
  <unicode hex="0057"/>
  <outline>
    <contour>
      <point x="237" y="19" type="line"/>
      <point x="244" y="5"/>
      <point x="293" y="-6"/>
      <point x="351" y="-6" type="curve" smooth="yes"/>
      <point x="410" y="-6"/>
      <point x="458" y="5"/>
      <point x="466" y="19" type="curve"/>
      <point x="608" y="614" type="line"/>
      <point x="750" y="19" type="line"/>
      <point x="758" y="5"/>
      <point x="806" y="-6"/>
      <point x="865" y="-6" type="curve" smooth="yes"/>
      <point x="924" y="-6"/>
      <point x="972" y="5"/>
      <point x="980" y="19" type="curve"/>
      <point x="1216" y="963" type="line" smooth="yes"/>
      <point x="1220" y="977"/>
      <point x="1176" y="993"/>
      <point x="1119" y="999" type="curve" smooth="yes"/>
      <point x="1061" y="1005"/>
      <point x="1012" y="998"/>
      <point x="1009" y="983" type="curve" smooth="yes"/>
      <point x="865" y="385" type="line"/>
      <point x="723" y="981" type="line"/>
      <point x="715" y="995"/>
      <point x="667" y="1006"/>
      <point x="608" y="1006" type="curve" smooth="yes"/>
      <point x="550" y="1006"/>
      <point x="501" y="995"/>
      <point x="494" y="981" type="curve"/>
      <point x="351" y="385" type="line"/>
      <point x="208" y="983" type="line" smooth="yes"/>
      <point x="204" y="998"/>
      <point x="155" y="1005"/>
      <point x="97" y="999" type="curve" smooth="yes"/>
      <point x="40" y="993"/>
      <point x="-3" y="977"/>
      <point x="0" y="963" type="curve" smooth="yes"/>
    </contour>
  </outline>
</glyph>
<glyph name="X" format="1">
  <advance width="857"/>
  <unicode hex="0058"/>
  <outline>
    <contour>
      <point x="361" y="311" type="line"/>
      <point x="526" y="27" type="line"/>
      <point x="555" y="-5"/>
      <point x="620" y="-15"/>
      <point x="670" y="3" type="curve" smooth="yes"/>
      <point x="720" y="21"/>
      <point x="737" y="61"/>
      <point x="708" y="93" type="curve"/>
      <point x="471" y="500" type="line"/>
      <point x="708" y="907" type="line"/>
      <point x="737" y="939"/>
      <point x="720" y="979"/>
      <point x="670" y="997" type="curve" smooth="yes"/>
      <point x="620" y="1015"/>
      <point x="555" y="1005"/>
      <point x="526" y="973" type="curve"/>
      <point x="361" y="689" type="line"/>
      <point x="196" y="973" type="line"/>
      <point x="167" y="1005"/>
      <point x="102" y="1015"/>
      <point x="52" y="997" type="curve" smooth="yes"/>
      <point x="2" y="979"/>
      <point x="-15" y="939"/>
      <point x="14" y="907" type="curve"/>
      <point x="251" y="500" type="line"/>
      <point x="14" y="93" type="line"/>
      <point x="-15" y="61"/>
      <point x="2" y="21"/>
      <point x="52" y="3" type="curve" smooth="yes"/>
      <point x="102" y="-15"/>
      <point x="167" y="-5"/>
      <point x="196" y="27" type="curve"/>
    </contour>
  </outline>
</glyph>
<glyph name="Latin_Capital_Letter_Y" format="1">
  <advance width="812"/>
  <unicode hex="0059"/>
  <outline>
    <contour>
      <point x="301" y="487" type="line"/>
      <point x="301" y="60" type="line" smooth="yes"/>
      <point x="301" y="24"/>
      <point x="348" y="-6"/>
      <point x="406" y="-6" type="curve" smooth="yes"/>
      <point x="464" y="-6"/>
      <point x="511" y="24"/>
      <point x="511" y="60" type="curve" smooth="yes"/>
      <point x="511" y="487" type="line"/>
      <point x="804" y="914" type="line" smooth="yes"/>
      <point x="827" y="948"/>
      <point x="802" y="986"/>
      <point x="749" y="1001" type="curve" smooth="yes"/>
      <point x="695" y="1015"/>
      <point x="634" y="999"/>
      <point x="611" y="966" type="curve" smooth="yes"/>
      <point x="406" y="667" type="line"/>
      <point x="202" y="966" type="line" smooth="yes"/>
      <point x="179" y="999"/>
      <point x="117" y="1015"/>
      <point x="64" y="1001" type="curve" smooth="yes"/>
      <point x="10" y="986"/>
      <point x="-14" y="948"/>
      <point x="8" y="914" type="curve" smooth="yes"/>
    </contour>
  </outline>
</glyph>
<glyph name="Y" format="1">
  <advance width="901"/>
  <unicode hex="0059"/>
  <outline>
    <contour>
      <point x="278" y="499" type="line"/>
      <point x="278" y="20" type="line" smooth="yes"/>
      <point x="278" y="6"/>
      <point x="325" y="-6"/>
      <point x="383" y="-6" type="curve" smooth="yes"/>
      <point x="441" y="-6"/>
      <point x="488" y="6"/>
      <point x="488" y="20" type="curve" smooth="yes"/>
      <point x="488" y="499" type="line"/>
      <point x="764" y="950" type="line" smooth="yes"/>
      <point x="772" y="963"/>
      <point x="734" y="983"/>
      <point x="678" y="995" type="curve" smooth="yes"/>
      <point x="622" y="1007"/>
      <point x="571" y="1006"/>
      <point x="563" y="993" type="curve" smooth="yes"/>
      <point x="383" y="682" type="line"/>
      <point x="203" y="992" type="line" smooth="yes"/>
      <point x="195" y="1006"/>
      <point x="144" y="1007"/>
      <point x="88" y="995" type="curve" smooth="yes"/>
      <point x="32" y="983"/>
      <point x="-7" y="963"/>
      <point x="1" y="950" type="curve" smooth="yes"/>
    </contour>
  </outline>
</glyph>
<glyph name="Latin_Capital_Letter_Z" format="1">
  <advance width="813"/>
  <unicode hex="005A"/>
  <outline>
    <contour>
      <point x="430" y="806" type="line"/>
      <point x="24" y="204" type="line" smooth="yes"/>
      <point x="-1" y="167"/>
      <point x="-7" y="118"/>
      <point x="8" y="73" type="curve"/>
      <point x="8" y="73" type="line"/>
      <point x="22" y="27"/>
      <point x="53" y="0"/>
      <point x="89" y="0" type="curve" smooth="yes"/>
      <point x="606" y="0" type="line" smooth="yes"/>
      <point x="645" y="0"/>
      <point x="677" y="43"/>
      <point x="677" y="97" type="curve"/>
      <point x="677" y="97" type="line"/>
      <point x="677" y="151"/>
      <point x="645" y="194"/>
      <point x="606" y="194" type="curve" smooth="yes"/>
      <point x="247" y="194" type="line"/>
      <point x="654" y="796" type="line" smooth="yes"/>
      <point x="678" y="833"/>
      <point x="684" y="882"/>
      <point x="670" y="927" type="curve"/>
      <point x="670" y="927" type="line"/>
      <point x="655" y="973"/>
      <point x="625" y="1000"/>
      <point x="588" y="1000" type="curve" smooth="yes"/>
      <point x="71" y="1000" type="line" smooth="yes"/>
      <point x="32" y="1000"/>
      <point x="0" y="957"/>
      <point x="0" y="903" type="curve"/>
      <point x="0" y="903" type="line"/>
      <point x="0" y="849"/>
      <point x="32" y="806"/>
      <point x="71" y="806" type="curve" smooth="yes"/>
    </contour>
  </outline>
</glyph>
<glyph name="Z" format="1">
  <advance width="827"/>
  <unicode hex="005A"/>
  <outline>
    <contour>
      <point x="436" y="798" type="line"/>
      <point x="18" y="217" type="line"/>
      <point x="-3" y="176"/>
      <point x="-6" y="126"/>
      <point x="11" y="81" type="curve"/>
      <point x="11" y="81" type="line"/>
      <point x="28" y="37"/>
      <point x="59" y="11"/>
      <point x="96" y="11" type="curve" smooth="yes"/>
      <point x="619" y="8" type="line" smooth="yes"/>
      <point x="658" y="8"/>
      <point x="690" y="51"/>
      <point x="690" y="105" type="curve"/>
      <point x="690" y="105" type="line"/>
      <point x="690" y="159"/>
      <point x="658" y="202"/>
      <point x="619" y="202" type="curve" smooth="yes"/>
      <point x="256" y="202" type="line"/>
      <point x="674" y="783" type="line"/>
      <point x="695" y="824"/>
      <point x="698" y="874"/>
      <point x="681" y="919" type="curve"/>
      <point x="681" y="919" type="line"/>
      <point x="664" y="963"/>
      <point x="633" y="989"/>
      <point x="596" y="989" type="curve" smooth="yes"/>
      <point x="73" y="992" type="line" smooth="yes"/>
      <point x="34" y="992"/>
      <point x="2" y="949"/>
      <point x="2" y="895" type="curve"/>
      <point x="2" y="895" type="line"/>
      <point x="2" y="841"/>
      <point x="34" y="798"/>
      <point x="73" y="798" type="curve" smooth="yes"/>
    </contour>
  </outline>
</glyph>
<glyph name="bracketleft" format="1">
  <advance width="496"/>
  <unicode hex="005B"/>
  <outline>
    <contour>
      <point x="333" y="-100" type="line" smooth="yes"/>
      <point x="348" y="-100"/>
      <point x="361" y="-57"/>
      <point x="361" y="-3" type="curve" smooth="yes"/>
      <point x="361" y="51"/>
      <point x="348" y="94"/>
      <point x="333" y="94" type="curve" smooth="yes"/>
      <point x="187" y="94" type="line"/>
      <point x="187" y="906" type="line"/>
      <point x="333" y="906" type="line" smooth="yes"/>
      <point x="348" y="906"/>
      <point x="361" y="949"/>
      <point x="361" y="1003" type="curve" smooth="yes"/>
      <point x="361" y="1057"/>
      <point x="348" y="1100"/>
      <point x="333" y="1100" type="curve" smooth="yes"/>
      <point x="121" y="1100" type="line" smooth="yes"/>
      <point x="54" y="1100"/>
      <point x="0" y="1086"/>
      <point x="0" y="1070" type="curve" smooth="yes"/>
      <point x="0" y="-70" type="line" smooth="yes"/>
      <point x="0" y="-86"/>
      <point x="54" y="-100"/>
      <point x="121" y="-100" type="curve" smooth="yes"/>
    </contour>
  </outline>
</glyph>
<glyph name="backslash" format="1">
  <advance width="699"/>
  <unicode hex="005C"/>
  <outline>
    <contour>
      <point x="0" y="1035" type="curve" smooth="yes"/>
      <point x="368" y="-98" type="line" smooth="yes"/>
      <point x="373" y="-112"/>
      <point x="420" y="-109"/>
      <point x="474" y="-91" type="curve" smooth="yes"/>
      <point x="528" y="-74"/>
      <point x="568" y="-49"/>
      <point x="563" y="-35" type="curve" smooth="yes"/>
      <point x="195" y="1098" type="line" smooth="yes"/>
      <point x="191" y="1112"/>
      <point x="144" y="1109"/>
      <point x="90" y="1091" type="curve" smooth="yes"/>
      <point x="36" y="1074"/>
      <point x="-4" y="1049"/>
    </contour>
  </outline>
</glyph>
<glyph name="bracketright" format="1">
  <advance width="496"/>
  <unicode hex="005D"/>
  <outline>
    <contour>
      <point x="28" y="-100" type="curve" smooth="yes"/>
      <point x="240" y="-100" type="line" smooth="yes"/>
      <point x="307" y="-100"/>
      <point x="361" y="-86"/>
      <point x="361" y="-70" type="curve" smooth="yes"/>
      <point x="361" y="1070" type="line" smooth="yes"/>
      <point x="361" y="1086"/>
      <point x="307" y="1100"/>
      <point x="240" y="1100" type="curve" smooth="yes"/>
      <point x="28" y="1100" type="line" smooth="yes"/>
      <point x="13" y="1100"/>
      <point x="0" y="1057"/>
      <point x="0" y="1003" type="curve" smooth="yes"/>
      <point x="0" y="949"/>
      <point x="13" y="906"/>
      <point x="28" y="906" type="curve" smooth="yes"/>
      <point x="174" y="906" type="line"/>
      <point x="174" y="94" type="line"/>
      <point x="28" y="94" type="line" smooth="yes"/>
      <point x="13" y="94"/>
      <point x="0" y="51"/>
      <point x="0" y="-3" type="curve" smooth="yes"/>
      <point x="0" y="-57"/>
      <point x="13" y="-100"/>
    </contour>
  </outline>
</glyph>
<glyph name="asciicircum" format="1">
  <advance width="689"/>
  <unicode hex="005E"/>
  <outline>
    <contour>
      <point x="8" y="760" type="line" smooth="yes"/>
      <point x="0" y="749"/>
      <point x="-2" y="735"/>
      <point x="2" y="718" type="curve" smooth="yes"/>
      <point x="12" y="677"/>
      <point x="59" y="635"/>
      <point x="107" y="625" type="curve" smooth="yes"/>
      <point x="136" y="619"/>
      <point x="158" y="626"/>
      <point x="170" y="640" type="curve"/>
      <point x="277" y="779" type="line"/>
      <point x="384" y="640" type="line"/>
      <point x="396" y="626"/>
      <point x="418" y="619"/>
      <point x="446" y="625" type="curve" smooth="yes"/>
      <point x="495" y="635"/>
      <point x="542" y="677"/>
      <point x="552" y="718" type="curve" smooth="yes"/>
      <point x="556" y="735"/>
      <point x="553" y="749"/>
      <point x="545" y="760" type="curve" smooth="yes"/>
      <point x="387" y="964" type="line" smooth="yes"/>
      <point x="368" y="989"/>
      <point x="326" y="1006"/>
      <point x="277" y="1006" type="curve" smooth="yes"/>
      <point x="228" y="1006"/>
      <point x="186" y="989"/>
      <point x="167" y="964" type="curve" smooth="yes"/>
    </contour>
  </outline>
</glyph>
<glyph name="underscore" format="1">
  <advance width="960"/>
  <unicode hex="005F"/>
  <outline>
    <contour>
      <point x="797" y="-217" type="line" smooth="yes"/>
      <point x="812" y="-217"/>
      <point x="825" y="-174"/>
      <point x="825" y="-120" type="curve" smooth="yes"/>
      <point x="825" y="-66"/>
      <point x="812" y="-23"/>
      <point x="797" y="-23" type="curve" smooth="yes"/>
      <point x="28" y="-23" type="line" smooth="yes"/>
      <point x="13" y="-23"/>
      <point x="0" y="-66"/>
      <point x="0" y="-120" type="curve" smooth="yes"/>
      <point x="0" y="-174"/>
      <point x="13" y="-217"/>
      <point x="28" y="-217" type="curve" smooth="yes"/>
    </contour>
  </outline>
</glyph>
<glyph name="grave" format="1">
  <advance width="427"/>
  <unicode hex="0060"/>
  <outline>
    <contour>
      <point x="153" y="992" type="line" smooth="yes"/>
      <point x="137" y="1011"/>
      <point x="109" y="1010"/>
      <point x="78" y="991" type="curve" smooth="yes"/>
      <point x="46" y="973"/>
      <point x="19" y="941"/>
      <point x="7" y="906" type="curve" smooth="yes"/>
      <point x="-6" y="871"/>
      <point x="-1" y="843"/>
      <point x="20" y="831" type="curve" smooth="yes"/>
      <point x="194" y="731" type="line" smooth="yes"/>
      <point x="213" y="720"/>
      <point x="244" y="733"/>
      <point x="268" y="762" type="curve" smooth="yes"/>
      <point x="292" y="790"/>
      <point x="299" y="824"/>
      <point x="285" y="840" type="curve" smooth="yes"/>
    </contour>
  </outline>
</glyph>
<glyph name="b" format="1">
  <advance width="782"/>
  <unicode hex="0062"/>
  <outline>
    <contour>
      <point x="210" y="325" type="curve" smooth="yes"/>
      <point x="210" y="400"/>
      <point x="260" y="462"/>
      <point x="322" y="462" type="curve" smooth="yes"/>
      <point x="383" y="462"/>
      <point x="433" y="400"/>
      <point x="433" y="325" type="curve" smooth="yes"/>
      <point x="433" y="250"/>
      <point x="383" y="188"/>
      <point x="322" y="188" type="curve" smooth="yes"/>
      <point x="260" y="188"/>
      <point x="210" y="250"/>
    </contour>
    <contour>
      <point x="210" y="624" type="curve"/>
      <point x="210" y="980" type="line" smooth="yes"/>
      <point x="210" y="994"/>
      <point x="163" y="1006"/>
      <point x="105" y="1006" type="curve" smooth="yes"/>
      <point x="47" y="1006"/>
      <point x="0" y="994"/>
      <point x="0" y="980" type="curve" smooth="yes"/>
      <point x="0" y="20" type="line" smooth="yes"/>
      <point x="0" y="6"/>
      <point x="47" y="-6"/>
      <point x="105" y="-6" type="curve" smooth="yes"/>
      <point x="163" y="-6"/>
      <point x="210" y="6"/>
      <point x="210" y="20" type="curve" smooth="yes"/>
      <point x="210" y="26" type="line"/>
      <point x="244" y="6"/>
      <point x="282" y="-6"/>
      <point x="322" y="-6" type="curve" smooth="yes"/>
      <point x="501" y="-6"/>
      <point x="647" y="142"/>
      <point x="647" y="325" type="curve" smooth="yes"/>
      <point x="647" y="508"/>
      <point x="501" y="656"/>
      <point x="322" y="656" type="curve" smooth="yes"/>
      <point x="282" y="656"/>
      <point x="244" y="644"/>
    </contour>
  </outline>
</glyph>
<glyph name="c" format="1">
  <advance width="708"/>
  <unicode hex="0063"/>
  <outline>
    <contour>
      <point x="325" y="656" type="curve" smooth="yes"/>
      <point x="146" y="656"/>
      <point x="0" y="508"/>
      <point x="0" y="325" type="curve" smooth="yes"/>
      <point x="0" y="142"/>
      <point x="146" y="-6"/>
      <point x="325" y="-6" type="curve" smooth="yes"/>
      <point x="420" y="-6"/>
      <point x="501" y="23"/>
      <point x="570" y="81" type="curve"/>
      <point x="580" y="92"/>
      <point x="558" y="132"/>
      <point x="519" y="171" type="curve" smooth="yes"/>
      <point x="481" y="210"/>
      <point x="441" y="233"/>
      <point x="430" y="223" type="curve"/>
      <point x="400" y="200"/>
      <point x="365" y="188"/>
      <point x="325" y="188" type="curve" smooth="yes"/>
      <point x="263" y="188"/>
      <point x="213" y="250"/>
      <point x="213" y="325" type="curve" smooth="yes"/>
      <point x="213" y="400"/>
      <point x="263" y="462"/>
      <point x="325" y="462" type="curve" smooth="yes"/>
      <point x="365" y="462"/>
      <point x="400" y="450"/>
      <point x="430" y="427" type="curve"/>
      <point x="441" y="417"/>
      <point x="481" y="440"/>
      <point x="519" y="479" type="curve" smooth="yes"/>
      <point x="558" y="518"/>
      <point x="580" y="558"/>
      <point x="570" y="569" type="curve"/>
      <point x="501" y="627"/>
      <point x="420" y="656"/>
    </contour>
  </outline>
</glyph>
<glyph name="d" format="1">
  <advance width="782"/>
  <unicode hex="0064"/>
  <outline>
    <contour>
      <point x="437" y="325" type="curve" smooth="yes"/>
      <point x="437" y="250"/>
      <point x="387" y="188"/>
      <point x="325" y="188" type="curve" smooth="yes"/>
      <point x="263" y="188"/>
      <point x="213" y="250"/>
      <point x="213" y="325" type="curve" smooth="yes"/>
      <point x="213" y="400"/>
      <point x="263" y="462"/>
      <point x="325" y="462" type="curve" smooth="yes"/>
      <point x="387" y="462"/>
      <point x="437" y="400"/>
    </contour>
    <contour>
      <point x="437" y="624" type="line"/>
      <point x="403" y="644"/>
      <point x="365" y="656"/>
      <point x="325" y="656" type="curve" smooth="yes"/>
      <point x="146" y="656"/>
      <point x="0" y="508"/>
      <point x="0" y="325" type="curve" smooth="yes"/>
      <point x="0" y="142"/>
      <point x="146" y="-6"/>
      <point x="325" y="-6" type="curve" smooth="yes"/>
      <point x="365" y="-6"/>
      <point x="403" y="6"/>
      <point x="437" y="26" type="curve"/>
      <point x="437" y="20" type="line" smooth="yes"/>
      <point x="437" y="6"/>
      <point x="484" y="-6"/>
      <point x="542" y="-6" type="curve" smooth="yes"/>
      <point x="600" y="-6"/>
      <point x="647" y="6"/>
      <point x="647" y="20" type="curve" smooth="yes"/>
      <point x="647" y="980" type="line" smooth="yes"/>
      <point x="647" y="994"/>
      <point x="600" y="1006"/>
      <point x="542" y="1006" type="curve" smooth="yes"/>
      <point x="484" y="1006"/>
      <point x="437" y="994"/>
      <point x="437" y="980" type="curve" smooth="yes"/>
    </contour>
  </outline>
</glyph>
<glyph name="e" format="1">
  <advance width="750"/>
  <unicode hex="0065"/>
  <outline>
    <contour>
      <point x="221" y="380" type="line"/>
      <point x="236" y="428"/>
      <point x="269" y="462"/>
      <point x="307" y="462" type="curve" smooth="yes"/>
      <point x="346" y="462"/>
      <point x="379" y="428"/>
      <point x="393" y="380" type="curve"/>
    </contour>
    <contour>
      <point x="307" y="-6" type="curve" smooth="yes"/>
      <point x="407" y="-6"/>
      <point x="493" y="18"/>
      <point x="571" y="67" type="curve"/>
      <point x="581" y="78"/>
      <point x="562" y="119"/>
      <point x="526" y="160" type="curve" smooth="yes"/>
      <point x="490" y="202"/>
      <point x="452" y="227"/>
      <point x="440" y="218" type="curve"/>
      <point x="400" y="198"/>
      <point x="358" y="188"/>
      <point x="307" y="188" type="curve" smooth="yes"/>
      <point x="269" y="188"/>
      <point x="236" y="222"/>
      <point x="221" y="270" type="curve"/>
      <point x="559" y="270" type="line" smooth="yes"/>
      <point x="590" y="270"/>
      <point x="614" y="294"/>
      <point x="614" y="325" type="curve" smooth="yes"/>
      <point x="614" y="508"/>
      <point x="477" y="656"/>
      <point x="307" y="656" type="curve" smooth="yes"/>
      <point x="138" y="656"/>
      <point x="0" y="508"/>
      <point x="0" y="325" type="curve" smooth="yes"/>
      <point x="0" y="142"/>
      <point x="138" y="-6"/>
    </contour>
  </outline>
</glyph>
<glyph name="f" format="1">
  <advance width="633"/>
  <unicode hex="0066"/>
  <outline>
    <contour>
      <point x="86" y="456" type="line"/>
      <point x="86" y="20" type="line" smooth="yes"/>
      <point x="86" y="6"/>
      <point x="133" y="-6"/>
      <point x="191" y="-6" type="curve" smooth="yes"/>
      <point x="249" y="-6"/>
      <point x="296" y="6"/>
      <point x="296" y="20" type="curve" smooth="yes"/>
      <point x="296" y="456" type="line"/>
      <point x="386" y="456" type="line" smooth="yes"/>
      <point x="402" y="456"/>
      <point x="414" y="499"/>
      <point x="414" y="553" type="curve" smooth="yes"/>
      <point x="414" y="607"/>
      <point x="402" y="650"/>
      <point x="386" y="650" type="curve" smooth="yes"/>
      <point x="296" y="650" type="line"/>
      <point x="296" y="734" type="line" smooth="yes"/>
      <point x="296" y="759"/>
      <point x="310" y="781"/>
      <point x="336" y="797" type="curve" smooth="yes"/>
      <point x="362" y="812"/>
      <point x="393" y="816"/>
      <point x="424" y="808" type="curve"/>
      <point x="438" y="803"/>
      <point x="464" y="840"/>
      <point x="482" y="891" type="curve" smooth="yes"/>
      <point x="500" y="942"/>
      <point x="503" y="987"/>
      <point x="488" y="992" type="curve" smooth="yes"/>
      <point x="391" y="1020"/>
      <point x="295" y="1007"/>
      <point x="213" y="954" type="curve" smooth="yes"/>
      <point x="130" y="901"/>
      <point x="86" y="824"/>
      <point x="86" y="734" type="curve" smooth="yes"/>
      <point x="86" y="650" type="line"/>
      <point x="28" y="650" type="line" smooth="yes"/>
      <point x="13" y="650"/>
      <point x="0" y="607"/>
      <point x="0" y="553" type="curve" smooth="yes"/>
      <point x="0" y="499"/>
      <point x="13" y="456"/>
      <point x="28" y="456" type="curve" smooth="yes"/>
    </contour>
  </outline>
</glyph>
<glyph name="g" format="1">
  <advance width="782"/>
  <unicode hex="0067"/>
  <outline>
    <contour>
      <point x="437" y="26" type="curve"/>
      <point x="437" y="0" type="line"/>
      <point x="437" y="-21" type="line" smooth="yes"/>
      <point x="437" y="-71"/>
      <point x="386" y="-112"/>
      <point x="323" y="-112" type="curve" smooth="yes"/>
      <point x="278" y="-112"/>
      <point x="240" y="-100"/>
      <point x="210" y="-79" type="curve"/>
      <point x="201" y="-68"/>
      <point x="158" y="-86"/>
      <point x="114" y="-119" type="curve" smooth="yes"/>
      <point x="70" y="-153"/>
      <point x="42" y="-190"/>
      <point x="50" y="-202" type="curve"/>
      <point x="119" y="-270"/>
      <point x="213" y="-306"/>
      <point x="323" y="-306" type="curve" smooth="yes"/>
      <point x="502" y="-306"/>
      <point x="647" y="-178"/>
      <point x="647" y="-21" type="curve" smooth="yes"/>
      <point x="647" y="0" type="line"/>
      <point x="647" y="630" type="line" smooth="yes"/>
      <point x="647" y="644"/>
      <point x="600" y="656"/>
      <point x="542" y="656" type="curve" smooth="yes"/>
      <point x="484" y="656"/>
      <point x="437" y="644"/>
      <point x="437" y="630" type="curve" smooth="yes"/>
      <point x="437" y="624" type="line"/>
      <point x="403" y="644"/>
      <point x="365" y="656"/>
      <point x="325" y="656" type="curve" smooth="yes"/>
      <point x="146" y="656"/>
      <point x="0" y="508"/>
      <point x="0" y="325" type="curve" smooth="yes"/>
      <point x="0" y="142"/>
      <point x="146" y="-6"/>
      <point x="325" y="-6" type="curve" smooth="yes"/>
      <point x="365" y="-6"/>
      <point x="403" y="6"/>
    </contour>
    <contour>
      <point x="213" y="325" type="curve" smooth="yes"/>
      <point x="213" y="400"/>
      <point x="263" y="462"/>
      <point x="325" y="462" type="curve" smooth="yes"/>
      <point x="387" y="462"/>
      <point x="437" y="400"/>
      <point x="437" y="325" type="curve" smooth="yes"/>
      <point x="437" y="250"/>
      <point x="387" y="188"/>
      <point x="325" y="188" type="curve" smooth="yes"/>
      <point x="263" y="188"/>
      <point x="213" y="250"/>
    </contour>
  </outline>
</glyph>
<glyph name="i" format="1">
  <advance width="345"/>
  <unicode hex="0069"/>
  <outline>
    <contour>
      <point x="210" y="630" type="line" smooth="yes"/>
      <point x="210" y="644"/>
      <point x="163" y="656"/>
      <point x="105" y="656" type="curve" smooth="yes"/>
      <point x="47" y="656"/>
      <point x="0" y="644"/>
      <point x="0" y="630" type="curve" smooth="yes"/>
      <point x="0" y="20" type="line" smooth="yes"/>
      <point x="0" y="6"/>
      <point x="47" y="-6"/>
      <point x="105" y="-6" type="curve" smooth="yes"/>
      <point x="163" y="-6"/>
      <point x="210" y="6"/>
      <point x="210" y="20" type="curve" smooth="yes"/>
    </contour>
    <contour>
      <point x="210" y="924" type="line" smooth="yes"/>
      <point x="210" y="938"/>
      <point x="163" y="950"/>
      <point x="105" y="950" type="curve" smooth="yes"/>
      <point x="47" y="950"/>
      <point x="0" y="938"/>
      <point x="0" y="924" type="curve" smooth="yes"/>
      <point x="0" y="782" type="line" smooth="yes"/>
      <point x="0" y="768"/>
      <point x="47" y="756"/>
      <point x="105" y="756" type="curve" smooth="yes"/>
      <point x="163" y="756"/>
      <point x="210" y="768"/>
      <point x="210" y="782" type="curve" smooth="yes"/>
    </contour>
  </outline>
</glyph>
<glyph name="j" format="1">
  <advance width="581"/>
  <unicode hex="006A"/>
  <outline>
    <contour>
      <point x="445" y="630" type="line" smooth="yes"/>
      <point x="445" y="644"/>
      <point x="398" y="656"/>
      <point x="340" y="656" type="curve" smooth="yes"/>
      <point x="282" y="656"/>
      <point x="235" y="644"/>
      <point x="235" y="630" type="curve" smooth="yes"/>
      <point x="235" y="-99" type="line" smooth="yes"/>
      <point x="235" y="-104"/>
      <point x="224" y="-109"/>
      <point x="204" y="-111" type="curve" smooth="yes"/>
      <point x="185" y="-113"/>
      <point x="165" y="-112"/>
      <point x="149" y="-108" type="curve"/>
      <point x="139" y="-98"/>
      <point x="98" y="-120"/>
      <point x="57" y="-157" type="curve" smooth="yes"/>
      <point x="17" y="-194"/>
      <point x="-7" y="-233"/>
      <point x="2" y="-245" type="curve"/>
      <point x="78" y="-306"/>
      <point x="185" y="-323"/>
      <point x="285" y="-290" type="curve" smooth="yes"/>
      <point x="384" y="-257"/>
      <point x="445" y="-185"/>
      <point x="445" y="-99" type="curve" smooth="yes"/>
    </contour>
    <contour>
      <point x="445" y="924" type="line" smooth="yes"/>
      <point x="445" y="938"/>
      <point x="398" y="950"/>
      <point x="340" y="950" type="curve" smooth="yes"/>
      <point x="282" y="950"/>
      <point x="235" y="938"/>
      <point x="235" y="924" type="curve" smooth="yes"/>
      <point x="235" y="782" type="line" smooth="yes"/>
      <point x="235" y="768"/>
      <point x="282" y="756"/>
      <point x="340" y="756" type="curve" smooth="yes"/>
      <point x="398" y="756"/>
      <point x="445" y="768"/>
      <point x="445" y="782" type="curve" smooth="yes"/>
    </contour>
  </outline>
</glyph>
<glyph name="k" format="1">
  <advance width="731"/>
  <unicode hex="006B"/>
  <outline>
    <contour>
      <point x="0" y="20" type="line" smooth="yes"/>
      <point x="0" y="6"/>
      <point x="47" y="-6"/>
      <point x="105" y="-6" type="curve" smooth="yes"/>
      <point x="163" y="-6"/>
      <point x="210" y="6"/>
      <point x="210" y="20" type="curve" smooth="yes"/>
      <point x="210" y="194" type="line"/>
      <point x="244" y="222" type="line"/>
      <point x="438" y="-13" type="line" smooth="yes"/>
      <point x="447" y="-24"/>
      <point x="489" y="-5"/>
      <point x="532" y="30" type="curve" smooth="yes"/>
      <point x="574" y="65"/>
      <point x="601" y="103"/>
      <point x="592" y="114" type="curve" smooth="yes"/>
      <point x="397" y="349" type="line"/>
      <point x="592" y="510" type="line" smooth="yes"/>
      <point x="599" y="516"/>
      <point x="595" y="536"/>
      <point x="578" y="563" type="curve" smooth="yes"/>
      <point x="562" y="590"/>
      <point x="539" y="618"/>
      <point x="515" y="639" type="curve" smooth="yes"/>
      <point x="491" y="660"/>
      <point x="473" y="669"/>
      <point x="466" y="662" type="curve"/>
      <point x="210" y="451" type="line"/>
      <point x="210" y="980" type="line" smooth="yes"/>
      <point x="210" y="994"/>
      <point x="163" y="1006"/>
      <point x="105" y="1006" type="curve" smooth="yes"/>
      <point x="47" y="1006"/>
      <point x="0" y="994"/>
      <point x="0" y="980" type="curve" smooth="yes"/>
    </contour>
  </outline>
</glyph>
<glyph name="l" format="1">
  <advance width="345"/>
  <unicode hex="006C"/>
  <outline>
    <contour>
      <point x="210" y="980" type="line" smooth="yes"/>
      <point x="210" y="994"/>
      <point x="163" y="1006"/>
      <point x="105" y="1006" type="curve" smooth="yes"/>
      <point x="47" y="1006"/>
      <point x="0" y="994"/>
      <point x="0" y="980" type="curve" smooth="yes"/>
      <point x="0" y="20" type="line" smooth="yes"/>
      <point x="0" y="6"/>
      <point x="47" y="-6"/>
      <point x="105" y="-6" type="curve" smooth="yes"/>
      <point x="163" y="-6"/>
      <point x="210" y="6"/>
      <point x="210" y="20" type="curve" smooth="yes"/>
    </contour>
  </outline>
</glyph>
<glyph name="m" format="1">
  <advance width="1069"/>
  <unicode hex="006D"/>
  <outline>
    <contour>
      <point x="0" y="20" type="line" smooth="yes"/>
      <point x="0" y="6"/>
      <point x="47" y="-6"/>
      <point x="105" y="-6" type="curve" smooth="yes"/>
      <point x="163" y="-6"/>
      <point x="210" y="6"/>
      <point x="210" y="20" type="curve" smooth="yes"/>
      <point x="210" y="455" type="line"/>
      <point x="210" y="455"/>
      <point x="249" y="514"/>
      <point x="297" y="514" type="curve" smooth="yes"/>
      <point x="333" y="514"/>
      <point x="362" y="487"/>
      <point x="362" y="455" type="curve" smooth="yes"/>
      <point x="362" y="20" type="line" smooth="yes"/>
      <point x="362" y="6"/>
      <point x="409" y="-6"/>
      <point x="467" y="-6" type="curve" smooth="yes"/>
      <point x="525" y="-6"/>
      <point x="572" y="6"/>
      <point x="572" y="20" type="curve" smooth="yes"/>
      <point x="572" y="455" type="line"/>
      <point x="572" y="455"/>
      <point x="611" y="514"/>
      <point x="659" y="514" type="curve" smooth="yes"/>
      <point x="695" y="514"/>
      <point x="724" y="487"/>
      <point x="724" y="455" type="curve" smooth="yes"/>
      <point x="724" y="20" type="line" smooth="yes"/>
      <point x="724" y="6"/>
      <point x="771" y="-6"/>
      <point x="829" y="-6" type="curve" smooth="yes"/>
      <point x="887" y="-6"/>
      <point x="934" y="6"/>
      <point x="934" y="20" type="curve" smooth="yes"/>
      <point x="934" y="455" type="line" smooth="yes"/>
      <point x="934" y="563"/>
      <point x="837" y="650"/>
      <point x="717" y="650" type="curve" smooth="yes"/>
      <point x="645" y="650"/>
      <point x="581" y="608"/>
      <point x="537" y="561" type="curve"/>
      <point x="499" y="615"/>
      <point x="432" y="650"/>
      <point x="355" y="650" type="curve" smooth="yes"/>
      <point x="301" y="650"/>
      <point x="250" y="626"/>
      <point x="210" y="593" type="curve"/>
      <point x="210" y="630" type="line" smooth="yes"/>
      <point x="210" y="644"/>
      <point x="163" y="656"/>
      <point x="105" y="656" type="curve" smooth="yes"/>
      <point x="47" y="656"/>
      <point x="0" y="644"/>
      <point x="0" y="630" type="curve" smooth="yes"/>
    </contour>
  </outline>
</glyph>
<glyph name="n" format="1">
  <advance width="707"/>
  <unicode hex="006E"/>
  <outline>
    <contour>
      <point x="0" y="20" type="line" smooth="yes"/>
      <point x="0" y="6"/>
      <point x="47" y="-6"/>
      <point x="105" y="-6" type="curve" smooth="yes"/>
      <point x="163" y="-6"/>
      <point x="210" y="6"/>
      <point x="210" y="20" type="curve" smooth="yes"/>
      <point x="210" y="455" type="line"/>
      <point x="210" y="455"/>
      <point x="249" y="514"/>
      <point x="297" y="514" type="curve" smooth="yes"/>
      <point x="333" y="514"/>
      <point x="362" y="487"/>
      <point x="362" y="455" type="curve" smooth="yes"/>
      <point x="362" y="20" type="line" smooth="yes"/>
      <point x="362" y="6"/>
      <point x="409" y="-6"/>
      <point x="467" y="-6" type="curve" smooth="yes"/>
      <point x="525" y="-6"/>
      <point x="572" y="6"/>
      <point x="572" y="20" type="curve" smooth="yes"/>
      <point x="572" y="455" type="line" smooth="yes"/>
      <point x="572" y="563"/>
      <point x="475" y="650"/>
      <point x="355" y="650" type="curve" smooth="yes"/>
      <point x="301" y="650"/>
      <point x="250" y="626"/>
      <point x="210" y="593" type="curve"/>
      <point x="210" y="630" type="line" smooth="yes"/>
      <point x="210" y="644"/>
      <point x="163" y="656"/>
      <point x="105" y="656" type="curve" smooth="yes"/>
      <point x="47" y="656"/>
      <point x="0" y="644"/>
      <point x="0" y="630" type="curve" smooth="yes"/>
    </contour>
  </outline>
</glyph>
<glyph name="o" format="1">
  <advance width="785"/>
  <unicode hex="006F"/>
  <outline>
    <contour>
      <point x="0" y="325" type="curve" smooth="yes"/>
      <point x="0" y="142"/>
      <point x="146" y="-6"/>
      <point x="325" y="-6" type="curve" smooth="yes"/>
      <point x="504" y="-6"/>
      <point x="650" y="142"/>
      <point x="650" y="325" type="curve" smooth="yes"/>
      <point x="650" y="508"/>
      <point x="504" y="656"/>
      <point x="325" y="656" type="curve" smooth="yes"/>
      <point x="146" y="656"/>
      <point x="0" y="508"/>
    </contour>
    <contour>
      <point x="213" y="325" type="curve" smooth="yes"/>
      <point x="213" y="400"/>
      <point x="263" y="462"/>
      <point x="325" y="462" type="curve" smooth="yes"/>
      <point x="387" y="462"/>
      <point x="437" y="400"/>
      <point x="437" y="325" type="curve" smooth="yes"/>
      <point x="437" y="250"/>
      <point x="387" y="188"/>
      <point x="325" y="188" type="curve" smooth="yes"/>
      <point x="263" y="188"/>
      <point x="213" y="250"/>
    </contour>
  </outline>
</glyph>
<glyph name="r" format="1">
  <advance width="584"/>
  <unicode hex="0072"/>
  <outline>
    <contour>
      <point x="0" y="20" type="line" smooth="yes"/>
      <point x="0" y="6"/>
      <point x="47" y="-6"/>
      <point x="105" y="-6" type="curve" smooth="yes"/>
      <point x="163" y="-6"/>
      <point x="210" y="6"/>
      <point x="210" y="20" type="curve" smooth="yes"/>
      <point x="210" y="345" type="line" smooth="yes"/>
      <point x="210" y="406"/>
      <point x="304" y="456"/>
      <point x="420" y="456" type="curve" smooth="yes"/>
      <point x="436" y="456"/>
      <point x="448" y="499"/>
      <point x="448" y="553" type="curve" smooth="yes"/>
      <point x="448" y="607"/>
      <point x="436" y="650"/>
      <point x="420" y="650" type="curve" smooth="yes"/>
      <point x="304" y="650"/>
      <point x="210" y="601"/>
      <point x="210" y="540" type="curve"/>
      <point x="210" y="630" type="line" smooth="yes"/>
      <point x="210" y="644"/>
      <point x="163" y="656"/>
      <point x="105" y="656" type="curve" smooth="yes"/>
      <point x="47" y="656"/>
      <point x="0" y="644"/>
      <point x="0" y="630" type="curve" smooth="yes"/>
    </contour>
  </outline>
</glyph>
<glyph name="s" format="1">
  <advance width="647"/>
  <unicode hex="0073"/>
  <outline>
    <contour>
      <point x="509" y="208" type="curve" smooth="yes"/>
      <point x="509" y="326"/>
      <point x="388" y="381"/>
      <point x="276" y="418" type="curve" smooth="yes"/>
      <point x="266" y="421"/>
      <point x="220" y="431"/>
      <point x="219" y="442" type="curve"/>
      <point x="219" y="453"/>
      <point x="230" y="462"/>
      <point x="243" y="462" type="curve" smooth="yes"/>
      <point x="309" y="462"/>
      <point x="357" y="427"/>
      <point x="412" y="397" type="curve" smooth="yes"/>
      <point x="425" y="390"/>
      <point x="457" y="422"/>
      <point x="483" y="470" type="curve" smooth="yes"/>
      <point x="509" y="517"/>
      <point x="520" y="561"/>
      <point x="506" y="569" type="curve" smooth="yes"/>
      <point x="422" y="615"/>
      <point x="343" y="656"/>
      <point x="243" y="656" type="curve" smooth="yes"/>
      <point x="113" y="656"/>
      <point x="8" y="560"/>
      <point x="8" y="442" type="curve" smooth="yes"/>
      <point x="8" y="324"/>
      <point x="103" y="269"/>
      <point x="216" y="232" type="curve" smooth="yes"/>
      <point x="226" y="229"/>
      <point x="297" y="219"/>
      <point x="297" y="208" type="curve" smooth="yes"/>
      <point x="297" y="197"/>
      <point x="269" y="188"/>
      <point x="233" y="188" type="curve" smooth="yes"/>
      <point x="178" y="188"/>
      <point x="140" y="230"/>
      <point x="95" y="253" type="curve" smooth="yes"/>
      <point x="82" y="260"/>
      <point x="51" y="226"/>
      <point x="26" y="178" type="curve" smooth="yes"/>
      <point x="2" y="130"/>
      <point x="-7" y="85"/>
      <point x="6" y="78" type="curve" smooth="yes"/>
      <point x="80" y="41"/>
      <point x="145" y="-6"/>
      <point x="233" y="-6" type="curve" smooth="yes"/>
      <point x="386" y="-6"/>
      <point x="509" y="90"/>
    </contour>
  </outline>
</glyph>
<glyph name="t" format="1">
  <advance width="550"/>
  <unicode hex="0074"/>
  <outline>
    <contour>
      <point x="86" y="650" type="line"/>
      <point x="28" y="650" type="line" smooth="yes"/>
      <point x="13" y="650"/>
      <point x="0" y="607"/>
      <point x="0" y="553" type="curve" smooth="yes"/>
      <point x="0" y="499"/>
      <point x="13" y="456"/>
      <point x="28" y="456" type="curve" smooth="yes"/>
      <point x="86" y="456" type="line"/>
      <point x="86" y="218" type="line" smooth="yes"/>
      <point x="86" y="144"/>
      <point x="121" y="81"/>
      <point x="186" y="37" type="curve" smooth="yes"/>
      <point x="251" y="-7"/>
      <point x="327" y="-18"/>
      <point x="403" y="5" type="curve"/>
      <point x="418" y="11"/>
      <point x="415" y="56"/>
      <point x="397" y="107" type="curve" smooth="yes"/>
      <point x="379" y="158"/>
      <point x="353" y="195"/>
      <point x="338" y="190" type="curve" smooth="yes"/>
      <point x="328" y="187"/>
      <point x="318" y="188"/>
      <point x="309" y="194" type="curve"/>
      <point x="301" y="200"/>
      <point x="296" y="209"/>
      <point x="296" y="218" type="curve" smooth="yes"/>
      <point x="296" y="456" type="line"/>
      <point x="386" y="456" type="line" smooth="yes"/>
      <point x="402" y="456"/>
      <point x="414" y="499"/>
      <point x="414" y="553" type="curve" smooth="yes"/>
      <point x="414" y="607"/>
      <point x="402" y="650"/>
      <point x="386" y="650" type="curve" smooth="yes"/>
      <point x="296" y="650" type="line"/>
      <point x="296" y="825" type="line" smooth="yes"/>
      <point x="296" y="839"/>
      <point x="249" y="851"/>
      <point x="191" y="851" type="curve" smooth="yes"/>
      <point x="133" y="851"/>
      <point x="86" y="839"/>
      <point x="86" y="825" type="curve" smooth="yes"/>
    </contour>
  </outline>
</glyph>
<glyph name="u" format="1">
  <advance width="707"/>
  <unicode hex="0075"/>
  <outline>
    <contour>
      <point x="572" y="630" type="line" smooth="yes"/>
      <point x="572" y="644"/>
      <point x="525" y="656"/>
      <point x="467" y="656" type="curve" smooth="yes"/>
      <point x="409" y="656"/>
      <point x="362" y="644"/>
      <point x="362" y="630" type="curve" smooth="yes"/>
      <point x="362" y="195" type="line"/>
      <point x="362" y="195"/>
      <point x="323" y="137"/>
      <point x="275" y="137" type="curve" smooth="yes"/>
      <point x="239" y="137"/>
      <point x="210" y="163"/>
      <point x="210" y="195" type="curve" smooth="yes"/>
      <point x="210" y="630" type="line" smooth="yes"/>
      <point x="210" y="644"/>
      <point x="163" y="656"/>
      <point x="105" y="656" type="curve" smooth="yes"/>
      <point x="47" y="656"/>
      <point x="0" y="644"/>
      <point x="0" y="630" type="curve" smooth="yes"/>
      <point x="0" y="195" type="line" smooth="yes"/>
      <point x="0" y="87"/>
      <point x="97" y="0"/>
      <point x="217" y="0" type="curve" smooth="yes"/>
      <point x="271" y="0"/>
      <point x="322" y="24"/>
      <point x="362" y="57" type="curve"/>
      <point x="362" y="20" type="line" smooth="yes"/>
      <point x="362" y="6"/>
      <point x="409" y="-6"/>
      <point x="467" y="-6" type="curve" smooth="yes"/>
      <point x="525" y="-6"/>
      <point x="572" y="6"/>
      <point x="572" y="20" type="curve" smooth="yes"/>
    </contour>
  </outline>
</glyph>
<glyph name="v" format="1">
  <advance width="750"/>
  <unicode hex="0076"/>
  <outline>
    <contour>
      <point x="189" y="18" type="line"/>
      <point x="198" y="4"/>
      <point x="245" y="-6"/>
      <point x="302" y="-6" type="curve" smooth="yes"/>
      <point x="359" y="-6"/>
      <point x="407" y="4"/>
      <point x="416" y="18" type="curve"/>
      <point x="615" y="615" type="line" smooth="yes"/>
      <point x="619" y="629"/>
      <point x="577" y="647"/>
      <point x="520" y="654" type="curve" smooth="yes"/>
      <point x="463" y="661"/>
      <point x="413" y="656"/>
      <point x="408" y="642" type="curve" smooth="yes"/>
      <point x="305" y="303" type="line"/>
      <point x="207" y="641" type="line"/>
      <point x="202" y="655"/>
      <point x="152" y="661"/>
      <point x="95" y="654" type="curve" smooth="yes"/>
      <point x="38" y="647"/>
      <point x="-4" y="630"/>
      <point x="0" y="616" type="curve" smooth="yes"/>
    </contour>
  </outline>
</glyph>
<glyph name="w" format="1">
  <advance width="1080"/>
  <unicode hex="0077"/>
  <outline>
    <contour>
      <point x="169" y="19" type="line"/>
      <point x="177" y="5"/>
      <point x="225" y="-6"/>
      <point x="283" y="-6" type="curve" smooth="yes"/>
      <point x="341" y="-6"/>
      <point x="389" y="5"/>
      <point x="398" y="19" type="curve"/>
      <point x="472" y="311" type="line"/>
      <point x="547" y="19" type="line"/>
      <point x="556" y="5"/>
      <point x="604" y="-6"/>
      <point x="662" y="-6" type="curve" smooth="yes"/>
      <point x="720" y="-6"/>
      <point x="768" y="5"/>
      <point x="776" y="19" type="curve"/>
      <point x="945" y="617" type="line" smooth="yes"/>
      <point x="949" y="631"/>
      <point x="906" y="648"/>
      <point x="849" y="654" type="curve" smooth="yes"/>
      <point x="791" y="661"/>
      <point x="742" y="655"/>
      <point x="738" y="640" type="curve" smooth="yes"/>
      <point x="661" y="342" type="line"/>
      <point x="587" y="631" type="line"/>
      <point x="578" y="645"/>
      <point x="530" y="656"/>
      <point x="472" y="656" type="curve" smooth="yes"/>
      <point x="415" y="656"/>
      <point x="367" y="645"/>
      <point x="358" y="631" type="curve"/>
      <point x="284" y="342" type="line"/>
      <point x="207" y="640" type="line" smooth="yes"/>
      <point x="203" y="655"/>
      <point x="154" y="661"/>
      <point x="96" y="654" type="curve" smooth="yes"/>
      <point x="39" y="648"/>
      <point x="-4" y="631"/>
      <point x="0" y="617" type="curve" smooth="yes"/>
    </contour>
  </outline>
</glyph>
<glyph name="x" format="1">
  <advance width="750"/>
  <unicode hex="0078"/>
  <outline>
    <contour>
      <point x="307" y="165" type="line"/>
      <point x="406" y="16" type="line" smooth="yes"/>
      <point x="415" y="2"/>
      <point x="469" y="-8"/>
      <point x="526" y="-5" type="curve" smooth="yes"/>
      <point x="584" y="-3"/>
      <point x="622" y="10"/>
      <point x="613" y="25" type="curve" smooth="yes"/>
      <point x="414" y="325" type="line"/>
      <point x="613" y="625" type="line" smooth="yes"/>
      <point x="619" y="635"/>
      <point x="606" y="644"/>
      <point x="576" y="650" type="curve" smooth="yes"/>
      <point x="546" y="656"/>
      <point x="509" y="658"/>
      <point x="472" y="654" type="curve" smooth="yes"/>
      <point x="436" y="651"/>
      <point x="412" y="643"/>
      <point x="406" y="634" type="curve" smooth="yes"/>
      <point x="307" y="485" type="line"/>
      <point x="209" y="634" type="line" smooth="yes"/>
      <point x="199" y="648"/>
      <point x="145" y="658"/>
      <point x="88" y="655" type="curve" smooth="yes"/>
      <point x="31" y="653"/>
      <point x="-8" y="640"/>
      <point x="1" y="625" type="curve" smooth="yes"/>
      <point x="201" y="325" type="line"/>
      <point x="1" y="25" type="line" smooth="yes"/>
      <point x="-8" y="10"/>
      <point x="31" y="-3"/>
      <point x="88" y="-5" type="curve" smooth="yes"/>
      <point x="145" y="-8"/>
      <point x="199" y="2"/>
      <point x="209" y="16" type="curve" smooth="yes"/>
    </contour>
  </outline>
</glyph>
<glyph name="y" format="1">
  <advance width="742"/>
  <unicode hex="0079"/>
  <outline>
    <contour>
      <point x="58" y="-254" type="line" smooth="yes"/>
      <point x="53" y="-268"/>
      <point x="94" y="-289"/>
      <point x="149" y="-301" type="curve" smooth="yes"/>
      <point x="205" y="-313"/>
      <point x="254" y="-312"/>
      <point x="260" y="-298" type="curve" smooth="yes"/>
      <point x="606" y="604" type="line" smooth="yes"/>
      <point x="612" y="618"/>
      <point x="571" y="639"/>
      <point x="515" y="651" type="curve" smooth="yes"/>
      <point x="459" y="663"/>
      <point x="410" y="662"/>
      <point x="405" y="648" type="curve" smooth="yes"/>
      <point x="303" y="385" type="line"/>
      <point x="202" y="648" type="line" smooth="yes"/>
      <point x="197" y="662"/>
      <point x="147" y="663"/>
      <point x="92" y="651" type="curve" smooth="yes"/>
      <point x="36" y="639"/>
      <point x="-5" y="618"/>
      <point x="0" y="604" type="curve" smooth="yes"/>
      <point x="194" y="100" type="line"/>
    </contour>
  </outline>
</glyph>
<glyph name="braceleft" format="1">
  <advance width="587"/>
  <unicode hex="007B"/>
  <outline>
    <contour>
      <point x="189" y="500" type="curve"/>
      <point x="244" y="528"/>
      <point x="287" y="578"/>
      <point x="287" y="650" type="curve" smooth="yes"/>
      <point x="287" y="807" type="line" smooth="yes"/>
      <point x="287" y="862"/>
      <point x="331" y="906"/>
      <point x="385" y="906" type="curve" smooth="yes"/>
      <point x="422" y="906"/>
      <point x="451" y="949"/>
      <point x="451" y="1003" type="curve" smooth="yes"/>
      <point x="451" y="1057"/>
      <point x="422" y="1100"/>
      <point x="385" y="1100" type="curve" smooth="yes"/>
      <point x="224" y="1100"/>
      <point x="119" y="955"/>
      <point x="119" y="807" type="curve" smooth="yes"/>
      <point x="119" y="650" type="line" smooth="yes"/>
      <point x="119" y="621"/>
      <point x="95" y="597"/>
      <point x="66" y="597" type="curve" smooth="yes"/>
      <point x="29" y="597"/>
      <point x="0" y="554"/>
      <point x="0" y="500" type="curve" smooth="yes"/>
      <point x="0" y="446"/>
      <point x="29" y="403"/>
      <point x="66" y="403" type="curve" smooth="yes"/>
      <point x="95" y="403"/>
      <point x="119" y="379"/>
      <point x="119" y="350" type="curve" smooth="yes"/>
      <point x="119" y="193" type="line" smooth="yes"/>
      <point x="119" y="45"/>
      <point x="224" y="-100"/>
      <point x="385" y="-100" type="curve" smooth="yes"/>
      <point x="422" y="-100"/>
      <point x="451" y="-57"/>
      <point x="451" y="-3" type="curve" smooth="yes"/>
      <point x="451" y="51"/>
      <point x="422" y="94"/>
      <point x="385" y="94" type="curve" smooth="yes"/>
      <point x="331" y="94"/>
      <point x="287" y="138"/>
      <point x="287" y="193" type="curve" smooth="yes"/>
      <point x="287" y="350" type="line" smooth="yes"/>
      <point x="287" y="422"/>
      <point x="244" y="472"/>
    </contour>
  </outline>
</glyph>
<glyph name="bar" format="1">
  <advance width="345"/>
  <unicode hex="007C"/>
  <outline>
    <contour>
      <point x="210" y="1045" type="line" smooth="yes"/>
      <point x="210" y="1079"/>
      <point x="163" y="1106"/>
      <point x="105" y="1106" type="curve" smooth="yes"/>
      <point x="47" y="1106"/>
      <point x="0" y="1079"/>
      <point x="0" y="1045" type="curve" smooth="yes"/>
      <point x="0" y="-45" type="line" smooth="yes"/>
      <point x="0" y="-79"/>
      <point x="47" y="-106"/>
      <point x="105" y="-106" type="curve" smooth="yes"/>
      <point x="163" y="-106"/>
      <point x="210" y="-79"/>
      <point x="210" y="-45" type="curve" smooth="yes"/>
    </contour>
  </outline>
</glyph>
<glyph name="braceright" format="1">
  <advance width="587"/>
  <unicode hex="007D"/>
  <outline>
    <contour>
      <point x="262" y="500" type="curve"/>
      <point x="207" y="472"/>
      <point x="164" y="422"/>
      <point x="164" y="350" type="curve" smooth="yes"/>
      <point x="164" y="193" type="line" smooth="yes"/>
      <point x="164" y="138"/>
      <point x="120" y="94"/>
      <point x="66" y="94" type="curve" smooth="yes"/>
      <point x="29" y="94"/>
      <point x="0" y="51"/>
      <point x="0" y="-3" type="curve" smooth="yes"/>
      <point x="0" y="-57"/>
      <point x="29" y="-100"/>
      <point x="66" y="-100" type="curve" smooth="yes"/>
      <point x="227" y="-100"/>
      <point x="332" y="45"/>
      <point x="332" y="193" type="curve" smooth="yes"/>
      <point x="332" y="350" type="line" smooth="yes"/>
      <point x="332" y="379"/>
      <point x="356" y="403"/>
      <point x="385" y="403" type="curve" smooth="yes"/>
      <point x="422" y="403"/>
      <point x="451" y="446"/>
      <point x="451" y="500" type="curve" smooth="yes"/>
      <point x="451" y="554"/>
      <point x="422" y="597"/>
      <point x="385" y="597" type="curve" smooth="yes"/>
      <point x="356" y="597"/>
      <point x="332" y="621"/>
      <point x="332" y="650" type="curve" smooth="yes"/>
      <point x="332" y="807" type="line" smooth="yes"/>
      <point x="332" y="955"/>
      <point x="227" y="1100"/>
      <point x="66" y="1100" type="curve" smooth="yes"/>
      <point x="29" y="1100"/>
      <point x="0" y="1057"/>
      <point x="0" y="1003" type="curve" smooth="yes"/>
      <point x="0" y="949"/>
      <point x="29" y="906"/>
      <point x="66" y="906" type="curve" smooth="yes"/>
      <point x="120" y="906"/>
      <point x="164" y="862"/>
      <point x="164" y="807" type="curve" smooth="yes"/>
      <point x="164" y="650" type="line" smooth="yes"/>
      <point x="164" y="578"/>
      <point x="207" y="528"/>
    </contour>
  </outline>
</glyph>
<glyph name="asciitilde" format="1">
  <advance width="695"/>
  <unicode hex="007E"/>
  <outline>
    <contour>
      <point x="153" y="443" type="curve" smooth="yes"/>
      <point x="174" y="481"/>
      <point x="222" y="434"/>
      <point x="234" y="427" type="curve" smooth="yes"/>
      <point x="338" y="370"/>
      <point x="492" y="371"/>
      <point x="559" y="493" type="curve" smooth="yes"/>
      <point x="563" y="500"/>
      <point x="553" y="514"/>
      <point x="530" y="531" type="curve" smooth="yes"/>
      <point x="508" y="548"/>
      <point x="481" y="564"/>
      <point x="454" y="573" type="curve" smooth="yes"/>
      <point x="428" y="583"/>
      <point x="411" y="584"/>
      <point x="407" y="577" type="curve" smooth="yes"/>
      <point x="386" y="539"/>
      <point x="338" y="586"/>
      <point x="325" y="593" type="curve" smooth="yes"/>
      <point x="222" y="650"/>
      <point x="68" y="649"/>
      <point x="1" y="527" type="curve" smooth="yes"/>
      <point x="-5" y="516"/>
      <point x="24" y="488"/>
      <point x="66" y="465" type="curve" smooth="yes"/>
      <point x="108" y="442"/>
      <point x="147" y="432"/>
    </contour>
  </outline>
</glyph>
<glyph name="exclamdown" format="1">
  <advance width="360"/>
  <unicode hex="00A1"/>
  <outline>
    <contour>
      <point x="225" y="822" type="curve" smooth="yes"/>
      <point x="225" y="978" type="line" smooth="yes"/>
      <point x="225" y="993"/>
      <point x="174" y="1006"/>
      <point x="112" y="1006" type="curve" smooth="yes"/>
      <point x="50" y="1006"/>
      <point x="0" y="993"/>
      <point x="0" y="978" type="curve" smooth="yes"/>
      <point x="0" y="822" type="line" smooth="yes"/>
      <point x="0" y="807"/>
      <point x="50" y="794"/>
      <point x="112" y="794" type="curve" smooth="yes"/>
      <point x="174" y="794"/>
      <point x="225" y="807"/>
    </contour>
    <contour>
      <point x="225" y="22" type="curve" smooth="yes"/>
      <point x="210" y="640" type="line" smooth="yes"/>
      <point x="210" y="653"/>
      <point x="166" y="664"/>
      <point x="112" y="664" type="curve" smooth="yes"/>
      <point x="58" y="664"/>
      <point x="15" y="653"/>
      <point x="15" y="640" type="curve" smooth="yes"/>
      <point x="0" y="22" type="line" smooth="yes"/>
      <point x="0" y="7"/>
      <point x="50" y="-6"/>
      <point x="112" y="-6" type="curve" smooth="yes"/>
      <point x="174" y="-6"/>
      <point x="225" y="7"/>
    </contour>
  </outline>
</glyph>
<glyph name="dieresis" format="1">
  <advance width="729"/>
  <unicode hex="00A8"/>
  <outline>
    <contour>
      <point x="210" y="945" type="line" smooth="yes"/>
      <point x="210" y="979"/>
      <point x="163" y="1006"/>
      <point x="105" y="1006" type="curve" smooth="yes"/>
      <point x="47" y="1006"/>
      <point x="0" y="979"/>
      <point x="0" y="945" type="curve" smooth="yes"/>
      <point x="0" y="872" type="line" smooth="yes"/>
      <point x="0" y="839"/>
      <point x="47" y="812"/>
      <point x="105" y="812" type="curve" smooth="yes"/>
      <point x="163" y="812"/>
      <point x="210" y="839"/>
      <point x="210" y="872" type="curve" smooth="yes"/>
    </contour>
    <contour>
      <point x="593" y="945" type="line" smooth="yes"/>
      <point x="593" y="979"/>
      <point x="546" y="1006"/>
      <point x="488" y="1006" type="curve" smooth="yes"/>
      <point x="430" y="1006"/>
      <point x="383" y="979"/>
      <point x="383" y="945" type="curve" smooth="yes"/>
      <point x="383" y="872" type="line" smooth="yes"/>
      <point x="383" y="839"/>
      <point x="430" y="812"/>
      <point x="488" y="812" type="curve" smooth="yes"/>
      <point x="546" y="812"/>
      <point x="593" y="839"/>
      <point x="593" y="872" type="curve" smooth="yes"/>
    </contour>
  </outline>
</glyph>
<glyph name="macron" format="1">
  <advance width="635"/>
  <unicode hex="00AF"/>
  <outline>
    <contour>
      <point x="434" y="781" type="line" smooth="yes"/>
      <point x="471" y="781"/>
      <point x="500" y="824"/>
      <point x="500" y="878" type="curve" smooth="yes"/>
      <point x="500" y="932"/>
      <point x="471" y="975"/>
      <point x="434" y="975" type="curve" smooth="yes"/>
      <point x="66" y="975" type="line" smooth="yes"/>
      <point x="29" y="975"/>
      <point x="0" y="932"/>
      <point x="0" y="878" type="curve" smooth="yes"/>
      <point x="0" y="824"/>
      <point x="29" y="781"/>
      <point x="66" y="781" type="curve" smooth="yes"/>
    </contour>
  </outline>
</glyph>
<glyph name="acute" format="1">
  <advance width="427"/>
  <unicode hex="00B4"/>
  <outline>
    <contour>
      <point x="139" y="992" type="curve" smooth="yes"/>
      <point x="7" y="840" type="line" smooth="yes"/>
      <point x="-7" y="824"/>
      <point x="0" y="790"/>
      <point x="24" y="762" type="curve" smooth="yes"/>
      <point x="47" y="733"/>
      <point x="79" y="720"/>
      <point x="98" y="731" type="curve" smooth="yes"/>
      <point x="272" y="831" type="line" smooth="yes"/>
      <point x="293" y="843"/>
      <point x="297" y="871"/>
      <point x="285" y="906" type="curve" smooth="yes"/>
      <point x="272" y="941"/>
      <point x="246" y="973"/>
      <point x="214" y="991" type="curve" smooth="yes"/>
      <point x="182" y="1010"/>
      <point x="154" y="1011"/>
    </contour>
  </outline>
</glyph>
<glyph name="periodcentered" format="1">
  <advance width="366"/>
  <unicode hex="00B7"/>
  <outline>
    <contour>
      <point x="231" y="546" type="line" smooth="yes"/>
      <point x="231" y="583"/>
      <point x="179" y="613"/>
      <point x="116" y="613" type="curve" smooth="yes"/>
      <point x="52" y="613"/>
      <point x="0" y="583"/>
      <point x="0" y="546" type="curve" smooth="yes"/>
      <point x="0" y="454" type="line" smooth="yes"/>
      <point x="0" y="417"/>
      <point x="52" y="387"/>
      <point x="116" y="387" type="curve" smooth="yes"/>
      <point x="179" y="387"/>
      <point x="231" y="417"/>
      <point x="231" y="454" type="curve" smooth="yes"/>
    </contour>
  </outline>
</glyph>
<glyph name="Agrave" format="1">
  <advance width="993"/>
  <unicode hex="00C0"/>
  <outline>
    <contour>
      <point x="338" y="417" type="line"/>
      <point x="429" y="698" type="line"/>
      <point x="519" y="417" type="line"/>
    </contour>
    <contour>
      <point x="648" y="18" type="line" smooth="yes"/>
      <point x="652" y="4"/>
      <point x="703" y="-7"/>
      <point x="761" y="-6" type="curve" smooth="yes"/>
      <point x="819" y="-5"/>
      <point x="862" y="8"/>
      <point x="857" y="23" type="curve" smooth="yes"/>
      <point x="549" y="978" type="line" smooth="yes"/>
      <point x="544" y="994"/>
      <point x="492" y="1006"/>
      <point x="429" y="1006" type="curve" smooth="yes"/>
      <point x="365" y="1006"/>
      <point x="313" y="994"/>
      <point x="308" y="978" type="curve" smooth="yes"/>
      <point x="0" y="23" type="line"/>
      <point x="-4" y="8"/>
      <point x="39" y="-5"/>
      <point x="97" y="-6" type="curve" smooth="yes"/>
      <point x="154" y="-7"/>
      <point x="205" y="4"/>
      <point x="210" y="18" type="curve" smooth="yes"/>
      <point x="276" y="223" type="line"/>
      <point x="582" y="223" type="line"/>
    </contour>
    <contour>
      <point x="363" y="1349" type="line" smooth="yes"/>
      <point x="357" y="1356"/>
      <point x="338" y="1347"/>
      <point x="312" y="1324" type="curve" smooth="yes"/>
      <point x="287" y="1301"/>
      <point x="262" y="1271"/>
      <point x="244" y="1242" type="curve" smooth="yes"/>
      <point x="226" y="1212"/>
      <point x="221" y="1192"/>
      <point x="229" y="1187" type="curve" smooth="yes"/>
      <point x="405" y="1086" type="line" smooth="yes"/>
      <point x="413" y="1081"/>
      <point x="439" y="1100"/>
      <point x="463" y="1130" type="curve" smooth="yes"/>
      <point x="488" y="1159"/>
      <point x="502" y="1188"/>
      <point x="496" y="1196" type="curve"/>
    </contour>
  </outline>
</glyph>
<glyph name="Aacute" format="1">
  <advance width="993"/>
  <unicode hex="00C1"/>
  <outline>
    <contour>
      <point x="338" y="417" type="line"/>
      <point x="429" y="698" type="line"/>
      <point x="519" y="417" type="line"/>
    </contour>
    <contour>
      <point x="648" y="18" type="line" smooth="yes"/>
      <point x="652" y="4"/>
      <point x="703" y="-7"/>
      <point x="761" y="-6" type="curve" smooth="yes"/>
      <point x="819" y="-5"/>
      <point x="862" y="8"/>
      <point x="857" y="23" type="curve" smooth="yes"/>
      <point x="549" y="978" type="line" smooth="yes"/>
      <point x="544" y="994"/>
      <point x="492" y="1006"/>
      <point x="429" y="1006" type="curve" smooth="yes"/>
      <point x="365" y="1006"/>
      <point x="313" y="994"/>
      <point x="308" y="978" type="curve" smooth="yes"/>
      <point x="0" y="23" type="line"/>
      <point x="-4" y="8"/>
      <point x="39" y="-5"/>
      <point x="97" y="-6" type="curve" smooth="yes"/>
      <point x="154" y="-7"/>
      <point x="205" y="4"/>
      <point x="210" y="18" type="curve" smooth="yes"/>
      <point x="276" y="223" type="line"/>
      <point x="582" y="223" type="line"/>
    </contour>
    <contour>
      <point x="494" y="1349" type="curve"/>
      <point x="362" y="1196" type="line" smooth="yes"/>
      <point x="355" y="1188"/>
      <point x="370" y="1159"/>
      <point x="394" y="1130" type="curve" smooth="yes"/>
      <point x="419" y="1100"/>
      <point x="444" y="1081"/>
      <point x="453" y="1086" type="curve" smooth="yes"/>
      <point x="628" y="1187" type="line" smooth="yes"/>
      <point x="637" y="1192"/>
      <point x="631" y="1212"/>
      <point x="614" y="1242" type="curve" smooth="yes"/>
      <point x="596" y="1271"/>
      <point x="571" y="1301"/>
      <point x="545" y="1324" type="curve" smooth="yes"/>
      <point x="519" y="1347"/>
      <point x="501" y="1356"/>
    </contour>
  </outline>
</glyph>
<glyph name="Acircumflex" format="1">
  <advance width="993"/>
  <unicode hex="00C2"/>
  <outline>
    <contour>
      <point x="339" y="417" type="line"/>
      <point x="429" y="675" type="line"/>
      <point x="519" y="417" type="line"/>
    </contour>
    <contour>
      <point x="649" y="43" type="line" smooth="yes"/>
      <point x="661" y="10"/>
      <point x="716" y="-11"/>
      <point x="773" y="-5" type="curve" smooth="yes"/>
      <point x="830" y="2"/>
      <point x="867" y="34"/>
      <point x="855" y="67" type="curve" smooth="yes"/>
      <point x="547" y="950" type="line" smooth="yes"/>
      <point x="535" y="983"/>
      <point x="487" y="1006"/>
      <point x="429" y="1006" type="curve" smooth="yes"/>
      <point x="371" y="1006"/>
      <point x="322" y="983"/>
      <point x="310" y="950" type="curve" smooth="yes"/>
      <point x="2" y="67" type="line" smooth="yes"/>
      <point x="-9" y="34"/>
      <point x="27" y="2"/>
      <point x="84" y="-5" type="curve" smooth="yes"/>
      <point x="141" y="-11"/>
      <point x="196" y="10"/>
      <point x="208" y="43" type="curve" smooth="yes"/>
      <point x="271" y="223" type="line"/>
      <point x="587" y="223" type="line"/>
    </contour>
    <contour>
      <point x="212" y="1220" type="line" smooth="yes"/>
      <point x="203" y="1209"/>
      <point x="199" y="1194"/>
      <point x="204" y="1175" type="curve" smooth="yes"/>
      <point x="214" y="1133"/>
      <point x="261" y="1091"/>
      <point x="308" y="1081" type="curve" smooth="yes"/>
      <point x="335" y="1075"/>
      <point x="356" y="1081"/>
      <point x="367" y="1094" type="curve" smooth="yes"/>
      <point x="429" y="1164" type="line"/>
      <point x="490" y="1094" type="line" smooth="yes"/>
      <point x="502" y="1081"/>
      <point x="523" y="1075"/>
      <point x="549" y="1081" type="curve" smooth="yes"/>
      <point x="597" y="1091"/>
      <point x="644" y="1133"/>
      <point x="654" y="1175" type="curve" smooth="yes"/>
      <point x="658" y="1194"/>
      <point x="655" y="1209"/>
      <point x="646" y="1220" type="curve" smooth="yes"/>
      <point x="536" y="1344" type="line" smooth="yes"/>
      <point x="516" y="1367"/>
      <point x="476" y="1383"/>
      <point x="429" y="1383" type="curve" smooth="yes"/>
      <point x="382" y="1383"/>
      <point x="341" y="1367"/>
      <point x="321" y="1344" type="curve" smooth="yes"/>
    </contour>
  </outline>
</glyph>
<glyph name="Atilde" format="1">
  <advance width="993"/>
  <unicode hex="00C3"/>
  <outline>
    <contour>
      <point x="338" y="417" type="line"/>
      <point x="429" y="698" type="line"/>
      <point x="519" y="417" type="line"/>
    </contour>
    <contour>
      <point x="648" y="18" type="line" smooth="yes"/>
      <point x="652" y="4"/>
      <point x="703" y="-7"/>
      <point x="761" y="-6" type="curve" smooth="yes"/>
      <point x="819" y="-5"/>
      <point x="862" y="8"/>
      <point x="857" y="23" type="curve" smooth="yes"/>
      <point x="549" y="978" type="line" smooth="yes"/>
      <point x="544" y="994"/>
      <point x="492" y="1006"/>
      <point x="429" y="1006" type="curve" smooth="yes"/>
      <point x="365" y="1006"/>
      <point x="313" y="994"/>
      <point x="308" y="978" type="curve" smooth="yes"/>
      <point x="0" y="23" type="line"/>
      <point x="-4" y="8"/>
      <point x="39" y="-5"/>
      <point x="97" y="-6" type="curve" smooth="yes"/>
      <point x="154" y="-7"/>
      <point x="205" y="4"/>
      <point x="210" y="18" type="curve" smooth="yes"/>
      <point x="276" y="223" type="line"/>
      <point x="582" y="223" type="line"/>
    </contour>
    <contour>
      <point x="327" y="1139" type="curve" smooth="yes"/>
      <point x="344" y="1170"/>
      <point x="382" y="1132"/>
      <point x="392" y="1126" type="curve" smooth="yes"/>
      <point x="475" y="1081"/>
      <point x="598" y="1081"/>
      <point x="652" y="1179" type="curve" smooth="yes"/>
      <point x="655" y="1185"/>
      <point x="647" y="1196"/>
      <point x="629" y="1210" type="curve" smooth="yes"/>
      <point x="611" y="1223"/>
      <point x="589" y="1236"/>
      <point x="568" y="1243" type="curve" smooth="yes"/>
      <point x="547" y="1251"/>
      <point x="533" y="1252"/>
      <point x="530" y="1246" type="curve"/>
      <point x="513" y="1216"/>
      <point x="475" y="1254"/>
      <point x="465" y="1259" type="curve" smooth="yes"/>
      <point x="382" y="1304"/>
      <point x="259" y="1304"/>
      <point x="205" y="1206" type="curve" smooth="yes"/>
      <point x="200" y="1197"/>
      <point x="224" y="1175"/>
      <point x="258" y="1157" type="curve" smooth="yes"/>
      <point x="291" y="1138"/>
      <point x="322" y="1130"/>
    </contour>
  </outline>
</glyph>
<glyph name="Aring" format="1">
  <advance width="993"/>
  <unicode hex="00C5"/>
  <outline>
    <contour>
      <point x="338" y="417" type="line"/>
      <point x="429" y="698" type="line"/>
      <point x="519" y="417" type="line"/>
    </contour>
    <contour>
      <point x="648" y="18" type="line" smooth="yes"/>
      <point x="652" y="4"/>
      <point x="703" y="-7"/>
      <point x="761" y="-6" type="curve" smooth="yes"/>
      <point x="819" y="-5"/>
      <point x="862" y="8"/>
      <point x="857" y="23" type="curve" smooth="yes"/>
      <point x="549" y="978" type="line" smooth="yes"/>
      <point x="544" y="994"/>
      <point x="492" y="1006"/>
      <point x="429" y="1006" type="curve" smooth="yes"/>
      <point x="365" y="1006"/>
      <point x="313" y="994"/>
      <point x="308" y="978" type="curve" smooth="yes"/>
      <point x="0" y="23" type="line"/>
      <point x="-4" y="8"/>
      <point x="39" y="-5"/>
      <point x="97" y="-6" type="curve" smooth="yes"/>
      <point x="154" y="-7"/>
      <point x="205" y="4"/>
      <point x="210" y="18" type="curve" smooth="yes"/>
      <point x="276" y="223" type="line"/>
      <point x="582" y="223" type="line"/>
    </contour>
    <contour>
      <point x="337" y="1314" type="curve" smooth="yes"/>
      <point x="337" y="1362"/>
      <point x="378" y="1401"/>
      <point x="429" y="1401" type="curve" smooth="yes"/>
      <point x="479" y="1401"/>
      <point x="520" y="1362"/>
      <point x="520" y="1314" type="curve" smooth="yes"/>
      <point x="520" y="1266"/>
      <point x="479" y="1227"/>
      <point x="429" y="1227" type="curve" smooth="yes"/>
      <point x="378" y="1227"/>
      <point x="337" y="1266"/>
    </contour>
    <contour>
      <point x="177" y="1314" type="curve" smooth="yes"/>
      <point x="177" y="1185"/>
      <point x="289" y="1081"/>
      <point x="429" y="1081" type="curve" smooth="yes"/>
      <point x="568" y="1081"/>
      <point x="681" y="1185"/>
      <point x="681" y="1314" type="curve" smooth="yes"/>
      <point x="681" y="1443"/>
      <point x="568" y="1547"/>
      <point x="429" y="1547" type="curve" smooth="yes"/>
      <point x="289" y="1547"/>
      <point x="177" y="1443"/>
    </contour>
  </outline>
</glyph>
<glyph name="Egrave" format="1">
  <advance width="763"/>
  <unicode hex="00C8"/>
  <outline>
    <contour>
      <point x="599" y="0" type="line" smooth="yes"/>
      <point x="615" y="0"/>
      <point x="627" y="43"/>
      <point x="627" y="97" type="curve" smooth="yes"/>
      <point x="627" y="151"/>
      <point x="615" y="194"/>
      <point x="599" y="194" type="curve" smooth="yes"/>
      <point x="210" y="194" type="line"/>
      <point x="210" y="413" type="line"/>
      <point x="417" y="413" type="line" smooth="yes"/>
      <point x="433" y="413"/>
      <point x="445" y="456"/>
      <point x="445" y="510" type="curve" smooth="yes"/>
      <point x="445" y="564"/>
      <point x="433" y="607"/>
      <point x="417" y="607" type="curve" smooth="yes"/>
      <point x="210" y="607" type="line"/>
      <point x="210" y="806" type="line"/>
      <point x="599" y="806" type="line" smooth="yes"/>
      <point x="615" y="806"/>
      <point x="627" y="849"/>
      <point x="627" y="903" type="curve" smooth="yes"/>
      <point x="627" y="957"/>
      <point x="615" y="1000"/>
      <point x="599" y="1000" type="curve" smooth="yes"/>
      <point x="121" y="1000" type="line" smooth="yes"/>
      <point x="54" y="1000"/>
      <point x="0" y="986"/>
      <point x="0" y="970" type="curve" smooth="yes"/>
      <point x="0" y="30" type="line" smooth="yes"/>
      <point x="0" y="14"/>
      <point x="54" y="0"/>
      <point x="121" y="0" type="curve" smooth="yes"/>
    </contour>
    <contour>
      <point x="248" y="1343" type="line" smooth="yes"/>
      <point x="241" y="1351"/>
      <point x="223" y="1342"/>
      <point x="197" y="1319" type="curve" smooth="yes"/>
      <point x="172" y="1296"/>
      <point x="147" y="1265"/>
      <point x="129" y="1236" type="curve" smooth="yes"/>
      <point x="111" y="1206"/>
      <point x="106" y="1186"/>
      <point x="114" y="1181" type="curve" smooth="yes"/>
      <point x="290" y="1080" type="line" smooth="yes"/>
      <point x="298" y="1075"/>
      <point x="324" y="1094"/>
      <point x="348" y="1124" type="curve" smooth="yes"/>
      <point x="373" y="1154"/>
      <point x="387" y="1182"/>
      <point x="380" y="1190" type="curve" smooth="yes"/>
    </contour>
  </outline>
</glyph>
<glyph name="Eacute" format="1">
  <advance width="763"/>
  <unicode hex="00C9"/>
  <outline>
    <contour>
      <point x="599" y="0" type="line" smooth="yes"/>
      <point x="615" y="0"/>
      <point x="627" y="43"/>
      <point x="627" y="97" type="curve" smooth="yes"/>
      <point x="627" y="151"/>
      <point x="615" y="194"/>
      <point x="599" y="194" type="curve" smooth="yes"/>
      <point x="210" y="194" type="line"/>
      <point x="210" y="413" type="line"/>
      <point x="417" y="413" type="line" smooth="yes"/>
      <point x="433" y="413"/>
      <point x="445" y="456"/>
      <point x="445" y="510" type="curve" smooth="yes"/>
      <point x="445" y="564"/>
      <point x="433" y="607"/>
      <point x="417" y="607" type="curve" smooth="yes"/>
      <point x="210" y="607" type="line"/>
      <point x="210" y="806" type="line"/>
      <point x="599" y="806" type="line" smooth="yes"/>
      <point x="615" y="806"/>
      <point x="627" y="849"/>
      <point x="627" y="903" type="curve" smooth="yes"/>
      <point x="627" y="957"/>
      <point x="615" y="1000"/>
      <point x="599" y="1000" type="curve" smooth="yes"/>
      <point x="121" y="1000" type="line" smooth="yes"/>
      <point x="54" y="1000"/>
      <point x="0" y="986"/>
      <point x="0" y="970" type="curve" smooth="yes"/>
      <point x="0" y="30" type="line" smooth="yes"/>
      <point x="0" y="14"/>
      <point x="54" y="0"/>
      <point x="121" y="0" type="curve" smooth="yes"/>
    </contour>
    <contour>
      <point x="379" y="1343" type="curve" smooth="yes"/>
      <point x="247" y="1190" type="line" smooth="yes"/>
      <point x="240" y="1182"/>
      <point x="255" y="1154"/>
      <point x="279" y="1124" type="curve" smooth="yes"/>
      <point x="304" y="1094"/>
      <point x="329" y="1075"/>
      <point x="338" y="1080" type="curve" smooth="yes"/>
      <point x="513" y="1181" type="line" smooth="yes"/>
      <point x="522" y="1186"/>
      <point x="516" y="1206"/>
      <point x="499" y="1236" type="curve" smooth="yes"/>
      <point x="481" y="1265"/>
      <point x="456" y="1296"/>
      <point x="430" y="1319" type="curve" smooth="yes"/>
      <point x="404" y="1342"/>
      <point x="386" y="1351"/>
    </contour>
  </outline>
</glyph>
<glyph name="Ecircumflex" format="1">
  <advance width="763"/>
  <unicode hex="00CA"/>
  <outline>
    <contour>
      <point x="599" y="0" type="line" smooth="yes"/>
      <point x="615" y="0"/>
      <point x="627" y="43"/>
      <point x="627" y="97" type="curve" smooth="yes"/>
      <point x="627" y="151"/>
      <point x="615" y="194"/>
      <point x="599" y="194" type="curve" smooth="yes"/>
      <point x="210" y="194" type="line"/>
      <point x="210" y="413" type="line"/>
      <point x="417" y="413" type="line" smooth="yes"/>
      <point x="433" y="413"/>
      <point x="445" y="456"/>
      <point x="445" y="510" type="curve" smooth="yes"/>
      <point x="445" y="564"/>
      <point x="433" y="607"/>
      <point x="417" y="607" type="curve" smooth="yes"/>
      <point x="210" y="607" type="line"/>
      <point x="210" y="806" type="line"/>
      <point x="599" y="806" type="line" smooth="yes"/>
      <point x="615" y="806"/>
      <point x="627" y="849"/>
      <point x="627" y="903" type="curve" smooth="yes"/>
      <point x="627" y="957"/>
      <point x="615" y="1000"/>
      <point x="599" y="1000" type="curve" smooth="yes"/>
      <point x="121" y="1000" type="line" smooth="yes"/>
      <point x="54" y="1000"/>
      <point x="0" y="986"/>
      <point x="0" y="970" type="curve" smooth="yes"/>
      <point x="0" y="30" type="line" smooth="yes"/>
      <point x="0" y="14"/>
      <point x="54" y="0"/>
      <point x="121" y="0" type="curve" smooth="yes"/>
    </contour>
    <contour>
      <point x="84" y="1188" type="line" smooth="yes"/>
      <point x="81" y="1184"/>
      <point x="82" y="1178"/>
      <point x="89" y="1168" type="curve" smooth="yes"/>
      <point x="107" y="1142"/>
      <point x="158" y="1107"/>
      <point x="202" y="1088" type="curve" smooth="yes"/>
      <point x="231" y="1077"/>
      <point x="249" y="1075"/>
      <point x="255" y="1082" type="curve"/>
      <point x="314" y="1160" type="line"/>
      <point x="373" y="1082" type="line" smooth="yes"/>
      <point x="378" y="1075"/>
      <point x="397" y="1077"/>
      <point x="425" y="1088" type="curve" smooth="yes"/>
      <point x="469" y="1107"/>
      <point x="520" y="1142"/>
      <point x="539" y="1168" type="curve"/>
      <point x="545" y="1178"/>
      <point x="547" y="1184"/>
      <point x="544" y="1188" type="curve" smooth="yes"/>
      <point x="432" y="1336" type="line" smooth="yes"/>
      <point x="422" y="1350"/>
      <point x="373" y="1361"/>
      <point x="314" y="1361" type="curve" smooth="yes"/>
      <point x="255" y="1361"/>
      <point x="205" y="1350"/>
      <point x="195" y="1336" type="curve" smooth="yes"/>
    </contour>
  </outline>
</glyph>
<glyph name="Edieresis" format="1">
  <advance width="763"/>
  <unicode hex="00CB"/>
  <outline>
    <contour>
      <point x="561" y="0" type="line" smooth="yes"/>
      <point x="598" y="0"/>
      <point x="627" y="43"/>
      <point x="627" y="97" type="curve" smooth="yes"/>
      <point x="627" y="151"/>
      <point x="598" y="194"/>
      <point x="561" y="194" type="curve" smooth="yes"/>
      <point x="210" y="194" type="line"/>
      <point x="210" y="413" type="line"/>
      <point x="417" y="413" type="line" smooth="yes"/>
      <point x="453" y="413"/>
      <point x="483" y="456"/>
      <point x="483" y="510" type="curve" smooth="yes"/>
      <point x="483" y="564"/>
      <point x="453" y="607"/>
      <point x="417" y="607" type="curve" smooth="yes"/>
      <point x="210" y="607" type="line"/>
      <point x="210" y="806" type="line"/>
      <point x="561" y="806" type="line" smooth="yes"/>
      <point x="598" y="806"/>
      <point x="627" y="849"/>
      <point x="627" y="903" type="curve" smooth="yes"/>
      <point x="627" y="957"/>
      <point x="598" y="1000"/>
      <point x="561" y="1000" type="curve" smooth="yes"/>
      <point x="121" y="1000" type="line" smooth="yes"/>
      <point x="54" y="1000"/>
      <point x="0" y="969"/>
      <point x="0" y="930" type="curve" smooth="yes"/>
      <point x="0" y="70" type="line" smooth="yes"/>
      <point x="0" y="31"/>
      <point x="54" y="0"/>
      <point x="121" y="0" type="curve" smooth="yes"/>
    </contour>
    <contour>
      <point x="227" y="1208" type="line" smooth="yes"/>
      <point x="227" y="1242"/>
      <point x="180" y="1269"/>
      <point x="122" y="1269" type="curve" smooth="yes"/>
      <point x="64" y="1269"/>
      <point x="17" y="1242"/>
      <point x="17" y="1208" type="curve" smooth="yes"/>
      <point x="17" y="1136" type="line" smooth="yes"/>
      <point x="17" y="1102"/>
      <point x="64" y="1075"/>
      <point x="122" y="1075" type="curve" smooth="yes"/>
      <point x="180" y="1075"/>
      <point x="227" y="1102"/>
      <point x="227" y="1136" type="curve" smooth="yes"/>
    </contour>
    <contour>
      <point x="610" y="1208" type="line" smooth="yes"/>
      <point x="610" y="1242"/>
      <point x="563" y="1269"/>
      <point x="505" y="1269" type="curve" smooth="yes"/>
      <point x="447" y="1269"/>
      <point x="400" y="1242"/>
      <point x="400" y="1208" type="curve" smooth="yes"/>
      <point x="400" y="1136" type="line" smooth="yes"/>
      <point x="400" y="1102"/>
      <point x="447" y="1075"/>
      <point x="505" y="1075" type="curve" smooth="yes"/>
      <point x="563" y="1075"/>
      <point x="610" y="1102"/>
      <point x="610" y="1136" type="curve" smooth="yes"/>
    </contour>
  </outline>
</glyph>
<glyph name="Igrave" format="1">
  <advance width="345"/>
  <unicode hex="00CC"/>
  <outline>
    <contour>
      <point x="210" y="945" type="line" smooth="yes"/>
      <point x="210" y="979"/>
      <point x="163" y="1006"/>
      <point x="105" y="1006" type="curve" smooth="yes"/>
      <point x="47" y="1006"/>
      <point x="0" y="979"/>
      <point x="0" y="945" type="curve" smooth="yes"/>
      <point x="0" y="55" type="line" smooth="yes"/>
      <point x="0" y="21"/>
      <point x="47" y="-6"/>
      <point x="105" y="-6" type="curve" smooth="yes"/>
      <point x="163" y="-6"/>
      <point x="210" y="21"/>
      <point x="210" y="55" type="curve" smooth="yes"/>
    </contour>
    <contour>
      <point x="48" y="1347" type="line" smooth="yes"/>
      <point x="32" y="1366"/>
      <point x="4" y="1365"/>
      <point x="-28" y="1346" type="curve" smooth="yes"/>
      <point x="-60" y="1327"/>
      <point x="-86" y="1296"/>
      <point x="-98" y="1261" type="curve" smooth="yes"/>
      <point x="-111" y="1226"/>
      <point x="-106" y="1198"/>
      <point x="-85" y="1186" type="curve" smooth="yes"/>
      <point x="89" y="1086" type="line" smooth="yes"/>
      <point x="107" y="1075"/>
      <point x="139" y="1088"/>
      <point x="163" y="1117" type="curve" smooth="yes"/>
      <point x="186" y="1145"/>
      <point x="193" y="1179"/>
      <point x="179" y="1195" type="curve" smooth="yes"/>
    </contour>
  </outline>
</glyph>
<glyph name="Iacute" format="1">
  <advance width="345"/>
  <unicode hex="00CD"/>
  <outline>
    <contour>
      <point x="210" y="945" type="line" smooth="yes"/>
      <point x="210" y="979"/>
      <point x="163" y="1006"/>
      <point x="105" y="1006" type="curve" smooth="yes"/>
      <point x="47" y="1006"/>
      <point x="0" y="979"/>
      <point x="0" y="945" type="curve" smooth="yes"/>
      <point x="0" y="55" type="line" smooth="yes"/>
      <point x="0" y="21"/>
      <point x="47" y="-6"/>
      <point x="105" y="-6" type="curve" smooth="yes"/>
      <point x="163" y="-6"/>
      <point x="210" y="21"/>
      <point x="210" y="55" type="curve" smooth="yes"/>
    </contour>
    <contour>
      <point x="162" y="1347" type="curve" smooth="yes"/>
      <point x="31" y="1195" type="line" smooth="yes"/>
      <point x="17" y="1179"/>
      <point x="24" y="1145"/>
      <point x="47" y="1117" type="curve" smooth="yes"/>
      <point x="71" y="1088"/>
      <point x="103" y="1075"/>
      <point x="121" y="1086" type="curve" smooth="yes"/>
      <point x="295" y="1186" type="line" smooth="yes"/>
      <point x="316" y="1198"/>
      <point x="321" y="1226"/>
      <point x="308" y="1261" type="curve" smooth="yes"/>
      <point x="296" y="1296"/>
      <point x="270" y="1327"/>
      <point x="238" y="1346" type="curve" smooth="yes"/>
      <point x="206" y="1365"/>
      <point x="178" y="1366"/>
    </contour>
  </outline>
</glyph>
<glyph name="Icircumflex" format="1">
  <advance width="345"/>
  <unicode hex="00CE"/>
  <outline>
    <contour>
      <point x="210" y="945" type="line" smooth="yes"/>
      <point x="210" y="979"/>
      <point x="163" y="1006"/>
      <point x="105" y="1006" type="curve" smooth="yes"/>
      <point x="47" y="1006"/>
      <point x="0" y="979"/>
      <point x="0" y="945" type="curve" smooth="yes"/>
      <point x="0" y="55" type="line" smooth="yes"/>
      <point x="0" y="21"/>
      <point x="47" y="-6"/>
      <point x="105" y="-6" type="curve" smooth="yes"/>
      <point x="163" y="-6"/>
      <point x="210" y="21"/>
      <point x="210" y="55" type="curve" smooth="yes"/>
    </contour>
    <contour>
      <point x="-112" y="1220" type="line" smooth="yes"/>
      <point x="-121" y="1209"/>
      <point x="-125" y="1194"/>
      <point x="-120" y="1175" type="curve" smooth="yes"/>
      <point x="-110" y="1133"/>
      <point x="-63" y="1091"/>
      <point x="-16" y="1081" type="curve" smooth="yes"/>
      <point x="11" y="1075"/>
      <point x="32" y="1081"/>
      <point x="44" y="1094" type="curve" smooth="yes"/>
      <point x="105" y="1164" type="line"/>
      <point x="166" y="1094" type="line" smooth="yes"/>
      <point x="178" y="1081"/>
      <point x="199" y="1075"/>
      <point x="226" y="1081" type="curve" smooth="yes"/>
      <point x="273" y="1091"/>
      <point x="320" y="1133"/>
      <point x="330" y="1175" type="curve" smooth="yes"/>
      <point x="335" y="1194"/>
      <point x="331" y="1209"/>
      <point x="322" y="1220" type="curve" smooth="yes"/>
      <point x="213" y="1344" type="line" smooth="yes"/>
      <point x="193" y="1367"/>
      <point x="152" y="1383"/>
      <point x="105" y="1383" type="curve" smooth="yes"/>
      <point x="58" y="1383"/>
      <point x="17" y="1367"/>
      <point x="-3" y="1344" type="curve" smooth="yes"/>
    </contour>
  </outline>
</glyph>
